# Blender 5.1.2
# www.blender.org
mtllib BigRocks.mtl
o RockFormationBig
v -0.029174 0.432941 -0.107266
v -0.099598 0.291070 -0.073911
v -0.129138 0.141194 -0.046186
v -0.135056 0.006746 -0.024761
v -0.031028 -0.024113 -0.037491
v -0.061915 0.267441 -0.147804
v -0.075961 0.079390 -0.146353
v -0.096411 -0.061392 -0.135726
v 0.020208 0.273707 -0.135323
v 0.040178 0.088252 -0.128702
v 0.071027 -0.036200 -0.120240
v 0.033445 0.342075 -0.059955
v 0.058779 0.155533 -0.017626
v 0.087396 0.021320 0.005103
v -0.040549 0.365212 -0.023894
v -0.045864 0.188253 0.033372
v -0.047806 0.061882 0.068177
v 0.132320 0.376841 0.048334
v 0.151151 0.234970 -0.027280
v 0.148425 0.085094 -0.067702
v 0.135603 -0.049354 -0.085857
v 0.079522 -0.080213 0.002679
v 0.184427 0.211341 0.048699
v 0.192206 0.023290 0.036914
v 0.196946 -0.117492 0.014361
v 0.122726 0.217607 0.104314
v 0.104948 0.032152 0.115565
v 0.078852 -0.092300 0.134065
v 0.056037 0.285975 0.066788
v 0.007239 0.099433 0.059558
v -0.028479 -0.034780 0.067289
v 0.075038 0.309112 -0.013303
v 0.034109 0.132153 -0.053707
v 0.008417 0.005782 -0.077267
v -0.094252 0.471809 0.026713
v -0.016412 0.329938 0.023113
v 0.021539 0.180061 0.008933
v 0.035265 0.045614 -0.008549
v -0.065619 0.014754 -0.036944
v -0.079689 0.306308 0.076744
v -0.066170 0.118258 0.080825
v -0.043203 -0.022525 0.078911
v -0.150636 0.312575 0.033542
v -0.166505 0.127119 0.019728
v -0.191700 0.002668 0.000019
v -0.133768 0.380943 -0.041097
v -0.140807 0.194400 -0.089924
v -0.158438 0.060188 -0.121934
v -0.051589 0.404079 -0.045815
v -0.024590 0.227120 -0.096595
v -0.009369 0.100750 -0.127956
v 0.119702 -0.021432 0.176037
v -0.019375 0.003869 0.241463
v -0.126905 0.012705 0.102499
v -0.009668 0.153392 -0.034195
v 0.129093 -0.006764 0.028858
v 0.032344 0.057440 0.177480
v -0.062343 0.075636 0.160878
v -0.101201 0.126722 0.025674
v 0.032544 0.131504 0.030581
v 0.079831 0.080204 0.102499
v 0.015577 0.112408 0.102499
vn -0.2000 -0.8645 0.4612
vn -0.8698 0.0700 -0.4884
vn -0.9075 0.0382 -0.4182
vn -0.8139 0.2850 -0.5062
vn 0.1170 -0.9519 0.2833
vn 0.1516 -0.0190 -0.9883
vn 0.1237 -0.0664 -0.9901
vn 0.1311 0.2113 -0.9686
vn 0.2063 -0.8993 0.3857
vn 0.9693 0.0879 -0.2295
vn 0.9518 0.1898 -0.2410
vn 0.8274 0.3359 -0.4500
vn 0.0661 -0.7687 0.6361
vn 0.4870 0.2556 0.8352
vn 0.4752 0.2358 0.8477
vn 0.4884 0.6435 0.5894
vn -0.8339 0.4786 0.2750
vn -0.1564 -0.7781 0.6084
vn -0.7571 0.2389 0.6081
vn -0.7480 0.1613 0.6438
vn -0.2300 -0.8645 -0.4470
vn 0.9290 0.0700 -0.3633
vn 0.8987 0.0382 -0.4370
vn 0.9074 0.2850 -0.3088
vn -0.2933 -0.9519 -0.0891
vn 0.6683 -0.0190 0.7436
vn 0.6875 -0.0664 0.7231
vn 0.6662 0.2113 0.7152
vn -0.4291 -0.8993 -0.0849
vn -0.4368 0.0879 0.8952
vn -0.4168 0.1898 0.8890
vn -0.1763 0.3359 0.9253
vn -0.5340 -0.7687 -0.3520
vn -0.9546 0.2556 -0.1526
vn -0.9569 0.2358 -0.1696
vn -0.7655 0.6435 0.0043
vn 0.3157 0.4786 -0.8193
vn -0.3715 -0.7781 -0.5065
vn 0.0094 0.2389 -0.9710
vn -0.0240 0.1613 -0.9866
vn 0.3625 -0.8645 -0.3483
vn 0.6140 0.0700 0.7862
vn 0.6759 0.0382 0.7360
vn 0.5556 0.2850 0.7811
vn 0.0014 -0.9519 -0.3065
vn -0.5212 -0.0190 0.8532
vn -0.4961 -0.0664 0.8657
vn -0.4947 0.2113 0.8430
vn -0.0415 -0.8993 -0.4354
vn -0.9828 0.0879 -0.1623
vn -0.9711 0.1898 -0.1450
vn -0.9370 0.3359 0.0959
vn 0.1844 -0.7687 -0.6124
vn -0.1270 0.2556 -0.9584
vn -0.1113 0.2358 -0.9654
vn -0.2232 0.6435 -0.7322
vn 0.8754 0.4786 0.0680
vn 0.3790 -0.7781 -0.5009
vn 0.9331 0.2389 -0.2689
vn 0.9385 0.1613 -0.3054
vn 0.8996 0.4251 0.0998
vn 0.4436 0.4775 0.7584
vn -0.7642 0.2223 0.6055
vn -0.3926 -0.4514 -0.8013
vn 0.7747 0.5450 -0.3207
vn 0.5663 0.6173 0.5461
vn 0.0300 0.7543 0.6558
vn -0.7991 0.4493 0.3994
vn -0.0462 0.9368 0.3467
vn 0.8124 0.5688 -0.1284
vn 0.3917 0.7816 0.4854
vn 0.0537 0.8110 0.5825
vn -0.1417 0.9119 0.3853
vn -0.0437 0.9681 0.2467
vn 0.4238 0.8456 0.3245
vt 0.500000 0.000000
vt 0.600000 0.250000
vt 0.400000 0.250000
vt 0.600000 0.500000
vt 0.600000 0.750000
vt 0.400000 0.750000
vt 0.400000 0.500000
vt 0.500000 1.000000
vt 0.300000 0.000000
vt 0.200000 0.250000
vt 0.200000 0.750000
vt 0.200000 0.500000
vt 0.300000 1.000000
vt 0.100000 0.000000
vt 0.000000 0.250000
vt 0.000000 0.750000
vt 0.000000 0.500000
vt 0.100000 1.000000
vt 0.900000 0.000000
vt 1.000000 0.250000
vt 0.800000 0.250000
vt 1.000000 0.500000
vt 1.000000 0.750000
vt 0.800000 0.750000
vt 0.800000 0.500000
vt 0.900000 1.000000
vt 0.700000 1.000000
vt 0.700000 0.000000
vt 0.272728 0.157461
vt 0.454546 0.157461
vt 0.363637 0.314921
vt 0.090910 0.157461
vt 0.181819 0.314921
vt 0.818182 0.157461
vt 1.000000 0.157461
vt 0.909091 0.314921
vt 0.636364 0.157461
vt 0.727273 0.314921
vt 0.545455 0.314921
vt 0.000000 0.314921
vt 0.272728 0.472382
vt 0.090910 0.472382
vt 0.818182 0.472382
vt 0.636364 0.472382
vt 0.454546 0.472382
s 0
f 5/1/1 4/2/1 8/3/1
f 3/4/2 2/5/2 6/6/2 7/7/2
f 4/2/3 3/4/3 7/7/3 8/3/3
f 2/5/4 1/8/4 6/6/4
f 5/9/5 8/3/5 11/10/5
f 7/7/6 6/6/6 9/11/6 10/12/6
f 8/3/7 7/7/7 10/12/7 11/10/7
f 6/6/8 1/13/8 9/11/8
f 5/14/9 11/10/9 14/15/9
f 10/12/10 9/11/10 12/16/10 13/17/10
f 11/10/11 10/12/11 13/17/11 14/15/11
f 9/11/12 1/18/12 12/16/12
f 5/19/13 14/20/13 17/21/13
f 13/22/14 12/23/14 15/24/14 16/25/14
f 14/20/15 13/22/15 16/25/15 17/21/15
f 12/23/16 1/26/16 15/24/16
f 15/24/17 1/27/17 2/5/17
f 5/28/18 17/21/18 4/2/18
f 16/25/19 15/24/19 2/5/19 3/4/19
f 17/21/20 16/25/20 3/4/20 4/2/20
f 22/1/21 21/2/21 25/3/21
f 20/4/22 19/5/22 23/6/22 24/7/22
f 21/2/23 20/4/23 24/7/23 25/3/23
f 19/5/24 18/8/24 23/6/24
f 22/9/25 25/3/25 28/10/25
f 24/7/26 23/6/26 26/11/26 27/12/26
f 25/3/27 24/7/27 27/12/27 28/10/27
f 23/6/28 18/13/28 26/11/28
f 22/14/29 28/10/29 31/15/29
f 27/12/30 26/11/30 29/16/30 30/17/30
f 28/10/31 27/12/31 30/17/31 31/15/31
f 26/11/32 18/18/32 29/16/32
f 22/19/33 31/20/33 34/21/33
f 30/22/34 29/23/34 32/24/34 33/25/34
f 31/20/35 30/22/35 33/25/35 34/21/35
f 29/23/36 18/26/36 32/24/36
f 32/24/37 18/27/37 19/5/37
f 22/28/38 34/21/38 21/2/38
f 33/25/39 32/24/39 19/5/39 20/4/39
f 34/21/40 33/25/40 20/4/40 21/2/40
f 39/1/41 38/2/41 42/3/41
f 37/4/42 36/5/42 40/6/42 41/7/42
f 38/2/43 37/4/43 41/7/43 42/3/43
f 36/5/44 35/8/44 40/6/44
f 39/9/45 42/3/45 45/10/45
f 41/7/46 40/6/46 43/11/46 44/12/46
f 42/3/47 41/7/47 44/12/47 45/10/47
f 40/6/48 35/13/48 43/11/48
f 39/14/49 45/10/49 48/15/49
f 44/12/50 43/11/50 46/16/50 47/17/50
f 45/10/51 44/12/51 47/17/51 48/15/51
f 43/11/52 35/18/52 46/16/52
f 39/19/53 48/20/53 51/21/53
f 47/22/54 46/23/54 49/24/54 50/25/54
f 48/20/55 47/22/55 50/25/55 51/21/55
f 46/23/56 35/26/56 49/24/56
f 49/24/57 35/27/57 36/5/57
f 39/28/58 51/21/58 38/2/58
f 50/25/59 49/24/59 36/5/59 37/4/59
f 51/21/60 50/25/60 37/4/60 38/2/60
f 52/29/61 56/30/61 61/31/61
f 53/32/62 52/29/62 57/33/62
f 54/34/63 53/35/63 58/36/63
f 55/37/64 54/34/64 59/38/64
f 56/30/65 55/37/65 60/39/65
f 52/29/66 61/31/66 57/33/66
f 53/32/67 57/33/67 58/40/67
f 54/34/68 58/36/68 59/38/68
f 55/37/69 59/38/69 60/39/69
f 56/30/70 60/39/70 61/31/70
f 57/33/71 61/31/71 62/41/71
f 58/40/72 57/33/72 62/42/72
f 59/38/73 58/36/73 62/43/73
f 60/39/74 59/38/74 62/44/74
f 61/31/75 60/39/75 62/45/75
