# Blender 5.1.2
# www.blender.org
mtllib Crate.mtl
o Cube
v -0.060000 0.001520 0.060000
v -0.060000 0.121520 0.060000
v -0.060000 0.001520 -0.060000
v -0.060000 0.121520 -0.060000
v 0.060000 0.001520 0.060000
v 0.060000 0.121520 0.060000
v 0.060000 0.001520 -0.060000
v 0.060000 0.121520 -0.060000
v -0.060000 0.107165 -0.060000
v 0.060000 0.108373 0.060000
v -0.060000 0.107765 0.060000
v 0.060000 0.107736 -0.060000
v -0.060000 0.020505 -0.060000
v -0.060000 0.020375 0.060000
v 0.060000 0.020982 0.060000
v 0.060000 0.021296 -0.060000
v 0.042197 0.021178 -0.060000
v 0.041621 0.020889 0.060000
v 0.042443 0.121520 -0.060000
v 0.042549 0.108284 0.060000
v 0.042690 0.121520 0.060000
v 0.042409 0.107653 -0.060000
v 0.041415 0.001520 0.060000
v 0.042149 0.001520 -0.060000
v -0.040716 0.020632 -0.060000
v -0.039078 0.001520 0.060000
v -0.041422 0.121520 0.060000
v -0.041155 0.107861 0.060000
v -0.040537 0.107258 -0.060000
v -0.039448 0.020479 0.060000
v -0.040755 0.001520 -0.060000
v -0.040507 0.121520 -0.060000
v 0.041522 0.001520 0.042572
v 0.060000 0.021027 0.042743
v 0.042655 0.121520 0.043080
v -0.060000 0.020394 0.042157
v -0.060000 0.001520 0.042136
v 0.060000 0.001520 0.042651
v -0.039326 0.001520 0.042225
v 0.060000 0.121520 0.043217
v -0.060000 0.121520 0.042270
v 0.060000 0.108283 0.043155
v -0.041288 0.121520 0.042417
v -0.060000 0.107676 0.042254
v 0.060000 0.021249 -0.042238
v 0.042479 0.121520 -0.042620
v -0.060000 0.020487 -0.043470
v -0.040639 0.121520 -0.042667
v -0.060000 0.001520 -0.043619
v 0.060000 0.001520 -0.042165
v -0.040523 0.001520 -0.043383
v -0.060000 0.121520 -0.042677
v 0.042041 0.001520 -0.042383
v 0.060000 0.121520 -0.042610
v 0.060000 0.107829 -0.042559
v -0.060000 0.107251 -0.042789
v -0.039448 0.020479 0.046540
v 0.041621 0.020889 0.046540
v -0.041155 0.107861 0.046540
v 0.042549 0.108284 0.046540
v 0.042409 0.107653 -0.046540
v 0.042197 0.021178 -0.046540
v -0.040716 0.020632 -0.046540
v -0.040537 0.107258 -0.046540
v -0.046540 0.020487 -0.043470
v -0.046540 0.020394 0.042157
v -0.046540 0.107251 -0.042789
v -0.046540 0.107676 0.042254
v 0.046540 0.021027 0.042743
v 0.046540 0.108283 0.043155
v 0.046540 0.021249 -0.042238
v 0.046540 0.107829 -0.042559
v -0.058773 0.080978 0.054201
v -0.058773 0.106776 0.043455
v -0.058773 0.030448 -0.043455
v -0.058773 0.056246 -0.054201
v -0.048252 0.080978 0.054201
v -0.048252 0.106776 0.043455
v -0.048252 0.030448 -0.043455
v -0.048252 0.056246 -0.054201
v 0.049788 0.024513 0.045887
v 0.049788 0.048287 0.055340
v 0.049788 0.074753 -0.055340
v 0.049788 0.098527 -0.045887
v 0.058444 0.024513 0.045887
v 0.058444 0.048287 0.055340
v 0.058444 0.074753 -0.055340
v 0.058444 0.098527 -0.045887
vn -1.0000 -0.0000 -0.0000
vn -0.0000 -0.0000 -1.0000
vn 1.0000 -0.0000 -0.0000
vn -0.0000 -0.0000 1.0000
vn -0.0000 -1.0000 -0.0000
vn -0.0000 1.0000 -0.0000
vn 1.0000 -0.0021 -0.0000
vn -0.0000 1.0000 0.0011
vn 0.0048 -1.0000 -0.0000
vn -0.0000 1.0000 0.0026
vn -0.0000 -1.0000 0.0050
vn -0.9999 0.0106 -0.0000
vn -0.0000 0.0047 -1.0000
vn -0.0000 -1.0000 0.0053
vn 0.9998 0.0195 -0.0000
vn -0.0000 0.0011 -1.0000
vn -0.0051 1.0000 -0.0000
vn -0.0066 1.0000 -0.0000
vn -0.0000 0.0037 1.0000
vn -1.0000 0.0025 -0.0000
vn -0.0000 -0.0078 1.0000
vn 0.0051 -1.0000 -0.0000
vn -0.0000 -0.3845 -0.9231
vn -0.0000 0.3845 0.9231
vn -0.0000 -0.8882 0.4596
vn -0.0000 0.8882 -0.4596
vn -0.0000 0.3695 -0.9292
vn -0.0000 -0.3695 0.9292
vn -0.0000 -0.8957 -0.4446
vn -0.0000 0.8957 0.4446
vt 0.375000 0.000000
vt 0.414280 0.000000
vt 0.414321 0.037173
vt 0.375000 0.037216
vt 0.375000 0.250000
vt 0.414551 0.250000
vt 0.414816 0.290175
vt 0.375000 0.290093
vt 0.375000 0.500000
vt 0.416200 0.500000
vt 0.416103 0.537004
vt 0.375000 0.537156
vt 0.375000 0.750000
vt 0.415546 0.750000
vt 0.415352 0.788290
vt 0.375000 0.788719
vt 0.125000 0.500000
vt 0.165093 0.500000
vt 0.165577 0.534618
vt 0.125000 0.534127
vt 0.625000 0.500000
vt 0.661576 0.500000
vt 0.661502 0.536209
vt 0.625000 0.536230
vt 0.597610 0.750000
vt 0.597424 0.714906
vt 0.625000 0.715036
vt 0.625000 0.750000
vt 0.595094 0.250000
vt 0.595273 0.214145
vt 0.625000 0.213911
vt 0.625000 0.250000
vt 0.596344 1.000000
vt 0.596543 0.960740
vt 0.625000 0.961296
vt 0.625000 1.000000
vt 0.596284 0.500000
vt 0.596110 0.463353
vt 0.625000 0.463424
vt 0.415640 0.714049
vt 0.414514 0.215563
vt 0.414280 1.000000
vt 0.414497 0.957183
vt 0.415955 0.462910
vt 0.625000 0.786063
vt 0.597426 0.786356
vt 0.661063 0.750000
vt 0.661135 0.714750
vt 0.836017 0.713370
vt 0.836296 0.750000
vt 0.595287 0.290548
vt 0.375000 0.462809
vt 0.375000 0.956412
vt 0.625000 0.290610
vt 0.336281 0.750000
vt 0.336503 0.713692
vt 0.375000 0.713857
vt 0.375000 1.000000
vt 0.875000 0.713062
vt 0.875000 0.750000
vt 0.168588 0.750000
vt 0.168070 0.712969
vt 0.834666 0.536111
vt 0.596477 0.536335
vt 0.625000 0.036938
vt 0.596159 0.036970
vt 0.596344 0.000000
vt 0.625000 0.000000
vt 0.875000 0.536089
vt 0.337585 0.536703
vt 0.375000 0.215873
vt 0.125000 0.712784
vt 0.125000 0.750000
vt 0.337809 0.500000
vt 0.834390 0.500000
vt 0.875000 0.500000
s 0
f 1/1/1 14/2/1 36/3/1 37/4/1
f 3/5/2 13/6/2 25/7/2 31/8/2
f 7/9/3 16/10/3 45/11/3 50/12/3
f 5/13/4 15/14/4 18/15/4 23/16/4
f 3/17/5 31/18/5 51/19/5 49/20/5
f 8/21/6 19/22/6 46/23/6 54/24/6
f 10/25/3 42/26/3 40/27/3 6/28/3
f 9/29/1 56/30/1 52/31/1 4/32/1
f 11/33/4 28/34/4 27/35/4 2/36/4
f 12/37/2 22/38/2 19/39/2 8/21/2
f 15/14/3 34/40/3 42/26/3 10/25/3
f 13/6/1 47/41/1 56/30/1 9/29/1
f 14/42/4 30/43/4 28/34/4 11/33/4
f 16/10/2 17/44/2 22/38/2 12/37/2
f 21/45/4 20/46/4 10/25/4 6/28/4
f 21/47/6 35/48/6 43/49/6 27/50/6
f 25/7/7 29/51/7 64/51/7 63/7/7
f 24/52/2 17/44/2 16/10/2 7/9/2
f 23/16/4 18/15/4 30/43/4 26/53/4
f 19/39/2 22/38/2 29/51/2 32/54/2
f 20/46/4 18/15/4 15/14/4 10/25/4
f 23/55/5 33/56/5 38/57/5 5/13/5
f 61/38/2 62/44/2 63/7/2 64/51/2
f 26/53/4 30/43/4 14/42/4 1/58/4
f 32/54/2 29/51/2 9/29/2 4/32/2
f 31/8/2 25/7/2 17/44/2 24/52/2
f 27/50/6 43/49/6 41/59/6 2/60/6
f 29/51/2 25/7/2 13/6/2 9/29/2
f 47/41/8 36/3/8 66/3/8 65/41/8
f 27/35/4 28/34/4 20/46/4 21/45/4
f 26/61/5 39/62/5 33/56/5 23/55/5
f 40/27/6 35/48/6 21/47/6 6/28/6
f 43/49/6 35/48/6 46/23/6 48/63/6
f 40/27/3 42/26/3 55/64/3 54/24/3
f 41/65/1 44/66/1 11/67/1 2/68/1
f 41/59/6 43/49/6 48/63/6 52/69/6
f 38/57/5 33/56/5 53/70/5 50/12/5
f 37/4/1 36/3/1 47/41/1 49/71/1
f 29/51/9 22/38/9 61/38/9 64/51/9
f 44/66/1 36/3/1 14/2/1 11/67/1
f 38/57/3 34/40/3 15/14/3 5/13/3
f 33/56/5 39/62/5 51/19/5 53/70/5
f 37/72/5 39/62/5 26/61/5 1/73/5
f 53/70/5 51/19/5 31/18/5 24/74/5
f 48/63/6 46/23/6 19/22/6 32/75/6
f 54/24/6 46/23/6 35/48/6 40/27/6
f 54/24/3 55/64/3 12/37/3 8/21/3
f 52/31/1 56/30/1 44/66/1 41/65/1
f 52/69/6 48/63/6 32/75/6 4/76/6
f 50/12/5 53/70/5 24/74/5 7/9/5
f 49/71/1 47/41/1 13/6/1 3/5/1
f 55/64/3 45/11/3 16/10/3 12/37/3
f 34/40/10 45/11/10 71/11/10 69/40/10
f 50/12/3 45/11/3 34/40/3 38/57/3
f 49/20/5 51/19/5 39/62/5 37/72/5
f 59/34/4 57/43/4 58/15/4 60/46/4
f 70/26/3 69/40/3 71/11/3 72/64/3
f 67/30/1 65/41/1 66/3/1 68/66/1
f 44/66/11 56/30/11 67/30/11 68/66/11
f 18/15/12 20/46/12 60/46/12 58/15/12
f 42/26/13 34/40/13 69/40/13 70/26/13
f 55/64/14 42/26/14 70/26/14 72/64/14
f 28/34/15 30/43/15 57/43/15 59/34/15
f 36/3/16 44/66/16 68/66/16 66/3/16
f 30/43/17 18/15/17 58/15/17 57/43/17
f 17/44/18 25/7/18 63/7/18 62/44/18
f 45/11/19 55/64/19 72/64/19 71/11/19
f 22/38/20 17/44/20 62/44/20 61/38/20
f 56/30/21 47/41/21 65/41/21 67/30/21
f 20/46/22 28/34/22 59/34/22 60/46/22
f 73/1/1 74/68/1 76/32/1 75/5/1
f 75/5/23 76/32/23 80/21/23 79/9/23
f 79/9/3 80/21/3 78/28/3 77/13/3
f 77/13/24 78/28/24 74/36/24 73/58/24
f 75/17/25 79/9/25 77/13/25 73/73/25
f 80/21/26 76/76/26 74/60/26 78/28/26
f 81/1/1 82/68/1 84/32/1 83/5/1
f 83/5/27 84/32/27 88/21/27 87/9/27
f 87/9/3 88/21/3 86/28/3 85/13/3
f 85/13/28 86/28/28 82/36/28 81/58/28
f 83/17/29 87/9/29 85/13/29 81/73/29
f 88/21/30 84/76/30 82/60/30 86/28/30
