# Blender 5.1.2
# www.blender.org
mtllib Docks.mtl
o DocksV2
v -0.094000 0.125122 0.020000
v -0.094000 0.133122 0.020000
v -0.094000 0.125122 -0.020000
v -0.094000 0.133122 -0.020000
v 0.094000 0.125122 0.020000
v 0.094000 0.133122 0.020000
v 0.094000 0.125122 -0.020000
v 0.094000 0.133122 -0.020000
v -0.084142 -0.016432 0.392818
v -0.084142 0.180200 0.392818
v -0.087832 -0.016432 0.352971
v -0.087832 0.180200 0.352971
v -0.041960 -0.016432 0.389332
v -0.041960 0.180200 0.389332
v -0.045651 -0.016432 0.349484
v -0.045651 0.180200 0.349484
v 0.112999 -0.016432 0.376525
v 0.112999 0.180200 0.376525
v 0.109308 -0.016432 0.336677
v 0.109308 0.180200 0.336677
v 0.155180 -0.016432 0.373039
v 0.155180 0.180200 0.373039
v 0.151490 -0.016432 0.333191
v 0.151490 0.180200 0.333191
v -0.048692 0.088069 0.389621
v -0.048692 0.126385 0.389621
v -0.087883 0.088069 -0.033563
v -0.087883 0.126385 -0.033563
v -0.036459 0.088069 0.388610
v -0.036459 0.126385 0.388610
v -0.075651 0.088069 -0.034574
v -0.075651 0.126385 -0.034574
v 0.104650 0.088069 0.376947
v 0.104650 0.126385 0.376947
v 0.065458 0.088069 -0.046236
v 0.065458 0.126385 -0.046236
v 0.116882 0.088069 0.375936
v 0.116882 0.126385 0.375936
v 0.077691 0.088069 -0.047247
v 0.077691 0.126385 -0.047247
v -0.070007 0.125122 0.262947
v -0.070007 0.133122 0.262947
v -0.073697 0.125122 0.223099
v -0.073697 0.133122 0.223099
v 0.117278 0.125122 0.247468
v 0.117278 0.133122 0.247468
v 0.113587 0.125122 0.207620
v 0.113587 0.133122 0.207620
v -0.070643 0.125122 0.214223
v -0.070643 0.133122 0.214223
v -0.080168 0.125122 0.175249
v -0.080168 0.133122 0.175249
v 0.112538 0.125122 0.174272
v 0.112538 0.133122 0.174272
v 0.103013 0.125122 0.135297
v 0.103013 0.133122 0.135297
v -0.067021 0.125122 0.315556
v -0.067021 0.133122 0.315556
v -0.065544 0.125122 0.275581
v -0.065544 0.133122 0.275581
v 0.120864 0.125122 0.321754
v 0.120864 0.133122 0.321754
v 0.122342 0.125122 0.281779
v 0.122342 0.133122 0.281779
v -0.081362 0.125122 0.140343
v -0.081362 0.133122 0.140343
v -0.085052 0.125122 0.100495
v -0.085052 0.133122 0.100495
v 0.105923 0.125122 0.124864
v 0.105923 0.133122 0.124864
v 0.102233 0.125122 0.085016
v 0.102233 0.133122 0.085016
v -0.083961 0.125122 0.093782
v -0.083961 0.133122 0.093782
v -0.090585 0.125122 0.054274
v -0.090585 0.133122 0.054274
v 0.101724 0.125122 0.065999
v 0.101724 0.133122 0.065999
v 0.095100 0.125122 0.026491
v 0.095100 0.133122 0.026491
vn -1.0000 -0.0000 -0.0000
vn -0.0000 -0.0000 -1.0000
vn 1.0000 -0.0000 -0.0000
vn -0.0000 -0.0000 1.0000
vn -0.0000 -1.0000 -0.0000
vn -0.0000 1.0000 -0.0000
vn -0.9957 -0.0000 0.0922
vn -0.0824 -0.0000 -0.9966
vn 0.9957 -0.0000 -0.0922
vn 0.0824 -0.0000 0.9966
vn -0.9714 -0.0000 0.2374
vn -0.2131 -0.0000 -0.9770
vn 0.9714 -0.0000 -0.2374
vn 0.2131 -0.0000 0.9770
vn -0.9993 -0.0000 -0.0369
vn 0.0330 -0.0000 -0.9995
vn 0.9993 -0.0000 0.0369
vn -0.0330 -0.0000 0.9995
vn -0.9862 -0.0000 0.1654
vn -0.1480 -0.0000 -0.9890
vn 0.9862 -0.0000 -0.1654
vn 0.1480 -0.0000 0.9890
vt 0.375000 0.000000
vt 0.625000 0.000000
vt 0.625000 0.250000
vt 0.375000 0.250000
vt 0.625000 0.500000
vt 0.375000 0.500000
vt 0.625000 0.750000
vt 0.375000 0.750000
vt 0.625000 1.000000
vt 0.375000 1.000000
vt 0.125000 0.500000
vt 0.125000 0.750000
vt 0.875000 0.500000
vt 0.875000 0.750000
s 0
f 1/1/1 2/2/1 4/3/1 3/4/1
f 3/4/2 4/3/2 8/5/2 7/6/2
f 7/6/3 8/5/3 6/7/3 5/8/3
f 5/8/4 6/7/4 2/9/4 1/10/4
f 3/11/5 7/6/5 5/8/5 1/12/5
f 8/5/6 4/13/6 2/14/6 6/7/6
f 9/1/7 10/2/7 12/3/7 11/4/7
f 11/4/8 12/3/8 16/5/8 15/6/8
f 15/6/9 16/5/9 14/7/9 13/8/9
f 13/8/10 14/7/10 10/9/10 9/10/10
f 16/5/6 12/13/6 10/14/6 14/7/6
f 17/1/7 18/2/7 20/3/7 19/4/7
f 19/4/8 20/3/8 24/5/8 23/6/8
f 23/6/9 24/5/9 22/7/9 21/8/9
f 21/8/10 22/7/10 18/9/10 17/10/10
f 24/5/6 20/13/6 18/14/6 22/7/6
f 25/1/7 26/2/7 28/3/7 27/4/7
f 27/4/8 28/3/8 32/5/8 31/6/8
f 31/6/9 32/5/9 30/7/9 29/8/9
f 29/8/10 30/7/10 26/9/10 25/10/10
f 27/11/5 31/6/5 29/8/5 25/12/5
f 32/5/6 28/13/6 26/14/6 30/7/6
f 33/1/7 34/2/7 36/3/7 35/4/7
f 35/4/8 36/3/8 40/5/8 39/6/8
f 39/6/9 40/5/9 38/7/9 37/8/9
f 37/8/10 38/7/10 34/9/10 33/10/10
f 35/11/5 39/6/5 37/8/5 33/12/5
f 40/5/6 36/13/6 34/14/6 38/7/6
f 41/1/7 42/2/7 44/3/7 43/4/7
f 43/4/8 44/3/8 48/5/8 47/6/8
f 47/6/9 48/5/9 46/7/9 45/8/9
f 45/8/10 46/7/10 42/9/10 41/10/10
f 43/11/5 47/6/5 45/8/5 41/12/5
f 48/5/6 44/13/6 42/14/6 46/7/6
f 49/1/11 50/2/11 52/3/11 51/4/11
f 51/4/12 52/3/12 56/5/12 55/6/12
f 55/6/13 56/5/13 54/7/13 53/8/13
f 53/8/14 54/7/14 50/9/14 49/10/14
f 51/11/5 55/6/5 53/8/5 49/12/5
f 56/5/6 52/13/6 50/14/6 54/7/6
f 57/1/15 58/2/15 60/3/15 59/4/15
f 59/4/16 60/3/16 64/5/16 63/6/16
f 63/6/17 64/5/17 62/7/17 61/8/17
f 61/8/18 62/7/18 58/9/18 57/10/18
f 59/11/5 63/6/5 61/8/5 57/12/5
f 64/5/6 60/13/6 58/14/6 62/7/6
f 65/1/7 66/2/7 68/3/7 67/4/7
f 67/4/8 68/3/8 72/5/8 71/6/8
f 71/6/9 72/5/9 70/7/9 69/8/9
f 69/8/10 70/7/10 66/9/10 65/10/10
f 67/11/5 71/6/5 69/8/5 65/12/5
f 72/5/6 68/13/6 66/14/6 70/7/6
f 73/1/19 74/2/19 76/3/19 75/4/19
f 75/4/20 76/3/20 80/5/20 79/6/20
f 79/6/21 80/5/21 78/7/21 77/8/21
f 77/8/22 78/7/22 74/9/22 73/10/22
f 75/11/5 79/6/5 77/8/5 73/12/5
f 80/5/6 76/13/6 74/14/6 78/7/6
