# Blender 5.1.2
# www.blender.org
mtllib PalmTree.mtl
o PalmTree
v 0.097055 0.205186 -0.023036
v 0.061474 0.209020 0.006735
v 0.105092 0.205186 0.022540
v 0.113476 0.204491 -0.030072
v 0.104125 0.215406 -0.000786
v 0.122929 0.204491 0.023536
v 0.137511 0.203057 -0.039091
v 0.143040 0.212402 -0.007648
v 0.148598 0.203057 0.023790
v 0.165574 0.191544 -0.044039
v 0.177521 0.198256 -0.013728
v 0.176661 0.191544 0.018842
v 0.185250 0.175045 -0.042728
v 0.207569 0.172967 -0.019026
v 0.194702 0.175045 0.010880
v 0.198755 0.163463 -0.040968
v 0.233881 0.138288 -0.023665
v 0.206791 0.163463 0.004608
v 0.046071 0.224861 -0.031752
v 0.063813 0.208172 0.007918
v 0.089083 0.207788 -0.031176
v 0.044243 0.230743 -0.048536
v 0.071513 0.226248 -0.031202
v 0.094834 0.210661 -0.047858
v 0.042566 0.238454 -0.073006
v 0.075476 0.234934 -0.069665
v 0.101909 0.214899 -0.072211
v 0.042184 0.236455 -0.103672
v 0.075006 0.232477 -0.107345
v 0.101526 0.212899 -0.102877
v 0.043264 0.225630 -0.126968
v 0.070102 0.218878 -0.144243
v 0.093856 0.205547 -0.126290
v 0.044684 0.217616 -0.142886
v 0.061462 0.195890 -0.180483
v 0.087696 0.200542 -0.142310
v 0.064999 0.222917 0.047885
v 0.063947 0.207834 0.003857
v 0.029863 0.234960 0.020276
v 0.061474 0.231715 0.063044
v 0.051867 0.238542 0.032624
v 0.020147 0.245880 0.030570
v 0.055211 0.244472 0.084471
v 0.036052 0.259861 0.062050
v 0.006735 0.261087 0.046379
v 0.038732 0.252753 0.109055
v 0.015803 0.270037 0.092258
v -0.009745 0.269369 0.070964
v 0.019326 0.252897 0.125922
v -0.008879 0.269071 0.123247
v -0.022001 0.267062 0.093447
v 0.005278 0.252930 0.136979
v -0.037297 0.258714 0.154895
v -0.029858 0.264973 0.109370
v 0.028758 0.235009 0.014702
v 0.065256 0.207462 0.005978
v 0.041501 0.226870 -0.029038
v 0.015253 0.246590 0.012928
v 0.039901 0.240485 -0.007554
v 0.030242 0.237016 -0.038521
v -0.004295 0.262866 0.009185
v 0.010811 0.264118 -0.020427
v 0.013287 0.251637 -0.051162
v -0.031578 0.273032 -0.000655
v -0.022713 0.276608 -0.032518
v -0.013997 0.261802 -0.061003
v -0.054527 0.272589 -0.012240
v -0.060670 0.277956 -0.043827
v -0.039538 0.263015 -0.063688
v -0.070118 0.271848 -0.020959
v -0.102364 0.269915 -0.054478
v -0.057374 0.263709 -0.064699
v 0.102968 0.206273 0.025977
v 0.061832 0.208708 0.004322
v 0.066007 0.222564 0.048567
v 0.116182 0.208181 0.037867
v 0.087957 0.224402 0.035749
v 0.072707 0.227343 0.064438
v 0.134319 0.210989 0.055873
v 0.110346 0.230706 0.067834
v 0.083325 0.233466 0.087040
v 0.148932 0.207051 0.082622
v 0.128301 0.225868 0.100701
v 0.097938 0.229528 0.113789
v 0.153556 0.198110 0.106281
v 0.141823 0.209887 0.134350
v 0.110082 0.217272 0.132852
v 0.155925 0.192002 0.122916
v 0.151609 0.184517 0.168658
v 0.118965 0.208293 0.145505
v 0.002665 -0.003933 -0.017569
v 0.015468 -0.003933 -0.012266
v 0.020771 -0.003933 0.000537
v 0.015468 -0.003933 0.013341
v 0.002665 -0.003933 0.018644
v -0.010138 -0.003933 0.013341
v -0.015442 -0.003933 0.000537
v -0.010138 -0.003933 -0.012266
v 0.002665 0.056067 -0.025642
v 0.002665 0.052537 -0.029463
v 0.021176 0.056067 -0.017974
v 0.023878 0.052537 -0.020676
v 0.028844 0.056067 0.000537
v 0.032665 0.052537 0.000537
v 0.021176 0.056067 0.019049
v 0.023878 0.052537 0.021751
v 0.002665 0.056067 0.026717
v 0.002665 0.052537 0.030537
v -0.015847 0.056067 0.019049
v -0.018549 0.052537 0.021751
v -0.023515 0.056067 0.000537
v -0.027335 0.052537 0.000537
v -0.015847 0.056067 -0.017974
v -0.018549 0.052537 -0.020676
v 0.000875 0.050459 -0.017569
v 0.013368 0.047655 -0.012266
v 0.018542 0.046494 0.000537
v 0.013368 0.047655 0.013341
v 0.000875 0.050459 0.018644
v -0.011617 0.053262 0.013341
v -0.016792 0.054423 0.000537
v -0.011617 0.053262 -0.012266
v 0.014013 0.109003 -0.025642
v 0.013240 0.105559 -0.029463
v 0.032076 0.104949 -0.017974
v 0.033939 0.100914 -0.020676
v 0.039557 0.103270 0.000537
v 0.042512 0.098990 0.000537
v 0.032076 0.104949 0.019049
v 0.033939 0.100914 0.021751
v 0.014013 0.109003 0.026717
v 0.013240 0.105559 0.030537
v -0.004050 0.113056 0.019049
v -0.007458 0.110204 0.021751
v -0.011531 0.114735 0.000537
v -0.016032 0.112128 0.000537
v -0.004050 0.113056 -0.017974
v -0.007458 0.110204 -0.020676
v 0.014404 0.104015 -0.017569
v 0.026523 0.099886 -0.012266
v 0.031543 0.098176 0.000537
v 0.026523 0.099886 0.013341
v 0.014404 0.104015 0.018644
v 0.002285 0.108144 0.013341
v -0.002735 0.109854 0.000537
v 0.002285 0.108144 -0.012266
v 0.033753 0.160809 -0.025642
v 0.032615 0.157468 -0.029463
v 0.051276 0.154840 -0.017974
v 0.052695 0.150627 -0.020676
v 0.058534 0.152367 0.000537
v 0.061012 0.147794 0.000537
v 0.051276 0.154840 0.019049
v 0.052695 0.150627 0.021751
v 0.033753 0.160809 0.026717
v 0.032615 0.157468 0.030537
v 0.016230 0.166779 0.019049
v 0.012535 0.164309 0.021751
v 0.008972 0.169252 0.000537
v 0.004218 0.167143 0.000537
v 0.016230 0.166779 -0.017974
v 0.012535 0.164309 -0.020676
v 0.033811 0.157874 -0.017569
v 0.045232 0.152089 -0.012266
v 0.049963 0.149692 0.000537
v 0.045232 0.152089 0.013341
v 0.033811 0.157874 0.018644
v 0.022390 0.163660 0.013341
v 0.017659 0.166056 0.000537
v 0.022390 0.163660 -0.012266
v 0.060924 0.211399 -0.025642
v 0.059329 0.208250 -0.029463
v 0.077438 0.203034 -0.017974
v 0.078253 0.198664 -0.020676
v 0.084278 0.199569 0.000537
v 0.086091 0.194694 0.000537
v 0.077438 0.203034 0.019049
v 0.078253 0.198664 0.021751
v 0.060924 0.211399 0.026717
v 0.059329 0.208250 0.030537
v 0.044410 0.219764 0.019049
v 0.040405 0.217836 0.021751
v 0.037570 0.223229 0.000537
v 0.032567 0.221807 0.000537
v 0.044410 0.219764 -0.017974
v 0.040405 0.217836 -0.020676
vn -0.1777 0.9145 -0.3636
vn -0.0426 0.9145 0.4024
vn -0.0132 0.9483 -0.3172
vn 0.0961 0.9483 0.3026
vn 0.3106 0.8949 -0.3206
vn 0.4015 0.8949 0.1950
vn 0.5642 0.7114 -0.4190
vn 0.6735 0.7114 0.2007
vn 0.6373 0.5801 -0.5073
vn 0.7724 0.5801 0.2587
vn -0.0585 0.9198 0.3880
vn 0.6643 0.6329 0.3977
vn 0.0417 0.9665 0.2533
vn 0.6265 0.7343 0.2612
vn 0.1128 0.9914 -0.0660
vn 0.5993 0.7983 -0.0595
vn 0.0338 0.9253 -0.3776
vn 0.6187 0.6932 -0.3698
vn -0.0696 0.8617 -0.5026
vn 0.6532 0.5748 -0.4929
vn 0.8319 0.5258 -0.1774
vn 0.2414 0.7282 -0.6414
vn 0.7386 0.6628 -0.1234
vn 0.2608 0.8265 -0.4988
vn 0.5548 0.8267 0.0934
vn 0.1573 0.9630 -0.2189
vn 0.3995 0.8332 0.3824
vn -0.0782 0.9969 0.0070
vn 0.3533 0.7663 0.5366
vn -0.2372 0.9687 0.0726
vn 0.5864 0.6681 0.4580
vn 0.8006 0.5313 -0.2771
vn 0.5242 0.7806 0.3404
vn 0.6975 0.6699 -0.2544
vn 0.2840 0.9409 0.1846
vn 0.4281 0.8488 -0.3102
vn -0.0371 0.9897 0.1379
vn 0.1361 0.8791 -0.4568
vn -0.2059 0.9633 0.1722
vn 0.0082 0.8265 -0.5629
vn 0.3957 0.6676 -0.6307
vn -0.2254 0.9414 -0.2510
vn 0.4311 0.7596 -0.4870
vn -0.0714 0.9811 -0.1798
vn 0.5651 0.8027 -0.1906
vn 0.1470 0.9870 0.0650
vn 0.7318 0.6786 0.0634
vn 0.2292 0.9001 0.3705
vn 0.8201 0.5532 0.1462
vn 0.1989 0.8270 0.5258
vn -0.0000 -1.0000 -0.0000
vn 0.2706 0.7071 -0.6533
vn 0.6533 0.7071 -0.2706
vn 0.6533 0.7071 0.2706
vn 0.2706 0.7071 0.6533
vn -0.2706 0.7071 0.6533
vn -0.6533 0.7071 0.2706
vn -0.6533 0.7071 -0.2706
vn -0.2706 0.7071 -0.6533
vn -0.0000 1.0000 -0.0000
vn 0.3756 -0.1910 -0.9069
vn -0.3756 -0.1910 -0.9069
vn 0.9069 -0.1910 -0.3756
vn 0.9069 -0.1910 0.3756
vn 0.3756 -0.1910 0.9069
vn -0.3756 -0.1910 0.9069
vn -0.9069 -0.1910 0.3756
vn -0.9069 -0.1910 -0.3756
vn -0.2190 -0.9757 -0.0000
vn 0.4189 0.6307 -0.6533
vn 0.7923 0.5469 -0.2706
vn 0.7923 0.5469 0.2706
vn 0.4189 0.6307 0.6533
vn -0.1092 0.7492 0.6533
vn -0.4826 0.8330 0.2706
vn -0.4826 0.8330 -0.2706
vn -0.1092 0.7492 -0.6533
vn 0.2190 0.9757 -0.0000
vn 0.3247 -0.2686 -0.9069
vn -0.4083 -0.1041 -0.9069
vn 0.8430 -0.3849 -0.3756
vn 0.8430 -0.3849 0.3756
vn 0.3247 -0.2686 0.9069
vn -0.4083 -0.1041 0.9069
vn -0.9267 0.0122 0.3756
vn -0.9267 0.0122 -0.3756
vn -0.3225 -0.9466 -0.0000
vn 0.4842 0.5821 -0.6533
vn 0.8464 0.4587 -0.2706
vn 0.8464 0.4587 0.2706
vn 0.4842 0.5821 0.6533
vn -0.0281 0.7566 0.6533
vn -0.3903 0.8800 0.2706
vn -0.3903 0.8800 -0.2706
vn -0.0281 0.7566 -0.6533
vn 0.3225 0.9466 -0.0000
vn 0.2940 -0.3019 -0.9069
vn -0.4172 -0.0597 -0.9069
vn 0.7968 -0.4733 -0.3756
vn 0.7968 -0.4733 0.3756
vn 0.2940 -0.3019 0.9069
vn -0.4172 -0.0597 0.9069
vn -0.9200 0.1117 0.3756
vn -0.9200 0.1117 -0.3756
vn -0.4519 -0.8921 -0.0000
vn 0.5609 0.5085 -0.6533
vn 0.9023 0.3356 -0.2706
vn 0.9023 0.3356 0.2706
vn 0.5609 0.5085 0.6533
vn 0.0781 0.7531 0.6533
vn -0.2632 0.9260 0.2706
vn -0.2632 0.9260 -0.2706
vn 0.0781 0.7531 -0.6533
vn 0.4519 0.8921 -0.0000
vn 0.2488 -0.3401 -0.9069
vn -0.4214 -0.0006 -0.9069
vn 0.7227 -0.5802 -0.3756
vn 0.7227 -0.5802 0.3756
vn 0.2488 -0.3401 0.9069
vn -0.4214 -0.0006 0.9069
vn -0.8953 0.2394 0.3756
vn -0.8953 0.2394 -0.3756
vt 0.822823 0.122515
vt 0.898430 0.000231
vt 0.899047 0.132422
vt 0.810503 0.177313
vt 0.975180 0.121794
vt 0.988028 0.176463
vt 0.899415 0.248767
vt 0.800231 0.257333
vt 0.999769 0.256206
vt 0.900585 0.360292
vt 0.800231 0.352853
vt 0.999769 0.351727
vt 0.900953 0.476637
vt 0.811972 0.432596
vt 0.989497 0.431746
vt 0.901570 0.608828
vt 0.824820 0.487265
vt 0.977177 0.486544
vt 0.177177 0.486545
vt 0.101570 0.608828
vt 0.100953 0.476637
vt 0.189497 0.431746
vt 0.024820 0.487265
vt 0.011972 0.432597
vt 0.100585 0.360292
vt 0.199769 0.351727
vt 0.000231 0.352853
vt 0.099415 0.248767
vt 0.199769 0.256206
vt 0.000231 0.257333
vt 0.099047 0.132422
vt 0.188028 0.176463
vt 0.010503 0.177313
vt 0.098430 0.000231
vt 0.175180 0.121794
vt 0.022823 0.122515
vt 0.577177 0.486544
vt 0.501570 0.608828
vt 0.500953 0.476637
vt 0.589497 0.431746
vt 0.424820 0.487265
vt 0.411972 0.432596
vt 0.500585 0.360292
vt 0.599769 0.351727
vt 0.400232 0.352853
vt 0.499415 0.248767
vt 0.599769 0.256206
vt 0.400232 0.257333
vt 0.499047 0.132422
vt 0.588028 0.176463
vt 0.410503 0.177313
vt 0.498430 0.000231
vt 0.575180 0.121794
vt 0.422823 0.122515
vt 0.222823 0.122515
vt 0.298430 0.000231
vt 0.299047 0.132422
vt 0.210503 0.177313
vt 0.375180 0.121794
vt 0.388028 0.176463
vt 0.299415 0.248767
vt 0.200231 0.257333
vt 0.399769 0.256206
vt 0.300585 0.360292
vt 0.200231 0.352853
vt 0.399769 0.351727
vt 0.300953 0.476637
vt 0.211972 0.432596
vt 0.389497 0.431746
vt 0.301570 0.608828
vt 0.224820 0.487265
vt 0.377177 0.486544
vt 0.777177 0.486545
vt 0.701570 0.608828
vt 0.700953 0.476637
vt 0.789497 0.431746
vt 0.624820 0.487265
vt 0.611972 0.432596
vt 0.700585 0.360292
vt 0.799769 0.351727
vt 0.600232 0.352853
vt 0.699415 0.248767
vt 0.799769 0.256206
vt 0.600232 0.257333
vt 0.699047 0.132422
vt 0.788028 0.176463
vt 0.610503 0.177313
vt 0.698430 0.000231
vt 0.775180 0.121794
vt 0.622823 0.122515
vt 0.628087 0.911715
vt 0.628087 0.883642
vt 0.608236 0.863791
vt 0.580163 0.863791
vt 0.560312 0.883642
vt 0.560312 0.911715
vt 0.580163 0.931566
vt 0.608236 0.931566
vt 0.544646 0.783919
vt 0.524795 0.764068
vt 0.529111 0.762280
vt 0.546434 0.779603
vt 0.572719 0.783919
vt 0.570932 0.779603
vt 0.592570 0.764068
vt 0.588255 0.762280
vt 0.592570 0.735995
vt 0.588255 0.737782
vt 0.572719 0.716144
vt 0.570932 0.720459
vt 0.544646 0.716144
vt 0.546434 0.720459
vt 0.524795 0.735995
vt 0.529111 0.737782
vt 0.061745 0.713683
vt 0.133666 0.713683
vt 0.133666 0.732787
vt 0.061745 0.732787
vt 0.061746 0.847411
vt 0.133666 0.847411
vt 0.133666 0.866515
vt 0.061746 0.866515
vt 0.133666 0.751891
vt 0.061745 0.751891
vt 0.133666 0.770995
vt 0.061745 0.770995
vt 0.133666 0.790099
vt 0.061745 0.790099
vt 0.133666 0.809203
vt 0.061746 0.809203
vt 0.133666 0.828307
vt 0.061746 0.828307
vt 0.696640 0.911715
vt 0.696640 0.883642
vt 0.676789 0.863791
vt 0.648716 0.863791
vt 0.628865 0.883642
vt 0.628865 0.911715
vt 0.648716 0.931566
vt 0.676789 0.931566
vt 0.613199 0.783919
vt 0.593348 0.764068
vt 0.597664 0.762280
vt 0.614987 0.779603
vt 0.641273 0.783919
vt 0.639485 0.779603
vt 0.661123 0.764068
vt 0.656808 0.762280
vt 0.661123 0.735995
vt 0.656808 0.737782
vt 0.641273 0.716144
vt 0.639485 0.720459
vt 0.613199 0.716144
vt 0.614987 0.720459
vt 0.593348 0.735995
vt 0.597664 0.737782
vt 0.134444 0.713683
vt 0.206365 0.713683
vt 0.206365 0.732787
vt 0.134444 0.732787
vt 0.134444 0.847411
vt 0.206365 0.847411
vt 0.206365 0.866515
vt 0.134444 0.866515
vt 0.206365 0.751891
vt 0.134444 0.751891
vt 0.206365 0.770995
vt 0.134444 0.770995
vt 0.206365 0.790099
vt 0.134444 0.790099
vt 0.206365 0.809203
vt 0.134444 0.809203
vt 0.206365 0.828307
vt 0.134444 0.828307
vt 0.765193 0.911715
vt 0.765193 0.883642
vt 0.745342 0.863791
vt 0.717269 0.863791
vt 0.697418 0.883642
vt 0.697418 0.911715
vt 0.717269 0.931566
vt 0.745342 0.931566
vt 0.681752 0.783919
vt 0.661901 0.764068
vt 0.666217 0.762280
vt 0.683540 0.779603
vt 0.709826 0.783919
vt 0.708038 0.779603
vt 0.729677 0.764068
vt 0.725361 0.762280
vt 0.729677 0.735995
vt 0.725361 0.737782
vt 0.709826 0.716144
vt 0.708038 0.720459
vt 0.681752 0.716144
vt 0.683540 0.720459
vt 0.661901 0.735995
vt 0.666217 0.737782
vt 0.207143 0.713683
vt 0.279064 0.713683
vt 0.279064 0.732787
vt 0.207143 0.732787
vt 0.207143 0.847411
vt 0.279064 0.847411
vt 0.279064 0.866515
vt 0.207143 0.866515
vt 0.279064 0.751891
vt 0.207143 0.751891
vt 0.279064 0.770995
vt 0.207143 0.770995
vt 0.279064 0.790099
vt 0.207143 0.790099
vt 0.279064 0.809203
vt 0.207143 0.809203
vt 0.279064 0.828307
vt 0.207143 0.828307
vt 0.833746 0.911715
vt 0.833746 0.883642
vt 0.813895 0.863791
vt 0.785822 0.863791
vt 0.765971 0.883642
vt 0.765971 0.911715
vt 0.785822 0.931566
vt 0.813895 0.931566
vt 0.750305 0.783919
vt 0.730455 0.764068
vt 0.734770 0.762280
vt 0.752093 0.779603
vt 0.778379 0.783919
vt 0.776591 0.779603
vt 0.798230 0.764068
vt 0.793914 0.762280
vt 0.798230 0.735995
vt 0.793914 0.737782
vt 0.778379 0.716144
vt 0.776591 0.720459
vt 0.750305 0.716144
vt 0.752093 0.720459
vt 0.730455 0.735995
vt 0.734770 0.737782
vt 0.279842 0.713683
vt 0.351762 0.713683
vt 0.351762 0.732787
vt 0.279842 0.732787
vt 0.279842 0.847411
vt 0.351762 0.847411
vt 0.351762 0.866515
vt 0.279842 0.866515
vt 0.351762 0.751891
vt 0.279842 0.751891
vt 0.351762 0.770995
vt 0.279842 0.770995
vt 0.351762 0.790099
vt 0.279842 0.790099
vt 0.351762 0.809203
vt 0.279842 0.809203
vt 0.351762 0.828307
vt 0.279842 0.828307
s 0
usemtl PalmTree
f 1/1/1 2/2/1 5/3/1 4/4/1
f 2/2/2 3/5/2 6/6/2 5/3/2
f 4/4/3 5/3/3 8/7/3 7/8/3
f 5/3/4 6/6/4 9/9/4 8/7/4
f 7/8/5 8/7/5 11/10/5 10/11/5
f 8/7/6 9/9/6 12/12/6 11/10/6
f 10/11/7 11/10/7 14/13/7 13/14/7
f 11/10/8 12/12/8 15/15/8 14/13/8
f 13/14/9 14/13/9 17/16/9 16/17/9
f 14/13/10 15/15/10 18/18/10 17/16/10
f 19/19/11 20/20/11 23/21/11 22/22/11
f 20/20/12 21/23/12 24/24/12 23/21/12
f 22/22/13 23/21/13 26/25/13 25/26/13
f 23/21/14 24/24/14 27/27/14 26/25/14
f 25/26/15 26/25/15 29/28/15 28/29/15
f 26/25/16 27/27/16 30/30/16 29/28/16
f 28/29/17 29/28/17 32/31/17 31/32/17
f 29/28/18 30/30/18 33/33/18 32/31/18
f 31/32/19 32/31/19 35/34/19 34/35/19
f 32/31/20 33/33/20 36/36/20 35/34/20
f 37/37/21 38/38/21 41/39/21 40/40/21
f 38/38/22 39/41/22 42/42/22 41/39/22
f 40/40/23 41/39/23 44/43/23 43/44/23
f 41/39/24 42/42/24 45/45/24 44/43/24
f 43/44/25 44/43/25 47/46/25 46/47/25
f 44/43/26 45/45/26 48/48/26 47/46/26
f 46/47/27 47/46/27 50/49/27 49/50/27
f 47/46/28 48/48/28 51/51/28 50/49/28
f 49/50/29 50/49/29 53/52/29 52/53/29
f 50/49/30 51/51/30 54/54/30 53/52/30
f 55/55/31 56/56/31 59/57/31 58/58/31
f 56/56/32 57/59/32 60/60/32 59/57/32
f 58/58/33 59/57/33 62/61/33 61/62/33
f 59/57/34 60/60/34 63/63/34 62/61/34
f 61/62/35 62/61/35 65/64/35 64/65/35
f 62/61/36 63/63/36 66/66/36 65/64/36
f 64/65/37 65/64/37 68/67/37 67/68/37
f 65/64/38 66/66/38 69/69/38 68/67/38
f 67/68/39 68/67/39 71/70/39 70/71/39
f 68/67/40 69/69/40 72/72/40 71/70/40
f 73/73/41 74/74/41 77/75/41 76/76/41
f 74/74/42 75/77/42 78/78/42 77/75/42
f 76/76/43 77/75/43 80/79/43 79/80/43
f 77/75/44 78/78/44 81/81/44 80/79/44
f 79/80/45 80/79/45 83/82/45 82/83/45
f 80/79/46 81/81/46 84/84/46 83/82/46
f 82/83/47 83/82/47 86/85/47 85/86/47
f 83/82/48 84/84/48 87/87/48 86/85/48
f 85/86/49 86/85/49 89/88/49 88/89/49
f 86/85/50 87/87/50 90/90/50 89/88/50
f 91/91/51 92/92/51 93/93/51 94/94/51 95/95/51 96/96/51 97/97/51 98/98/51
f 102/99/52 100/100/52 99/101/52 101/102/52
f 104/103/53 102/99/53 101/102/53 103/104/53
f 106/105/54 104/103/54 103/104/54 105/106/54
f 108/107/55 106/105/55 105/106/55 107/108/55
f 110/109/56 108/107/56 107/108/56 109/110/56
f 112/111/57 110/109/57 109/110/57 111/112/57
f 114/113/58 112/111/58 111/112/58 113/114/58
f 100/100/59 114/113/59 113/114/59 99/101/59
f 101/102/60 99/101/60 113/114/60 111/112/60 109/110/60 107/108/60 105/106/60 103/104/60
f 91/115/61 100/116/61 102/117/61 92/118/61
f 98/119/62 114/120/62 100/121/62 91/122/62
f 92/118/63 102/117/63 104/123/63 93/124/63
f 93/124/64 104/123/64 106/125/64 94/126/64
f 94/126/65 106/125/65 108/127/65 95/128/65
f 95/128/66 108/127/66 110/129/66 96/130/66
f 96/130/67 110/129/67 112/131/67 97/132/67
f 97/132/68 112/131/68 114/120/68 98/119/68
f 115/133/69 116/134/69 117/135/69 118/136/69 119/137/69 120/138/69 121/139/69 122/140/69
f 126/141/70 124/142/70 123/143/70 125/144/70
f 128/145/71 126/141/71 125/144/71 127/146/71
f 130/147/72 128/145/72 127/146/72 129/148/72
f 132/149/73 130/147/73 129/148/73 131/150/73
f 134/151/74 132/149/74 131/150/74 133/152/74
f 136/153/75 134/151/75 133/152/75 135/154/75
f 138/155/76 136/153/76 135/154/76 137/156/76
f 124/142/77 138/155/77 137/156/77 123/143/77
f 125/144/78 123/143/78 137/156/78 135/154/78 133/152/78 131/150/78 129/148/78 127/146/78
f 115/157/79 124/158/79 126/159/79 116/160/79
f 122/161/80 138/162/80 124/163/80 115/164/80
f 116/160/81 126/159/81 128/165/81 117/166/81
f 117/166/82 128/165/82 130/167/82 118/168/82
f 118/168/83 130/167/83 132/169/83 119/170/83
f 119/170/84 132/169/84 134/171/84 120/172/84
f 120/172/85 134/171/85 136/173/85 121/174/85
f 121/174/86 136/173/86 138/162/86 122/161/86
f 139/175/87 140/176/87 141/177/87 142/178/87 143/179/87 144/180/87 145/181/87 146/182/87
f 150/183/88 148/184/88 147/185/88 149/186/88
f 152/187/89 150/183/89 149/186/89 151/188/89
f 154/189/90 152/187/90 151/188/90 153/190/90
f 156/191/91 154/189/91 153/190/91 155/192/91
f 158/193/92 156/191/92 155/192/92 157/194/92
f 160/195/93 158/193/93 157/194/93 159/196/93
f 162/197/94 160/195/94 159/196/94 161/198/94
f 148/184/95 162/197/95 161/198/95 147/185/95
f 149/186/96 147/185/96 161/198/96 159/196/96 157/194/96 155/192/96 153/190/96 151/188/96
f 139/199/97 148/200/97 150/201/97 140/202/97
f 146/203/98 162/204/98 148/205/98 139/206/98
f 140/202/99 150/201/99 152/207/99 141/208/99
f 141/208/100 152/207/100 154/209/100 142/210/100
f 142/210/101 154/209/101 156/211/101 143/212/101
f 143/212/102 156/211/102 158/213/102 144/214/102
f 144/214/103 158/213/103 160/215/103 145/216/103
f 145/216/104 160/215/104 162/204/104 146/203/104
f 163/217/105 164/218/105 165/219/105 166/220/105 167/221/105 168/222/105 169/223/105 170/224/105
f 174/225/106 172/226/106 171/227/106 173/228/106
f 176/229/107 174/225/107 173/228/107 175/230/107
f 178/231/108 176/229/108 175/230/108 177/232/108
f 180/233/109 178/231/109 177/232/109 179/234/109
f 182/235/110 180/233/110 179/234/110 181/236/110
f 184/237/111 182/235/111 181/236/111 183/238/111
f 186/239/112 184/237/112 183/238/112 185/240/112
f 172/226/113 186/239/113 185/240/113 171/227/113
f 173/228/114 171/227/114 185/240/114 183/238/114 181/236/114 179/234/114 177/232/114 175/230/114
f 163/241/115 172/242/115 174/243/115 164/244/115
f 170/245/116 186/246/116 172/247/116 163/248/116
f 164/244/117 174/243/117 176/249/117 165/250/117
f 165/250/118 176/249/118 178/251/118 166/252/118
f 166/252/119 178/251/119 180/253/119 167/254/119
f 167/254/120 180/253/120 182/255/120 168/256/120
f 168/256/121 182/255/121 184/257/121 169/258/121
f 169/258/122 184/257/122 186/246/122 170/245/122
