# Blender 5.1.2
# www.blender.org
mtllib Rock2.mtl
o Rock.003
v 0.113609 0.004150 0.058047
v 0.002163 -0.010135 0.123472
v -0.103866 -0.015806 0.000000
v 0.002163 -0.010135 -0.112797
v 0.118779 0.005633 -0.062253
v 0.030645 0.091080 0.085064
v -0.065480 0.063516 0.058379
v -0.097259 0.065522 -0.052572
v 0.030645 0.091080 -0.085064
v 0.070405 0.079314 0.000000
v -0.000084 0.097973 0.000000
vn 0.8515 0.5226 0.0430
vn 0.4787 0.1905 0.8570
vn -0.7510 -0.1151 0.6502
vn -0.6694 -0.3642 -0.6475
vn 0.3770 0.1446 -0.9149
vn 0.7377 0.6237 0.2585
vn -0.3522 0.4171 0.8379
vn -0.9295 0.2505 0.2708
vn -0.2937 0.3286 -0.8976
vn 0.7071 0.6657 -0.2384
vn 0.2559 0.9666 -0.0141
vn -0.3191 0.9284 0.1905
vn -0.3739 0.9192 0.1237
vn -0.2327 0.9590 -0.1618
vn 0.2559 0.9666 0.0141
vt 0.272728 0.157461
vt 0.454546 0.157461
vt 0.363637 0.314921
vt 0.090910 0.157461
vt 0.181819 0.314921
vt 0.818182 0.157461
vt 1.000000 0.157461
vt 0.909091 0.314921
vt 0.636364 0.157461
vt 0.727273 0.314921
vt 0.545455 0.314921
vt 0.000000 0.314921
vt 0.272728 0.472382
vt 0.090910 0.472382
vt 0.818182 0.472382
vt 0.636364 0.472382
vt 0.454546 0.472382
s 0
f 1/1/1 5/2/1 10/3/1
f 2/4/2 1/1/2 6/5/2
f 3/6/3 2/7/3 7/8/3
f 4/9/4 3/6/4 8/10/4
f 5/2/5 4/9/5 9/11/5
f 1/1/6 10/3/6 6/5/6
f 2/4/7 6/5/7 7/12/7
f 3/6/8 7/8/8 8/10/8
f 4/9/9 8/10/9 9/11/9
f 5/2/10 9/11/10 10/3/10
f 6/5/11 10/3/11 11/13/11
f 7/12/12 6/5/12 11/14/12
f 8/10/13 7/8/13 11/15/13
f 9/11/14 8/10/14 11/16/14
f 10/3/15 9/11/15 11/17/15
