# Blender 5.1.2
# www.blender.org
mtllib Rock1.mtl
o Rock.002
v 0.122045 -0.026699 0.073539
v -0.017033 -0.001397 0.138964
v -0.124563 0.007438 -0.000000
v -0.007326 0.006761 -0.136694
v 0.131435 -0.012030 -0.073640
v 0.034686 0.052173 0.074982
v -0.060001 0.070369 0.058379
v -0.098858 0.110366 -0.052572
v 0.034887 0.052902 -0.071918
v 0.082174 0.074938 -0.000000
v 0.017920 0.107142 -0.000000
vn 0.8996 0.4251 0.0998
vn 0.4436 0.4775 0.7584
vn -0.7642 0.2223 0.6055
vn -0.7518 -0.1412 -0.6441
vn 0.3956 0.6064 -0.6898
vn 0.5663 0.6173 0.5461
vn 0.0300 0.7543 0.6558
vn -0.7988 0.4196 0.4310
vn 0.2159 0.7233 -0.6559
vn 0.4683 0.7103 -0.5255
vn 0.3917 0.7816 0.4854
vn 0.0537 0.8110 0.5825
vn -0.1460 0.9132 0.3804
vn 0.2651 0.7989 -0.5399
vn 0.3895 0.7772 -0.4942
vt 0.272728 0.157461
vt 0.454546 0.157461
vt 0.363637 0.314921
vt 0.090910 0.157461
vt 0.181819 0.314921
vt 0.818182 0.157461
vt 1.000000 0.157461
vt 0.909091 0.314921
vt 0.636364 0.157461
vt 0.727273 0.314921
vt 0.545455 0.314921
vt 0.000000 0.314921
vt 0.272728 0.472382
vt 0.090910 0.472382
vt 0.818182 0.472382
vt 0.636364 0.472382
vt 0.454546 0.472382
s 0
f 1/1/1 5/2/1 10/3/1
f 2/4/2 1/1/2 6/5/2
f 3/6/3 2/7/3 7/8/3
f 4/9/4 3/6/4 8/10/4
f 5/2/5 4/9/5 9/11/5
f 1/1/6 10/3/6 6/5/6
f 2/4/7 6/5/7 7/12/7
f 3/6/8 7/8/8 8/10/8
f 4/9/9 8/10/9 9/11/9
f 5/2/10 9/11/10 10/3/10
f 6/5/11 10/3/11 11/13/11
f 7/12/12 6/5/12 11/14/12
f 8/10/13 7/8/13 11/15/13
f 9/11/14 8/10/14 11/16/14
f 10/3/15 9/11/15 11/17/15
