# Blender 5.1.2
# www.blender.org
mtllib Shrub.mtl
o Shrub
v 0.020581 0.013744 -0.019119
v -0.000745 0.007173 -0.000555
v 0.025185 0.015724 0.009301
v 0.030159 0.017392 -0.023506
v 0.022113 0.021340 -0.005244
v 0.035573 0.019721 0.009922
v 0.044280 0.022492 -0.029130
v 0.045144 0.029207 -0.009523
v 0.050631 0.025224 0.010081
v 0.063191 0.022811 -0.032215
v 0.068381 0.029600 -0.013314
v 0.069542 0.025543 0.006995
v 0.078527 0.018209 -0.031398
v 0.091824 0.022518 -0.016618
v 0.083942 0.020538 0.002030
v 0.089117 0.014902 -0.030300
v 0.115441 0.009136 -0.019511
v 0.093720 0.016882 -0.001881
v -0.013470 0.012452 -0.024554
v 0.000804 0.007264 0.000183
v 0.015374 0.013270 -0.024194
v -0.015967 0.015371 -0.035019
v 0.000761 0.019515 -0.024211
v 0.017961 0.016333 -0.034597
v -0.018827 0.019375 -0.050278
v 0.000891 0.025467 -0.048194
v 0.020969 0.020503 -0.049782
v -0.018554 0.018136 -0.069400
v 0.001227 0.023944 -0.071690
v 0.021242 0.019264 -0.068904
v -0.015268 0.012201 -0.083926
v 0.001769 0.014946 -0.094699
v 0.018660 0.013163 -0.083504
v -0.012480 0.007960 -0.093852
v 0.002484 -0.000351 -0.117296
v 0.016364 0.008778 -0.093493
v -0.002149 0.016002 0.025105
v 0.000964 0.007103 -0.002349
v -0.025243 0.014244 0.007889
v -0.006336 0.020173 0.034558
v -0.013521 0.021717 0.015589
v -0.033500 0.018105 0.014308
v -0.013067 0.025937 0.047918
v -0.027833 0.030032 0.033938
v -0.044929 0.023511 0.024166
v -0.024547 0.026621 0.063248
v -0.041939 0.030872 0.052774
v -0.056409 0.024195 0.039496
v -0.035698 0.021922 0.073765
v -0.055840 0.024237 0.072098
v -0.062862 0.019853 0.053516
v -0.043754 0.018479 0.080660
v -0.069566 0.011303 0.091832
v -0.066847 0.016721 0.063445
v -0.025888 0.013999 0.004413
v 0.001806 0.007213 -0.001027
v -0.016583 0.012477 -0.022861
v -0.036477 0.017305 0.003307
v -0.020854 0.019882 -0.009464
v -0.025533 0.015515 -0.028774
v -0.051685 0.021813 0.000973
v -0.043341 0.026251 -0.017491
v -0.038847 0.019712 -0.036657
v -0.069818 0.020913 -0.005163
v -0.065621 0.025146 -0.025031
v -0.056980 0.018813 -0.042793
v -0.082855 0.015005 -0.012387
v -0.087696 0.016566 -0.032083
v -0.071910 0.013214 -0.044468
v -0.091603 0.010740 -0.017824
v -0.109597 0.001687 -0.038724
v -0.082298 0.009217 -0.045098
v 0.023700 0.015823 0.011444
v -0.000463 0.007083 -0.002059
v -0.001485 0.016048 0.025530
v 0.030800 0.020172 0.018858
v 0.010635 0.022509 0.017537
v 0.001176 0.020437 0.035427
v 0.040497 0.026249 0.030086
v 0.021907 0.031637 0.037544
v 0.005749 0.026560 0.049520
v 0.049838 0.027594 0.046765
v 0.033384 0.033290 0.058039
v 0.015090 0.027905 0.066200
v 0.054690 0.023612 0.061518
v 0.045067 0.027467 0.079021
v 0.025066 0.023877 0.078087
v 0.057551 0.020697 0.071891
v 0.056924 0.015346 0.100414
v 0.032366 0.020922 0.085977
vn -0.5246 0.7698 -0.3636
vn -0.4005 0.8232 0.4024
vn -0.3868 0.8659 -0.3172
vn -0.2864 0.9091 0.3026
vn -0.0683 0.9448 -0.3206
vn 0.0152 0.9807 0.1950
vn 0.2372 0.8765 -0.4190
vn 0.3376 0.9196 0.2007
vn 0.3562 0.7847 -0.5073
vn 0.4803 0.8381 0.2587
vn -0.4172 0.8218 0.3880
vn 0.3602 0.8438 0.3977
vn -0.3436 0.9043 0.2533
vn 0.2854 0.9221 0.2612
vn -0.2882 0.9553 -0.0660
vn 0.2351 0.9701 -0.0595
vn -0.3346 0.8634 -0.3776
vn 0.2944 0.8812 -0.3698
vn -0.4045 0.7641 -0.5026
vn 0.3729 0.7861 -0.4929
vn 0.5564 0.8117 -0.1774
vn -0.0660 0.7643 -0.6414
vn 0.4166 0.9007 -0.1234
vn -0.0870 0.8623 -0.4988
vn 0.1830 0.9787 0.0934
vn -0.2360 0.9468 -0.2189
vn 0.0378 0.9232 0.3824
vn -0.4658 0.8849 0.0070
vn 0.0217 0.8436 0.5366
vn -0.6007 0.7962 0.0726
vn 0.2747 0.8454 0.4580
vn 0.5255 0.8044 -0.2771
vn 0.1731 0.9242 0.3404
vn 0.3760 0.8910 -0.2544
vn -0.1109 0.9765 0.1846
vn 0.0579 0.9489 -0.3102
vn -0.4252 0.8945 0.1379
vn -0.2223 0.8613 -0.4568
vn -0.5698 0.8035 0.1722
vn -0.3190 0.7625 -0.5629
vn 0.0997 0.7696 -0.6307
vn -0.5791 0.7757 -0.2510
vn 0.0959 0.8681 -0.4870
vn -0.4533 0.8730 -0.1798
vn 0.2020 0.9607 -0.1906
vn -0.2550 0.9648 0.0650
vn 0.4041 0.9125 0.0634
vn -0.1451 0.9174 0.3705
vn 0.5348 0.8323 0.1462
vn -0.1440 0.8383 0.5258
vt 0.000000 0.000000
vt 0.500000 0.000000
vt 0.500000 0.200000
vt 0.000000 0.200000
vt 1.000000 0.000000
vt 1.000000 0.200000
vt 0.500000 0.400000
vt 0.000000 0.400000
vt 1.000000 0.400000
vt 0.500000 0.600000
vt 0.000000 0.600000
vt 1.000000 0.600000
vt 0.500000 0.800000
vt 0.000000 0.800000
vt 1.000000 0.800000
vt 0.500000 1.000000
vt 0.000000 1.000000
vt 1.000000 1.000000
s 0
f 1/1/1 2/2/1 5/3/1 4/4/1
f 2/2/2 3/5/2 6/6/2 5/3/2
f 4/4/3 5/3/3 8/7/3 7/8/3
f 5/3/4 6/6/4 9/9/4 8/7/4
f 7/8/5 8/7/5 11/10/5 10/11/5
f 8/7/6 9/9/6 12/12/6 11/10/6
f 10/11/7 11/10/7 14/13/7 13/14/7
f 11/10/8 12/12/8 15/15/8 14/13/8
f 13/14/9 14/13/9 17/16/9 16/17/9
f 14/13/10 15/15/10 18/18/10 17/16/10
f 19/1/11 20/2/11 23/3/11 22/4/11
f 20/2/12 21/5/12 24/6/12 23/3/12
f 22/4/13 23/3/13 26/7/13 25/8/13
f 23/3/14 24/6/14 27/9/14 26/7/14
f 25/8/15 26/7/15 29/10/15 28/11/15
f 26/7/16 27/9/16 30/12/16 29/10/16
f 28/11/17 29/10/17 32/13/17 31/14/17
f 29/10/18 30/12/18 33/15/18 32/13/18
f 31/14/19 32/13/19 35/16/19 34/17/19
f 32/13/20 33/15/20 36/18/20 35/16/20
f 37/1/21 38/2/21 41/3/21 40/4/21
f 38/2/22 39/5/22 42/6/22 41/3/22
f 40/4/23 41/3/23 44/7/23 43/8/23
f 41/3/24 42/6/24 45/9/24 44/7/24
f 43/8/25 44/7/25 47/10/25 46/11/25
f 44/7/26 45/9/26 48/12/26 47/10/26
f 46/11/27 47/10/27 50/13/27 49/14/27
f 47/10/28 48/12/28 51/15/28 50/13/28
f 49/14/29 50/13/29 53/16/29 52/17/29
f 50/13/30 51/15/30 54/18/30 53/16/30
f 55/1/31 56/2/31 59/3/31 58/4/31
f 56/2/32 57/5/32 60/6/32 59/3/32
f 58/4/33 59/3/33 62/7/33 61/8/33
f 59/3/34 60/6/34 63/9/34 62/7/34
f 61/8/35 62/7/35 65/10/35 64/11/35
f 62/7/36 63/9/36 66/12/36 65/10/36
f 64/11/37 65/10/37 68/13/37 67/14/37
f 65/10/38 66/12/38 69/15/38 68/13/38
f 67/14/39 68/13/39 71/16/39 70/17/39
f 68/13/40 69/15/40 72/18/40 71/16/40
f 73/1/41 74/2/41 77/3/41 76/4/41
f 74/2/42 75/5/42 78/6/42 77/3/42
f 76/4/43 77/3/43 80/7/43 79/8/43
f 77/3/44 78/6/44 81/9/44 80/7/44
f 79/8/45 80/7/45 83/10/45 82/11/45
f 80/7/46 81/9/46 84/12/46 83/10/46
f 82/11/47 83/10/47 86/13/47 85/14/47
f 83/10/48 84/12/48 87/15/48 86/13/48
f 85/14/49 86/13/49 89/16/49 88/17/49
f 86/13/50 87/15/50 90/18/50 89/16/50
