# Blender 5.1.2
# www.blender.org
mtllib SmallRocks.mtl
o RockFormationSmall
v 0.170387 0.035082 0.058046
v 0.058941 0.003125 0.123472
v -0.047088 -0.027278 -0.000000
v 0.058941 0.003125 -0.112797
v 0.175557 0.036564 -0.062253
v 0.087423 0.104340 0.085064
v -0.008702 0.076776 0.058379
v -0.040481 0.078782 -0.052572
v 0.087423 0.104340 -0.085064
v 0.127184 0.092574 -0.000000
v 0.056694 0.111233 -0.000000
v -0.023881 0.186025 -0.086113
v -0.023881 0.107780 -0.156824
v -0.023881 0.027657 -0.186113
v -0.023881 -0.043054 -0.191552
v -0.023881 -0.053323 -0.086113
v 0.043369 0.118291 -0.107964
v 0.071225 0.027657 -0.117015
v 0.084637 -0.043054 -0.135022
v 0.017682 0.118291 -0.028907
v 0.034898 0.027657 -0.005211
v 0.039893 -0.034201 0.027317
v -0.065443 0.129180 -0.028907
v -0.082659 0.027657 -0.005211
v -0.089389 -0.043054 0.023247
v -0.091130 0.129180 -0.107964
v -0.118986 0.027657 -0.117015
v -0.133418 -0.043054 -0.120739
vn 0.7784 0.6265 0.0412
vn 0.4519 0.2025 0.8688
vn -0.7431 -0.0973 0.6621
vn -0.6520 -0.3037 -0.6947
vn 0.3559 0.1525 -0.9220
vn 0.6661 0.7150 0.2124
vn -0.3522 0.4171 0.8379
vn -0.9421 0.1942 0.2734
vn -0.2937 0.3286 -0.8976
vn 0.6289 0.7540 -0.1897
vn 0.2559 0.9666 -0.0141
vn -0.3191 0.9284 0.1905
vn -0.3739 0.9192 0.1237
vn -0.2327 0.9590 -0.1618
vn 0.2559 0.9666 0.0141
vn 0.0504 -0.9940 -0.0968
vn 0.5550 0.2674 -0.7877
vn 0.5158 0.1875 -0.8360
vn 0.3983 0.6150 -0.6805
vn 0.1343 -0.9868 0.0908
vn 0.9201 0.2529 0.2990
vn 0.9477 0.1617 0.2750
vn 0.7266 0.6452 0.2361
vn 0.0636 -0.9893 0.1310
vn 0.0130 0.2394 0.9708
vn -0.0300 0.4181 0.9079
vn 0.0883 0.6738 0.7336
vn -0.1032 -0.9942 0.0315
vn -0.9262 0.2273 0.3009
vn -0.9364 0.1916 0.2942
vn -0.6704 0.7093 0.2178
vn -0.3097 0.6375 -0.7055
vn -0.0625 -0.9933 -0.0967
vn -0.5468 0.2524 -0.7983
vn -0.5609 0.1104 -0.8205
vt 0.272728 0.157461
vt 0.454546 0.157461
vt 0.363637 0.314921
vt 0.090910 0.157461
vt 0.181819 0.314921
vt 0.818182 0.157461
vt 1.000000 0.157461
vt 0.909091 0.314921
vt 0.636364 0.157461
vt 0.727273 0.314921
vt 0.545455 0.314921
vt 0.000000 0.314921
vt 0.272728 0.472382
vt 0.090910 0.472382
vt 0.818182 0.472382
vt 0.636364 0.472382
vt 0.454546 0.472382
vt 0.500000 0.000000
vt 0.600000 0.250000
vt 0.400000 0.250000
vt 0.600000 0.500000
vt 0.600000 0.750000
vt 0.400000 0.750000
vt 0.400000 0.500000
vt 0.500000 1.000000
vt 0.300000 0.000000
vt 0.200000 0.250000
vt 0.200000 0.750000
vt 0.200000 0.500000
vt 0.300000 1.000000
vt 0.100000 0.000000
vt 0.000000 0.250000
vt 0.000000 0.750000
vt 0.000000 0.500000
vt 0.100000 1.000000
vt 0.900000 0.000000
vt 1.000000 0.250000
vt 0.800000 0.250000
vt 1.000000 0.500000
vt 1.000000 0.750000
vt 0.800000 0.750000
vt 0.800000 0.500000
vt 0.900000 1.000000
vt 0.700000 1.000000
vt 0.700000 0.000000
s 0
f 1/1/1 5/2/1 10/3/1
f 2/4/2 1/1/2 6/5/2
f 3/6/3 2/7/3 7/8/3
f 4/9/4 3/6/4 8/10/4
f 5/2/5 4/9/5 9/11/5
f 1/1/6 10/3/6 6/5/6
f 2/4/7 6/5/7 7/12/7
f 3/6/8 7/8/8 8/10/8
f 4/9/9 8/10/9 9/11/9
f 5/2/10 9/11/10 10/3/10
f 6/5/11 10/3/11 11/13/11
f 7/12/12 6/5/12 11/14/12
f 8/10/13 7/8/13 11/15/13
f 9/11/14 8/10/14 11/16/14
f 10/3/15 9/11/15 11/17/15
f 16/18/16 15/19/16 19/20/16
f 14/21/17 13/22/17 17/23/17 18/24/17
f 15/19/18 14/21/18 18/24/18 19/20/18
f 13/22/19 12/25/19 17/23/19
f 16/26/20 19/20/20 22/27/20
f 18/24/21 17/23/21 20/28/21 21/29/21
f 19/20/22 18/24/22 21/29/22 22/27/22
f 17/23/23 12/30/23 20/28/23
f 16/31/24 22/27/24 25/32/24
f 21/29/25 20/28/25 23/33/25 24/34/25
f 22/27/26 21/29/26 24/34/26 25/32/26
f 20/28/27 12/35/27 23/33/27
f 16/36/28 25/37/28 28/38/28
f 24/39/29 23/40/29 26/41/29 27/42/29
f 25/37/30 24/39/30 27/42/30 28/38/30
f 23/40/31 12/43/31 26/41/31
f 26/41/32 12/44/32 13/22/32
f 16/45/33 28/38/33 15/19/33
f 27/42/34 26/41/34 13/22/34 14/21/34
f 28/38/35 27/42/35 14/21/35 15/19/35
