# Blender 5.1.2
# www.blender.org
mtllib Terrain2.2.mtl
o Terrain2.2
v 0.000000 0.000000 -1.000000
v 0.866025 0.000000 -0.500000
v 0.866025 0.000000 0.500000
v 0.000000 0.000000 1.000000
v -0.866025 0.000000 0.500000
v -0.866025 0.000000 -0.500000
v 0.000000 0.200000 -1.000000
v 0.866025 0.200000 -0.500000
v 0.866025 0.200000 0.500000
v 0.000000 0.200000 1.000000
v -0.866025 0.200000 0.500000
v -0.866025 0.200000 -0.500000
v 0.000000 0.291649 0.000000
v 0.866025 0.000000 0.000000
v 0.866025 0.450000 0.000000
v -0.866025 0.000000 0.000000
v -0.866025 0.450000 0.000000
v -0.433013 0.200000 -0.750000
v 0.433013 0.200000 0.750000
v 0.433013 0.000000 0.750000
v -0.433013 0.200000 0.750000
v 0.433013 0.200000 -0.750000
v -0.433013 0.000000 0.750000
v 0.433013 0.000000 -0.750000
v 0.216506 0.249774 0.375000
v 0.433013 0.280949 0.000000
v -0.216506 0.280669 0.375000
v -0.433013 0.280669 0.250000
v -0.216506 0.249774 -0.375000
v 0.216506 0.274891 -0.375000
v -0.433013 0.289639 0.000000
v 0.000000 0.249774 0.500000
v 0.000000 0.249774 -0.500000
v 0.433013 0.278831 0.250000
v -0.433013 0.271993 -0.250000
v 0.433013 0.274891 -0.250000
v -0.433013 0.000000 -0.750000
vn -0.0000 -0.0000 -1.0000
vn 0.8660 -0.0000 -0.5000
vn 0.8660 -0.0000 0.5000
vn -0.0000 -0.0000 1.0000
vn -0.8660 -0.0000 0.5000
vn -0.8660 -0.0000 -0.5000
vn -0.0119 0.9587 -0.2843
vn 0.4416 0.8449 -0.3020
vn 0.4092 0.8597 0.3056
vn 0.0145 0.9571 0.2895
vn -0.4604 0.8309 0.3124
vn -0.3991 0.8680 -0.2953
vn 0.0049 1.0000 -0.0037
vn 1.0000 -0.0000 -0.0000
vn 0.0491 0.9988 0.0004
vn -1.0000 -0.0000 -0.0000
vn -0.0516 0.9987 0.0010
vn -0.1309 0.9587 -0.2526
vn 0.1316 0.9564 0.2606
vn 0.5000 -0.0000 0.8660
vn -0.1478 0.9429 0.2984
vn 0.1445 0.9477 -0.2845
vn -0.5000 -0.0000 0.8660
vn 0.5000 -0.0000 -0.8660
vn 0.0353 0.9925 0.1173
vn -0.0247 0.9997 -0.0092
vn -0.0002 0.9967 0.0809
vn 0.0006 0.9938 0.1114
vn -0.0378 0.9930 -0.1119
vn 0.0080 0.9964 -0.0846
vn 0.0480 0.9987 -0.0157
vn 0.0276 0.9938 0.1081
vn -0.0233 0.9942 -0.1053
vn -0.0299 0.9912 0.1289
vn 0.0351 0.9867 -0.1585
vn 0.0058 0.9942 -0.1076
vn -0.5000 -0.0000 -0.8660
vt 1.000000 0.500000
vt 1.000000 1.000000
vt 0.916667 1.000000
vt 0.916667 0.500000
vt 0.750000 0.500000
vt 0.750000 1.000000
vt 0.666667 1.000000
vt 0.666667 0.500000
vt 0.583333 1.000000
vt 0.583333 0.500000
vt 0.500000 0.500000
vt 0.500000 1.000000
vt 0.416667 1.000000
vt 0.416667 0.500000
vt 0.250000 0.490000
vt 0.146077 0.430000
vt 0.198038 0.340000
vt 0.250000 0.370000
vt 0.333333 0.500000
vt 0.333333 1.000000
vt 0.250000 1.000000
vt 0.250000 0.500000
vt 0.166667 0.500000
vt 0.166667 1.000000
vt 0.083333 1.000000
vt 0.083333 0.500000
vt 0.457846 0.370000
vt 0.353923 0.310000
vt 0.353923 0.250000
vt 0.457846 0.250000
vt 0.457846 0.130000
vt 0.353923 0.190000
vt 0.301962 0.160000
vt 0.353923 0.070000
vt 0.250000 0.250000
vt 0.198038 0.160000
vt 0.250000 0.130000
vt 0.301962 0.340000
vt 0.042154 0.130000
vt 0.146077 0.190000
vt 0.146077 0.250000
vt 0.042154 0.250000
vt 0.833333 0.500000
vt 0.833333 1.000000
vt 0.146077 0.310000
vt 0.042154 0.370000
vt 0.250000 0.010000
vt 0.146077 0.070000
vt 0.353923 0.430000
vt -0.000000 1.000000
vt -0.000000 0.500000
s 1
f 1/1/1 7/2/7 22/3/22 24/4/24
f 14/5/14 15/6/15 9/7/9 3/8/3
f 3/8/3 9/7/9 19/9/19 20/10/20
f 4/11/4 10/12/10 21/13/21 23/14/23
f 7/15/7 18/16/18 29/17/29 33/18/33
f 5/19/5 11/20/11 17/21/17 16/22/16
f 6/23/6 12/24/12 18/25/18 37/26/37
f 8/27/8 36/28/36 26/29/26 15/30/15
f 9/31/9 34/32/34 25/33/25 19/34/19
f 13/35/13 27/36/27 32/37/32
f 13/35/13 36/28/36 30/38/30
f 11/39/11 28/40/28 31/41/31 17/42/17
f 2/43/2 8/44/8 15/6/15 14/5/14
f 15/30/15 26/29/26 34/32/34 9/31/9
f 16/22/16 17/21/17 12/24/12 6/23/6
f 17/42/17 31/41/31 35/45/35 12/46/12
f 19/34/19 25/33/25 32/37/32 10/47/10
f 13/35/13 29/17/29 35/45/35
f 20/10/20 19/9/19 10/12/10 4/11/4
f 21/48/21 27/36/27 28/40/28 11/39/11
f 22/49/22 7/15/7 33/18/33 30/38/30
f 24/4/24 22/3/22 8/44/8 2/43/2
f 23/14/23 21/13/21 11/20/11 5/19/5
f 34/32/34 26/29/26 13/35/13
f 33/18/33 29/17/29 13/35/13
f 35/45/35 31/41/31 13/35/13
f 26/29/26 36/28/36 13/35/13
f 35/45/35 29/17/29 18/16/18 12/46/12
f 25/33/25 34/32/34 13/35/13
f 31/41/31 28/40/28 13/35/13
f 32/37/32 27/36/27 21/48/21 10/47/10
f 32/37/32 25/33/25 13/35/13
f 28/40/28 27/36/27 13/35/13
f 30/38/30 36/28/36 8/27/8 22/49/22
f 30/38/30 33/18/33 13/35/13
f 37/26/37 18/25/18 7/50/7 1/51/1
