# Blender 5.1.2
# www.blender.org
mtllib Terrain3.2.mtl
o Terrain3.2
v 0.000000 0.000000 -1.000000
v 0.866025 0.000000 -0.500000
v 0.866025 0.000000 0.500000
v 0.000000 0.000000 1.000000
v -0.866025 0.000000 0.500000
v -0.866025 0.000000 -0.500000
v 0.000000 0.200000 -1.000000
v 0.866025 0.200000 -0.500000
v 0.866025 0.200000 0.500000
v 0.000000 0.200000 1.000000
v -0.866025 0.200000 0.500000
v -0.866025 0.200000 -0.500000
v 0.000000 0.359539 0.000000
v 0.866025 0.000000 0.000000
v 0.866025 0.200000 0.000000
v -0.866025 0.000000 0.000000
v -0.866025 0.450000 0.000000
v -0.433013 0.200000 -0.750000
v 0.433013 0.450000 0.750000
v 0.433013 0.000000 0.750000
v -0.433013 0.200000 0.750000
v 0.433013 0.450000 -0.750000
v -0.433013 0.000000 0.750000
v 0.433013 0.000000 -0.750000
v 0.216506 0.322075 0.375000
v 0.433013 0.322075 0.000000
v -0.216506 0.322075 0.375000
v -0.433013 0.322075 0.250000
v -0.216506 0.336413 -0.375000
v 0.216506 0.322075 -0.375000
v -0.433013 0.322075 0.000000
v 0.000000 0.346353 0.500000
v 0.000000 0.370816 -0.500000
v 0.433013 0.322075 0.250000
v -0.433013 0.347636 -0.250000
v 0.433013 0.348638 -0.250000
v -0.433013 0.000000 -0.750000
vn -0.0000 -0.0000 -1.0000
vn 0.8660 -0.0000 -0.5000
vn 0.8660 -0.0000 0.5000
vn -0.0000 -0.0000 1.0000
vn -0.8660 -0.0000 0.5000
vn -0.8660 -0.0000 -0.5000
vn -0.0525 0.6680 -0.7423
vn 0.6401 0.7026 -0.3108
vn 0.6053 0.7344 0.3070
vn -0.0498 0.7053 0.7071
vn -0.5685 0.7344 0.3707
vn -0.6027 0.6928 -0.3959
vn 0.0021 0.9998 0.0193
vn 1.0000 -0.0000 -0.0000
vn 0.5264 0.8501 0.0141
vn -1.0000 -0.0000 -0.0000
vn -0.0948 0.9955 -0.0019
vn -0.3004 0.8138 -0.4976
vn 0.0456 0.9955 0.0826
vn 0.5000 -0.0000 0.8660
vn -0.2735 0.8513 0.4477
vn 0.0561 0.9936 -0.0979
vn -0.5000 -0.0000 0.8660
vn 0.5000 -0.0000 -0.8660
vn 0.0634 0.9980 0.0080
vn 0.1711 0.9848 0.0297
vn -0.1088 0.9852 0.1325
vn -0.0514 0.9902 0.1300
vn -0.1027 0.9851 -0.1377
vn 0.0425 0.9987 -0.0285
vn -0.0387 0.9979 0.0528
vn -0.0629 0.9959 0.0651
vn -0.0584 0.9975 -0.0407
vn 0.1383 0.9902 -0.0205
vn -0.0394 0.9965 -0.0737
vn 0.0848 0.9961 0.0235
vn -0.5000 -0.0000 -0.8660
vt 1.000000 0.500000
vt 1.000000 1.000000
vt 0.916667 1.000000
vt 0.916667 0.500000
vt 0.750000 0.500000
vt 0.750000 1.000000
vt 0.666667 1.000000
vt 0.666667 0.500000
vt 0.583333 1.000000
vt 0.583333 0.500000
vt 0.500000 0.500000
vt 0.500000 1.000000
vt 0.416667 1.000000
vt 0.416667 0.500000
vt 0.250000 0.490000
vt 0.146077 0.430000
vt 0.198038 0.340000
vt 0.250000 0.370000
vt 0.333333 0.500000
vt 0.333333 1.000000
vt 0.250000 1.000000
vt 0.250000 0.500000
vt 0.166667 0.500000
vt 0.166667 1.000000
vt 0.083333 1.000000
vt 0.083333 0.500000
vt 0.457846 0.370000
vt 0.353923 0.310000
vt 0.353923 0.250000
vt 0.457846 0.250000
vt 0.457846 0.130000
vt 0.353923 0.190000
vt 0.301962 0.160000
vt 0.353923 0.070000
vt 0.250000 0.250000
vt 0.198038 0.160000
vt 0.250000 0.130000
vt 0.301962 0.340000
vt 0.042154 0.130000
vt 0.146077 0.190000
vt 0.146077 0.250000
vt 0.042154 0.250000
vt 0.833333 0.500000
vt 0.833333 1.000000
vt 0.146077 0.310000
vt 0.042154 0.370000
vt 0.250000 0.010000
vt 0.146077 0.070000
vt 0.353923 0.430000
vt -0.000000 1.000000
vt -0.000000 0.500000
s 1
f 1/1/1 7/2/7 22/3/22 24/4/24
f 14/5/14 15/6/15 9/7/9 3/8/3
f 3/8/3 9/7/9 19/9/19 20/10/20
f 4/11/4 10/12/10 21/13/21 23/14/23
f 7/15/7 18/16/18 29/17/29 33/18/33
f 5/19/5 11/20/11 17/21/17 16/22/16
f 6/23/6 12/24/12 18/25/18 37/26/37
f 8/27/8 36/28/36 26/29/26 15/30/15
f 9/31/9 34/32/34 25/33/25 19/34/19
f 13/35/13 27/36/27 32/37/32
f 13/35/13 36/28/36 30/38/30
f 11/39/11 28/40/28 31/41/31 17/42/17
f 2/43/2 8/44/8 15/6/15 14/5/14
f 15/30/15 26/29/26 34/32/34 9/31/9
f 16/22/16 17/21/17 12/24/12 6/23/6
f 17/42/17 31/41/31 35/45/35 12/46/12
f 19/34/19 25/33/25 32/37/32 10/47/10
f 13/35/13 29/17/29 35/45/35
f 20/10/20 19/9/19 10/12/10 4/11/4
f 21/48/21 27/36/27 28/40/28 11/39/11
f 22/49/22 7/15/7 33/18/33 30/38/30
f 24/4/24 22/3/22 8/44/8 2/43/2
f 23/14/23 21/13/21 11/20/11 5/19/5
f 34/32/34 26/29/26 13/35/13
f 33/18/33 29/17/29 13/35/13
f 35/45/35 31/41/31 13/35/13
f 26/29/26 36/28/36 13/35/13
f 35/45/35 29/17/29 18/16/18 12/46/12
f 25/33/25 34/32/34 13/35/13
f 31/41/31 28/40/28 13/35/13
f 32/37/32 27/36/27 21/48/21 10/47/10
f 32/37/32 25/33/25 13/35/13
f 28/40/28 27/36/27 13/35/13
f 30/38/30 36/28/36 8/27/8 22/49/22
f 30/38/30 33/18/33 13/35/13
f 37/26/37 18/25/18 7/50/7 1/51/1
