# Blender 5.1.2
# www.blender.org
mtllib Terrain4.2.mtl
o Terrain4.2
v 0.000000 0.000000 -1.000000
v 0.866025 0.000000 -0.500000
v 0.866025 0.000000 0.500000
v 0.000000 0.000000 1.000000
v -0.866025 0.000000 0.500000
v -0.866025 0.000000 -0.500000
v 0.000000 0.200000 -1.000000
v 0.866025 0.700000 -0.500000
v 0.866025 0.200000 0.500000
v 0.000000 0.200000 1.000000
v -0.866025 0.700000 0.500000
v -0.866025 0.200000 -0.500000
v 0.000000 0.432825 0.000000
v 0.866025 0.000000 0.000000
v 0.866025 0.450000 0.000000
v -0.866025 0.000000 0.000000
v -0.866025 0.450000 0.000000
v -0.433013 0.200000 -0.750000
v 0.433013 0.200000 0.750000
v 0.433013 0.000000 0.750000
v -0.433013 0.450000 0.750000
v 0.433013 0.450000 -0.750000
v -0.433013 0.000000 0.750000
v 0.433013 0.000000 -0.750000
v 0.216506 0.369127 0.375000
v 0.433013 0.466808 0.000000
v -0.216506 0.449733 0.375000
v -0.433013 0.449733 0.250000
v -0.216506 0.351434 -0.375000
v 0.216506 0.409318 -0.375000
v -0.433013 0.388858 0.000000
v 0.000000 0.369127 0.500000
v 0.000000 0.369127 -0.500000
v 0.433013 0.392092 0.250000
v -0.433013 0.369127 -0.250000
v 0.433013 0.449733 -0.250000
v -0.433013 0.000000 -0.750000
vn -0.0000 -0.0000 -1.0000
vn 0.8660 -0.0000 -0.5000
vn 0.8660 -0.0000 0.5000
vn -0.0000 -0.0000 1.0000
vn -0.8660 -0.0000 0.5000
vn -0.8660 -0.0000 -0.5000
vn -0.0410 0.6354 -0.7711
vn 0.0101 0.9999 -0.0074
vn 0.6804 0.5865 0.4394
vn 0.0297 0.6140 0.7888
vn -0.0109 0.9999 0.0049
vn -0.6437 0.6400 -0.4195
vn -0.0280 0.9995 -0.0177
vn 1.0000 -0.0000 -0.0000
vn 0.3571 0.8732 0.3316
vn -1.0000 -0.0000 -0.0000
vn -0.2566 0.8972 -0.3595
vn -0.3045 0.7932 -0.5274
vn 0.3090 0.7703 0.5578
vn 0.5000 -0.0000 0.8660
vn 0.1377 0.8868 0.4411
vn -0.1694 0.8994 -0.4030
vn -0.5000 -0.0000 0.8660
vn 0.5000 -0.0000 -0.8660
vn 0.0999 0.9693 0.2247
vn -0.0693 0.9871 0.1444
vn 0.1571 0.9869 0.0355
vn 0.1157 0.9818 -0.1506
vn -0.1397 0.9602 -0.2419
vn -0.1845 0.9735 -0.1353
vn -0.0581 0.9803 -0.1889
vn 0.1999 0.9563 0.2134
vn -0.2013 0.9631 -0.1786
vn 0.0446 0.9579 0.2837
vn -0.0600 0.9711 -0.2312
vn -0.1872 0.9822 -0.0169
vn -0.5000 -0.0000 -0.8660
vt 1.000000 0.500000
vt 1.000000 1.000000
vt 0.916667 1.000000
vt 0.916667 0.500000
vt 0.750000 0.500000
vt 0.750000 1.000000
vt 0.666667 1.000000
vt 0.666667 0.500000
vt 0.583333 1.000000
vt 0.583333 0.500000
vt 0.500000 0.500000
vt 0.500000 1.000000
vt 0.416667 1.000000
vt 0.416667 0.500000
vt 0.250000 0.490000
vt 0.146077 0.430000
vt 0.198038 0.340000
vt 0.250000 0.370000
vt 0.333333 0.500000
vt 0.333333 1.000000
vt 0.250000 1.000000
vt 0.250000 0.500000
vt 0.166667 0.500000
vt 0.166667 1.000000
vt 0.083333 1.000000
vt 0.083333 0.500000
vt 0.457846 0.370000
vt 0.353923 0.310000
vt 0.353923 0.250000
vt 0.457846 0.250000
vt 0.457846 0.130000
vt 0.353923 0.190000
vt 0.301962 0.160000
vt 0.353923 0.070000
vt 0.250000 0.250000
vt 0.198038 0.160000
vt 0.250000 0.130000
vt 0.301962 0.340000
vt 0.042154 0.130000
vt 0.146077 0.190000
vt 0.146077 0.250000
vt 0.042154 0.250000
vt 0.833333 0.500000
vt 0.833333 1.000000
vt 0.146077 0.310000
vt 0.042154 0.370000
vt 0.250000 0.010000
vt 0.146077 0.070000
vt 0.353923 0.430000
vt -0.000000 1.000000
vt -0.000000 0.500000
s 1
f 1/1/1 7/2/7 22/3/22 24/4/24
f 14/5/14 15/6/15 9/7/9 3/8/3
f 3/8/3 9/7/9 19/9/19 20/10/20
f 4/11/4 10/12/10 21/13/21 23/14/23
f 7/15/7 18/16/18 29/17/29 33/18/33
f 5/19/5 11/20/11 17/21/17 16/22/16
f 6/23/6 12/24/12 18/25/18 37/26/37
f 8/27/8 36/28/36 26/29/26 15/30/15
f 9/31/9 34/32/34 25/33/25 19/34/19
f 13/35/13 27/36/27 32/37/32
f 13/35/13 36/28/36 30/38/30
f 11/39/11 28/40/28 31/41/31 17/42/17
f 2/43/2 8/44/8 15/6/15 14/5/14
f 15/30/15 26/29/26 34/32/34 9/31/9
f 16/22/16 17/21/17 12/24/12 6/23/6
f 17/42/17 31/41/31 35/45/35 12/46/12
f 19/34/19 25/33/25 32/37/32 10/47/10
f 13/35/13 29/17/29 35/45/35
f 20/10/20 19/9/19 10/12/10 4/11/4
f 21/48/21 27/36/27 28/40/28 11/39/11
f 22/49/22 7/15/7 33/18/33 30/38/30
f 24/4/24 22/3/22 8/44/8 2/43/2
f 23/14/23 21/13/21 11/20/11 5/19/5
f 34/32/34 26/29/26 13/35/13
f 33/18/33 29/17/29 13/35/13
f 35/45/35 31/41/31 13/35/13
f 26/29/26 36/28/36 13/35/13
f 35/45/35 29/17/29 18/16/18 12/46/12
f 25/33/25 34/32/34 13/35/13
f 31/41/31 28/40/28 13/35/13
f 32/37/32 27/36/27 21/48/21 10/47/10
f 32/37/32 25/33/25 13/35/13
f 28/40/28 27/36/27 13/35/13
f 30/38/30 36/28/36 8/27/8 22/49/22
f 30/38/30 33/18/33 13/35/13
f 37/26/37 18/25/18 7/50/7 1/51/1
