# Blender 4.5.10 LTS
# www.blender.org
mtllib Terrain4.mtl
o Terrain4
v 0.000000 0.000000 -1.000000
v 0.866025 0.000000 -0.500000
v 0.866025 0.000000 0.500000
v 0.000000 0.000000 1.000000
v -0.866025 0.000000 0.500000
v -0.866025 0.000000 -0.500000
v 0.000000 0.700000 -1.000000
v 0.866025 0.700000 -0.500000
v 0.866025 0.700000 0.500000
v 0.000000 0.200000 1.000000
v -0.866025 0.017273 0.500000
v -0.866025 0.200000 -0.500000
v 0.000000 0.423073 0.000000
v 0.866025 0.000000 0.000000
v 0.866025 0.700000 0.000000
v -0.866025 0.000000 0.000000
v -0.789422 0.017273 0.000000
v -0.433013 0.450000 -0.750000
v 0.433013 0.450000 0.750000
v 0.433013 0.000000 0.750000
v -0.348719 0.017273 0.717002
v 0.433013 0.700000 -0.750000
v -0.433013 0.000000 0.750000
v 0.433013 0.000000 -0.750000
v 0.216506 0.444296 0.375000
v 0.433013 0.521561 0.000000
v -0.216506 0.153978 0.375000
v -0.433013 0.094704 0.250000
v -0.216506 0.447622 -0.375000
v 0.216506 0.562137 -0.375000
v -0.433013 0.183464 0.000000
v 0.000000 0.342449 0.500000
v 0.000000 0.514109 -0.500000
v 0.433013 0.471528 0.250000
v -0.433013 0.284479 -0.250000
v 0.433013 0.579806 -0.250000
v -0.433013 0.000000 -0.750000
vn -0.0000 -0.0000 -1.0000
vn 0.8660 -0.0000 -0.5000
vn 0.8660 -0.0000 0.5000
vn -0.0702 0.2122 0.9747
vn -0.3219 0.9286 0.1846
vn -0.8795 0.2060 -0.4289
vn -0.0899 0.9933 -0.0722
vn 0.0395 0.9992 0.0025
vn 0.0144 0.9935 0.1128
vn -0.2659 0.7079 0.6544
vn -0.2632 0.9512 0.1608
vn -0.6251 0.7742 -0.0992
vn -0.3008 0.9376 0.1745
vn 1.0000 -0.0000 -0.0000
vn 0.0201 0.9971 0.0730
vn -0.6163 0.7872 0.0204
vn -0.5011 0.8613 0.0836
vn -0.5236 0.8460 -0.1006
vn -0.1556 0.8776 0.4534
vn 0.5000 -0.0000 0.8660
vn -0.3258 0.8552 0.4032
vn -0.0266 0.9990 -0.0357
vn -0.3162 0.7913 0.5234
vn 0.5000 -0.0000 -0.8660
vn -0.2332 0.9698 0.0719
vn -0.3017 0.9412 0.1524
vn -0.4758 0.8438 0.2483
vn -0.2288 0.9616 0.1515
vn -0.2884 0.9274 0.2383
vn -0.2183 0.9443 0.2464
vn -0.4114 0.8579 0.3078
vn -0.4781 0.8582 0.1869
vn -0.2826 0.9325 0.2249
vn -0.2636 0.9605 0.0887
vn -0.4180 0.8518 0.3158
vn -0.2320 0.9586 0.1651
vn -0.5000 -0.0000 -0.8660
vt 0.992746 0.009202
vt 0.992746 0.903980
vt 0.869560 0.903980
vt 0.869560 0.009202
vt 0.500000 0.009202
vt 0.500000 0.903980
vt 0.253627 0.903980
vt 0.253627 0.009202
vt 0.130441 0.584417
vt 0.130441 0.009202
vt 0.007254 0.009202
vt 0.007254 0.264853
vt 0.146700 0.031282
vt 0.869560 0.584417
vt 0.684780 0.581378
vt 0.746373 0.666364
vt 0.253627 0.031282
vt 0.500000 0.031282
vt 0.746373 0.009202
vt 0.746373 0.264853
vt 0.746373 0.903980
vt 0.623186 0.750342
vt 0.500000 0.675890
vt 0.376813 0.611936
vt 0.315220 0.577126
vt 0.500000 0.549997
vt 0.315220 0.206025
vt 0.253627 0.446939
vt 0.684780 0.727756
vt 0.376813 0.130258
vt 0.500000 0.243716
vt 0.623186 0.372839
s 1
f 1/1/1 7/2/7 22/3/22 24/4/24
f 14/5/14 15/6/15 9/7/9 3/8/3
f 3/8/3 9/7/9 19/9/19 20/10/20
f 4/11/4 10/12/10 21/13/21 23/10/23
f 7/2/7 18/14/18 29/15/29 33/16/33
f 5/8/5 11/17/11 17/18/17 16/5/16
f 6/19/6 12/20/12 18/14/18 37/4/37
f 8/21/8 36/22/36 26/23/26 15/6/15
f 9/7/9 34/24/34 25/25/25 19/9/19
f 13/26/13 27/27/27 32/28/32
f 13/26/13 36/22/36 30/29/30
f 11/17/11 28/30/28 31/31/31 17/18/17
f 2/19/2 8/21/8 15/6/15 14/5/14
f 15/6/15 26/23/26 34/24/34 9/7/9
f 16/5/16 17/18/17 12/20/12 6/19/6
f 17/18/17 31/31/31 35/32/35 12/20/12
f 19/9/19 25/25/25 32/28/32 10/12/10
f 13/26/13 29/15/29 35/32/35
f 20/10/20 19/9/19 10/12/10 4/11/4
f 21/13/21 27/27/27 28/30/28 11/17/11
f 22/3/22 7/2/7 33/16/33 30/29/30
f 24/4/24 22/3/22 8/21/8 2/19/2
f 23/10/23 21/13/21 11/17/11 5/8/5
f 34/24/34 26/23/26 13/26/13
f 33/16/33 29/15/29 13/26/13
f 35/32/35 31/31/31 13/26/13
f 26/23/26 36/22/36 13/26/13
f 35/32/35 29/15/29 18/14/18 12/20/12
f 25/25/25 34/24/34 13/26/13
f 31/31/31 28/30/28 13/26/13
f 32/28/32 27/27/27 21/13/21 10/12/10
f 32/28/32 25/25/25 13/26/13
f 28/30/28 27/27/27 13/26/13
f 30/29/30 36/22/36 8/21/8 22/3/22
f 30/29/30 33/16/33 13/26/13
f 37/4/37 18/14/18 7/2/7 1/1/1
