# Blender 5.1.2
# www.blender.org
mtllib Terrain3.1.mtl
o Terrain3.1
v 0.000000 0.000000 -1.000000
v 0.866025 0.000000 -0.500000
v 0.866025 0.000000 0.500000
v 0.000000 0.000000 1.000000
v -0.866025 0.000000 0.500000
v -0.866025 0.000000 -0.500000
v 0.000000 0.700000 -1.000000
v 0.866025 0.200000 -0.500000
v 0.866025 0.200000 0.500000
v 0.000000 0.200000 1.000000
v -0.866025 0.200000 0.500000
v -0.866025 0.200000 -0.500000
v 0.000000 0.292164 0.000000
v 0.866025 0.000000 0.000000
v 0.866025 0.200000 0.000000
v -0.866025 0.000000 0.000000
v -0.866025 0.200000 0.000000
v -0.433013 0.450000 -0.750000
v 0.433013 0.200000 0.750000
v 0.433013 0.000000 0.750000
v -0.433013 0.450000 0.750000
v 0.433013 0.450000 -0.750000
v -0.433013 0.000000 0.750000
v 0.433013 0.000000 -0.750000
v 0.216506 0.292164 0.375000
v 0.433013 0.200000 0.000000
v -0.216506 0.292164 0.375000
v -0.433013 0.292164 0.250000
v -0.216506 0.321121 -0.375000
v 0.216506 0.321121 -0.375000
v -0.433013 0.292164 0.000000
v 0.000000 0.292164 0.500000
v 0.000000 0.321121 -0.500000
v 0.433013 0.200000 0.250000
v -0.433013 0.321121 -0.250000
v 0.433013 0.321121 -0.250000
v -0.433013 0.000000 -0.750000
vn -0.0000 -0.0000 -1.0000
vn 0.8660 -0.0000 -0.5000
vn 0.8660 -0.0000 0.5000
vn -0.0000 -0.0000 1.0000
vn -0.8660 -0.0000 0.5000
vn -0.8660 -0.0000 -0.5000
vn -0.0000 1.0000 -0.0011
vn 0.5583 0.8064 -0.1947
vn 0.1904 0.9784 0.0806
vn 0.0394 0.8051 0.5918
vn -0.5322 0.8051 0.2618
vn -0.5877 0.7610 -0.2748
vn 0.0387 0.9980 0.0500
vn 1.0000 -0.0000 -0.0000
vn 0.1925 0.9804 0.0432
vn -1.0000 -0.0000 -0.0000
vn -0.4388 0.8984 0.0159
vn -0.3365 0.9406 0.0442
vn 0.2147 0.9472 0.2380
vn 0.5000 -0.0000 0.8660
vn -0.0296 0.9982 0.0512
vn 0.3365 0.9406 0.0442
vn -0.5000 -0.0000 0.8660
vn 0.5000 -0.0000 -0.8660
vn 0.0826 0.9965 0.0160
vn 0.0924 0.9946 0.0472
vn 0.0176 0.9994 -0.0305
vn -0.0773 0.9960 -0.0440
vn -0.0078 0.9921 0.1252
vn 0.0078 0.9921 0.1252
vn -0.0867 0.9956 0.0367
vn 0.0768 0.9960 0.0449
vn -0.0000 0.9845 0.1755
vn 0.0784 0.9969 -0.0055
vn -0.0735 0.9912 0.1098
vn 0.0864 0.9829 0.1627
vn -0.5000 -0.0000 -0.8660
vt 1.000000 0.500000
vt 1.000000 1.000000
vt 0.916667 1.000000
vt 0.916667 0.500000
vt 0.750000 0.500000
vt 0.750000 1.000000
vt 0.666667 1.000000
vt 0.666667 0.500000
vt 0.583333 1.000000
vt 0.583333 0.500000
vt 0.500000 0.500000
vt 0.500000 1.000000
vt 0.416667 1.000000
vt 0.416667 0.500000
vt 0.250000 0.490000
vt 0.146077 0.430000
vt 0.198038 0.340000
vt 0.250000 0.370000
vt 0.333333 0.500000
vt 0.333333 1.000000
vt 0.250000 1.000000
vt 0.250000 0.500000
vt 0.166667 0.500000
vt 0.166667 1.000000
vt 0.083333 1.000000
vt 0.083333 0.500000
vt 0.457846 0.370000
vt 0.353923 0.310000
vt 0.353923 0.250000
vt 0.457846 0.250000
vt 0.457846 0.130000
vt 0.353923 0.190000
vt 0.301962 0.160000
vt 0.353923 0.070000
vt 0.250000 0.250000
vt 0.198038 0.160000
vt 0.250000 0.130000
vt 0.301962 0.340000
vt 0.042154 0.130000
vt 0.146077 0.190000
vt 0.146077 0.250000
vt 0.042154 0.250000
vt 0.833333 0.500000
vt 0.833333 1.000000
vt 0.146077 0.310000
vt 0.042154 0.370000
vt 0.250000 0.010000
vt 0.146077 0.070000
vt 0.353923 0.430000
vt -0.000000 1.000000
vt -0.000000 0.500000
s 1
f 1/1/1 7/2/7 22/3/22 24/4/24
f 14/5/14 15/6/15 9/7/9 3/8/3
f 3/8/3 9/7/9 19/9/19 20/10/20
f 4/11/4 10/12/10 21/13/21 23/14/23
f 7/15/7 18/16/18 29/17/29 33/18/33
f 5/19/5 11/20/11 17/21/17 16/22/16
f 6/23/6 12/24/12 18/25/18 37/26/37
f 8/27/8 36/28/36 26/29/26 15/30/15
f 9/31/9 34/32/34 25/33/25 19/34/19
f 13/35/13 27/36/27 32/37/32
f 13/35/13 36/28/36 30/38/30
f 11/39/11 28/40/28 31/41/31 17/42/17
f 2/43/2 8/44/8 15/6/15 14/5/14
f 15/30/15 26/29/26 34/32/34 9/31/9
f 16/22/16 17/21/17 12/24/12 6/23/6
f 17/42/17 31/41/31 35/45/35 12/46/12
f 19/34/19 25/33/25 32/37/32 10/47/10
f 13/35/13 29/17/29 35/45/35
f 20/10/20 19/9/19 10/12/10 4/11/4
f 21/48/21 27/36/27 28/40/28 11/39/11
f 22/49/22 7/15/7 33/18/33 30/38/30
f 24/4/24 22/3/22 8/44/8 2/43/2
f 23/14/23 21/13/21 11/20/11 5/19/5
f 34/32/34 26/29/26 13/35/13
f 33/18/33 29/17/29 13/35/13
f 35/45/35 31/41/31 13/35/13
f 26/29/26 36/28/36 13/35/13
f 35/45/35 29/17/29 18/16/18 12/46/12
f 25/33/25 34/32/34 13/35/13
f 31/41/31 28/40/28 13/35/13
f 32/37/32 27/36/27 21/48/21 10/47/10
f 32/37/32 25/33/25 13/35/13
f 28/40/28 27/36/27 13/35/13
f 30/38/30 36/28/36 8/27/8 22/49/22
f 30/38/30 33/18/33 13/35/13
f 37/26/37 18/25/18 7/50/7 1/51/1
