# Blender 5.1.2
# www.blender.org
mtllib TinyBoat.mtl
o Boat
v 0.005782 0.011112 -0.200329
v 0.008904 0.003921 -0.187789
v -0.004640 0.004876 -0.179597
v -0.013758 0.007916 -0.194474
v -0.005610 0.011260 -0.204229
v 0.004567 0.082160 -0.356804
v 0.004567 0.082160 0.298210
v 0.004567 0.037339 -0.202107
v 0.004567 0.037339 0.143513
v 0.054567 0.045927 -0.202107
v 0.054567 0.045927 0.143513
v 0.091169 0.079040 -0.202107
v 0.091169 0.079040 0.143513
v 0.104567 0.082160 -0.202107
v 0.104567 0.082160 0.143513
v 0.091169 0.032160 -0.202107
v 0.091169 0.032160 0.143513
v 0.054567 -0.004443 -0.202107
v 0.054567 -0.004443 0.143513
v 0.004567 -0.017840 -0.202107
v 0.004567 -0.017840 0.143513
v -0.045433 -0.004443 -0.202107
v -0.045433 -0.004443 0.143513
v -0.082036 0.032160 -0.202107
v -0.082036 0.032160 0.143513
v -0.095433 0.082160 -0.202107
v -0.095433 0.082160 0.143513
v -0.082036 0.079040 -0.202107
v -0.082036 0.079040 0.143513
v -0.045433 0.045927 -0.202107
v -0.045433 0.045927 0.143513
vn -0.1628 0.9477 0.2746
vn -0.1628 0.9477 -0.2746
vn -0.1693 0.9856 -0.0000
vn -0.6249 0.6908 0.3638
vn -0.6249 0.6908 -0.3638
vn -0.6709 0.7416 -0.0000
vn -0.2244 0.9636 0.1451
vn -0.2244 0.9636 -0.1451
vn -0.2268 0.9739 -0.0000
vn 0.8193 -0.2195 -0.5296
vn 0.8193 -0.2195 0.5296
vn 0.9659 -0.2588 -0.0000
vn 0.5998 -0.5998 -0.5296
vn 0.5998 -0.5998 0.5296
vn 0.7071 -0.7071 -0.0000
vn 0.2195 -0.8193 -0.5296
vn 0.2195 -0.8193 0.5296
vn 0.2588 -0.9659 -0.0000
vn -0.2195 -0.8193 -0.5296
vn -0.2195 -0.8193 0.5296
vn -0.2588 -0.9659 -0.0000
vn -0.5998 -0.5998 -0.5296
vn -0.5998 -0.5998 0.5296
vn -0.7071 -0.7071 -0.0000
vn -0.8193 -0.2195 -0.5296
vn -0.8193 -0.2195 0.5296
vn -0.9659 -0.2588 -0.0000
vn 0.2244 0.9636 0.1451
vn 0.2244 0.9636 -0.1451
vn 0.2268 0.9739 -0.0000
vn 0.6249 0.6908 0.3638
vn 0.6249 0.6908 -0.3638
vn 0.6709 0.7416 -0.0000
vn 0.1628 0.9477 0.2746
vn 0.1628 0.9477 -0.2746
vn 0.1693 0.9856 -0.0000
vn 0.0411 0.9500 0.3094
vt 0.750000 0.250000
vt 0.750000 0.490000
vt 0.870000 0.457846
vt 0.250000 0.250000
vt 0.370000 0.457846
vt 0.250000 0.490000
vt 1.000000 0.500000
vt 1.000000 1.000000
vt 0.916667 1.000000
vt 0.916667 0.500000
vt 0.957846 0.370000
vt 0.457846 0.370000
vt 0.833333 1.000000
vt 0.833333 0.500000
vt 0.990000 0.250000
vt 0.490000 0.250000
vt 0.750000 1.000000
vt 0.750000 0.500000
vt 0.957846 0.130000
vt 0.457846 0.130000
vt 0.666667 1.000000
vt 0.666667 0.500000
vt 0.870000 0.042154
vt 0.370000 0.042154
vt 0.583333 1.000000
vt 0.583333 0.500000
vt 0.750000 0.010000
vt 0.250000 0.010000
vt 0.500000 1.000000
vt 0.500000 0.500000
vt 0.630000 0.042154
vt 0.130000 0.042154
vt 0.416667 1.000000
vt 0.416667 0.500000
vt 0.542154 0.130000
vt 0.042154 0.130000
vt 0.333333 1.000000
vt 0.333333 0.500000
vt 0.510000 0.250000
vt 0.010000 0.250000
vt 0.250000 1.000000
vt 0.250000 0.500000
vt 0.542154 0.370000
vt 0.042154 0.370000
vt 0.166667 1.000000
vt 0.166667 0.500000
vt 0.630000 0.457846
vt 0.130000 0.457846
vt 0.083333 1.000000
vt 0.083333 0.500000
vt 0.000000 1.000000
vt 0.000000 0.500000
vt 0.272728 0.157461
vt 0.454546 0.157461
vt 0.636364 0.157461
vt 0.818182 0.157461
vt 0.090910 0.157461
s 0
f 6/1/1 8/2/1 10/3/1
f 7/4/2 11/5/2 9/6/2
f 8/7/3 9/8/3 11/9/3 10/10/3
f 6/1/4 10/3/4 12/11/4
f 7/4/5 13/12/5 11/5/5
f 10/10/6 11/9/6 13/13/6 12/14/6
f 6/1/7 12/11/7 14/15/7
f 7/4/8 15/16/8 13/12/8
f 12/14/9 13/13/9 15/17/9 14/18/9
f 6/1/10 14/15/10 16/19/10
f 7/4/11 17/20/11 15/16/11
f 14/18/12 15/17/12 17/21/12 16/22/12
f 6/1/13 16/19/13 18/23/13
f 7/4/14 19/24/14 17/20/14
f 16/22/15 17/21/15 19/25/15 18/26/15
f 6/1/16 18/23/16 20/27/16
f 7/4/17 21/28/17 19/24/17
f 18/26/18 19/25/18 21/29/18 20/30/18
f 6/1/19 20/27/19 22/31/19
f 7/4/20 23/32/20 21/28/20
f 20/30/21 21/29/21 23/33/21 22/34/21
f 6/1/22 22/31/22 24/35/22
f 7/4/23 25/36/23 23/32/23
f 22/34/24 23/33/24 25/37/24 24/38/24
f 6/1/25 24/35/25 26/39/25
f 7/4/26 27/40/26 25/36/26
f 24/38/27 25/37/27 27/41/27 26/42/27
f 6/1/28 26/39/28 28/43/28
f 7/4/29 29/44/29 27/40/29
f 26/42/30 27/41/30 29/45/30 28/46/30
f 6/1/31 28/43/31 30/47/31
f 7/4/32 31/48/32 29/44/32
f 28/46/33 29/45/33 31/49/33 30/50/33
f 6/1/34 30/47/34 8/2/34
f 7/4/35 9/6/35 31/48/35
f 30/50/36 31/49/36 9/51/36 8/52/36
f 1/53/37 5/54/37 4/55/37 3/56/37 2/57/37
