# Blender 5.1.2
# www.blender.org
mtllib AngleBased.mtl
o Terrain1
v 0.000000 0.000000 -1.000000
v 0.866025 0.000000 -0.500000
v 0.866025 0.000000 0.500000
v 0.000000 0.000000 1.000000
v -0.623740 0.000000 0.143113
v -0.866025 0.000000 -0.500000
v 0.000000 0.200000 -1.000000
v 0.866025 0.200000 -0.500000
v 0.751627 0.075274 0.333352
v 0.000000 0.078579 1.000000
v -0.623740 0.078579 0.143113
v -0.866025 0.089140 -0.500000
v 0.000000 0.073141 0.000000
v 0.866025 0.000000 0.000000
v 0.698073 0.101621 0.000000
v -0.866025 0.000000 0.000000
v -0.866025 0.078579 0.000000
v -0.294978 0.100806 -0.602913
v 0.433013 0.075274 0.750000
v 0.433013 0.000000 0.750000
v -0.433013 0.078579 0.750000
v 0.433013 0.450000 -0.750000
v -0.433013 0.000000 0.750000
v 0.433013 0.000000 -0.750000
v 0.216506 0.075274 0.375000
v 0.433013 0.131162 0.000000
v -0.250728 0.078579 0.449717
v -0.474941 0.078579 0.281680
v -0.216506 0.166249 -0.375000
v 0.216506 0.270982 -0.375000
v -0.433013 0.027456 0.000000
v 0.000000 0.078579 0.500000
v 0.000000 0.239605 -0.500000
v 0.433013 0.075274 0.250000
v -0.433013 0.061146 -0.250000
v 0.433013 0.218531 -0.250000
v -0.433013 0.000000 -0.750000
vn -0.0599 0.3582 -0.9317
vn 0.8541 0.3004 -0.4246
vn 0.4524 0.8350 0.3132
vn -0.0000 -0.0000 1.0000
vn -0.7833 -0.0000 0.6217
vn -0.7888 0.4427 -0.4263
vn -0.1467 0.6691 -0.7286
vn 0.7108 0.6621 -0.2375
vn 0.3281 0.9370 0.1198
vn 0.0018 0.6111 0.7915
vn -0.4697 0.8234 0.3184
vn -0.5441 0.7947 -0.2691
vn -0.0999 0.9822 0.1591
vn 0.7215 0.6858 0.0951
vn 0.3900 0.9051 0.1696
vn -0.8685 -0.0000 0.4957
vn -0.6623 0.6303 0.4050
vn -0.3751 0.8825 -0.2836
vn 0.3022 0.8469 0.4375
vn 0.5041 0.4488 0.7379
vn -0.6034 0.6338 0.4839
vn 0.2632 0.8600 -0.4372
vn -0.7802 -0.0000 0.6256
vn 0.5000 -0.0000 -0.8660
vn 0.0039 1.0000 -0.0043
vn -0.0151 0.9702 0.2417
vn 0.0019 1.0000 -0.0041
vn 0.0067 0.9982 -0.0590
vn -0.2247 0.9601 0.1665
vn -0.1510 0.9383 0.3110
vn -0.0068 0.9989 -0.0455
vn 0.0049 1.0000 -0.0049
vn -0.3531 0.9312 0.0903
vn -0.0135 0.9970 0.0758
vn -0.0756 0.9892 0.1253
vn 0.0854 0.9277 0.3634
vn -0.4035 0.6489 -0.6451
vt 0.702854 0.986336
vt 0.683014 0.879072
vt 0.755469 0.698683
vt 0.963902 0.818611
vt 0.837436 0.248138
vt 0.739318 0.309113
vt 0.659018 0.129751
vt 0.666215 0.003357
vt 0.384044 0.039767
vt 0.380098 0.000099
vt 0.130689 0.059361
vt 0.152340 0.092799
vt 0.041782 0.273143
vt 0.000099 0.261229
vt 0.434849 0.868664
vt 0.416193 0.724288
vt 0.545892 0.715450
vt 0.014729 0.602345
vt 0.060089 0.603431
vt 0.037430 0.745183
vt 0.000099 0.752098
vt 0.126324 0.954644
vt 0.154612 0.913867
vt 0.395913 0.999901
vt 0.874071 0.542400
vt 0.662186 0.505592
vt 0.603090 0.384343
vt 0.534210 0.264244
vt 0.400066 0.269223
vt 0.400277 0.493916
vt 0.175887 0.358158
vt 0.273419 0.274852
vt 0.604858 0.611986
vt 0.107538 0.487876
vt 0.201646 0.607763
vt 0.977443 0.509087
vt 0.274309 0.722821
s 1
usemtl TestMaterial
f 1/1/1 7/2/7 22/3/22 24/4/24
f 14/5/14 15/6/15 9/7/9 3/8/3
f 3/8/3 9/7/9 19/9/19 20/10/20
f 4/11/4 10/12/10 21/13/21 23/14/23
f 7/2/7 18/15/18 29/16/29 33/17/33
f 5/18/5 11/19/11 17/20/17 16/21/16
f 6/22/6 12/23/12 18/15/18 37/24/37
f 8/25/8 36/26/36 26/27/26 15/6/15
f 9/7/9 34/28/34 25/29/25 19/9/19
f 13/30/13 27/31/27 32/32/32
f 13/30/13 36/26/36 30/33/30
f 11/19/11 28/34/28 31/35/31 17/20/17
f 2/36/2 8/25/8 15/6/15 14/5/14
f 15/6/15 26/27/26 34/28/34 9/7/9
f 16/21/16 17/20/17 12/23/12 6/22/6
f 17/20/17 31/35/31 35/37/35 12/23/12
f 19/9/19 25/29/25 32/32/32 10/12/10
f 13/30/13 29/16/29 35/37/35
f 20/10/20 19/9/19 10/12/10 4/11/4
f 21/13/21 27/31/27 28/34/28 11/19/11
f 22/3/22 7/2/7 33/17/33 30/33/30
f 24/4/24 22/3/22 8/25/8 2/36/2
f 23/14/23 21/13/21 11/19/11 5/18/5
f 34/28/34 26/27/26 13/30/13
f 33/17/33 29/16/29 13/30/13
f 35/37/35 31/35/31 13/30/13
f 26/27/26 36/26/36 13/30/13
f 35/37/35 29/16/29 18/15/18 12/23/12
f 25/29/25 34/28/34 13/30/13
f 31/35/31 28/34/28 13/30/13
f 32/32/32 27/31/27 21/13/21 10/12/10
f 32/32/32 25/29/25 13/30/13
f 28/34/28 27/31/27 13/30/13
f 30/33/30 36/26/36 8/25/8 22/3/22
f 30/33/30 33/17/33 13/30/13
f 37/24/37 18/15/18 7/2/7 1/1/1
