# Blender 4.0.2
# www.blender.org
mtllib PleaseWork.mtl
o Terrain1
v 0.000000 -0.000000 -1.000000
v 0.866025 -0.000000 -0.500000
v 0.866025 0.000000 0.500000
v 0.000000 0.000000 1.000000
v -0.866025 0.000000 0.500000
v -0.866025 -0.000000 -0.500000
v 0.000000 0.200000 -1.000000
v 0.866025 0.200000 -0.500000
v 0.866025 0.200000 0.500000
v 0.000000 0.200000 1.000000
v -0.866025 0.200000 0.500000
v -0.866025 0.200000 -0.500000
v 0.000000 0.262051 -0.000000
v 0.866025 0.000000 0.000000
v 0.866025 0.200000 -0.000000
v -0.866025 0.000000 0.000000
v -0.866025 0.200000 -0.000000
v -0.433013 0.200000 -0.750000
v 0.433013 0.200000 0.750000
v 0.433013 0.000000 0.750000
v -0.433013 0.200000 0.750000
v 0.433013 0.450000 -0.750000
v -0.433013 0.000000 0.750000
v 0.433013 -0.000000 -0.750000
v 0.216506 0.200000 0.375000
v 0.433013 0.265442 -0.000000
v -0.216506 0.200000 0.375000
v -0.433013 0.200000 0.250000
v -0.216506 0.265442 -0.375000
v 0.216506 0.294796 -0.375000
v -0.433013 0.200000 -0.000000
v 0.000000 0.200000 0.500000
v 0.000000 0.294796 -0.500000
v 0.433013 0.200000 0.250000
v -0.433013 0.200000 -0.250000
v 0.433013 0.294796 -0.250000
v -0.433013 -0.000000 -0.750000
vn -0.0000 -0.0000 -1.0000
vn -0.0674 0.5158 -0.8540
vn 0.2773 0.8322 -0.4803
vn 0.5000 -0.0000 -0.8660
vn 1.0000 -0.0000 -0.0000
vn 0.7497 0.6604 0.0419
vn 0.6876 0.5963 0.4143
vn 0.8660 -0.0000 0.5000
vn 0.3536 0.7071 0.6124
vn 0.5000 -0.0000 0.8660
vn -0.0000 -0.0000 1.0000
vn -0.0000 0.6100 0.7924
vn -0.3536 0.7071 0.6124
vn -0.5000 -0.0000 0.8660
vn -0.4111 0.6604 -0.6284
vn -0.1367 0.9905 0.0124
vn -0.1839 0.9823 -0.0344
vn -0.8660 -0.0000 0.5000
vn -0.6862 0.6100 0.3962
vn -0.7071 0.7071 -0.0000
vn -1.0000 -0.0000 -0.0000
vn -0.8660 -0.0000 -0.5000
vn -0.7026 0.5963 -0.3883
vn -0.5000 -0.0000 -0.8660
vn 0.7733 0.5158 -0.3686
vn 0.1217 0.9823 0.1421
vn 0.0576 0.9905 0.1245
vn 0.0274 0.9954 0.0917
vn 0.0356 0.9975 0.0616
vn -0.0579 0.9933 0.1003
vn -0.0356 0.9975 0.0616
vn -0.0000 0.9992 0.0412
vn -0.0593 0.9929 0.1027
vn -0.0357 0.9992 0.0206
vn -0.0711 0.9975 -0.0000
vn 0.8660 -0.0000 -0.5000
vn -0.0931 0.9954 0.0221
vt 0.985290 0.026295
vt 0.985290 0.438901
vt 0.863967 0.954660
vt 0.863967 0.026295
vt 0.500000 0.026295
vt 0.500000 0.438902
vt 0.257355 0.438902
vt 0.257355 0.026295
vt 0.136033 0.438902
vt 0.136033 0.026295
vt 0.014710 0.026295
vt 0.014710 0.438902
vt 0.863967 0.438901
vt 0.681984 0.573911
vt 0.742645 0.634469
vt 0.742645 0.026295
vt 0.742645 0.438901
vt 0.621322 0.634469
vt 0.500000 0.573911
vt 0.378678 0.438902
vt 0.318016 0.438902
vt 0.500000 0.566915
vt 0.681984 0.634469
vt 0.621322 0.438902
s 1
usemtl TestMaterial
f 1/1/1 7/2/2 22/3/3 24/4/4
f 14/5/5 15/6/6 9/7/7 3/8/8
f 3/8/8 9/7/7 19/9/9 20/10/10
f 4/11/11 10/12/12 21/9/13 23/10/14
f 7/2/2 18/13/15 29/14/16 33/15/17
f 5/8/18 11/7/19 17/6/20 16/5/21
f 6/16/22 12/17/23 18/13/15 37/4/24
f 8/17/25 36/18/26 26/19/27 15/6/6
f 9/7/7 34/20/28 25/21/29 19/9/9
f 13/22/30 27/21/31 32/7/32
f 13/22/30 36/18/26 30/23/33
f 11/7/19 28/20/34 31/6/35 17/6/20
f 2/16/36 8/17/25 15/6/6 14/5/5
f 15/6/6 26/19/27 34/20/28 9/7/7
f 16/5/21 17/6/20 12/17/23 6/16/22
f 17/6/20 31/6/35 35/24/37 12/17/23
f 19/9/9 25/21/29 32/7/32 10/12/12
f 13/22/30 29/14/16 35/24/37
f 20/10/10 19/9/9 10/12/12 4/11/11
f 21/9/13 27/21/31 28/20/34 11/7/19
f 22/3/3 7/2/2 33/15/17 30/23/33
f 24/4/4 22/3/3 8/17/25 2/16/36
f 23/10/14 21/9/13 11/7/19 5/8/18
f 34/20/28 26/19/27 13/22/30
f 33/15/17 29/14/16 13/22/30
f 35/24/37 31/6/35 13/22/30
f 26/19/27 36/18/26 13/22/30
f 35/24/37 29/14/16 18/13/15 12/17/23
f 25/21/29 34/20/28 13/22/30
f 31/6/35 28/20/34 13/22/30
f 32/7/32 27/21/31 21/9/13 10/12/12
f 32/7/32 25/21/29 13/22/30
f 28/20/34 27/21/31 13/22/30
f 30/23/33 36/18/26 8/17/25 22/3/3
f 30/23/33 33/15/17 13/22/30
f 37/4/24 18/13/15 7/2/2 1/1/1
