# Blender 5.1.2
# www.blender.org
mtllib TerrainTest.mtl
o Terrain3.1
v -1.702618 -0.100000 -3.984298
v -0.836593 -0.100000 -3.484298
v -0.836593 -0.100000 -2.484298
v -1.702618 -0.100000 -1.984298
v -2.568644 -0.100000 -2.484298
v -2.568644 -0.100000 -3.484298
v -1.702618 0.600000 -3.984298
v -0.836593 0.100000 -3.484298
v -0.836593 0.100000 -2.484298
v -1.702618 0.100000 -1.984298
v -2.568644 0.100000 -2.484298
v -2.568644 0.100000 -3.484298
v -1.702618 0.192164 -2.984298
v -0.836593 -0.100000 -2.984298
v -0.836593 0.100000 -2.984298
v -2.568644 -0.100000 -2.984298
v -2.568644 0.100000 -2.984298
v -2.135631 0.350000 -3.734298
v -1.269605 0.100000 -2.234298
v -1.269605 -0.100000 -2.234298
v -2.135631 0.350000 -2.234298
v -1.269605 0.350000 -3.734298
v -2.135631 -0.100000 -2.234298
v -1.269605 -0.100000 -3.734298
v -1.486112 0.192164 -2.609298
v -1.269605 0.100000 -2.984298
v -1.919124 0.192164 -2.609298
v -2.135631 0.192164 -2.734298
v -1.919124 0.221121 -3.359298
v -1.486112 0.221121 -3.359298
v -2.135631 0.192164 -2.984298
v -1.702618 0.192164 -2.484298
v -1.702618 0.221121 -3.484298
v -1.269605 0.100000 -2.734298
v -2.135631 0.221121 -3.234298
v -1.269605 0.221121 -3.234298
v -2.135631 -0.100000 -3.734298
vn 0.5000 -0.0000 -0.8660
vn 1.0000 -0.0000 -0.0000
vn 0.5000 -0.0000 0.8660
vn -0.5000 -0.0000 0.8660
vn -0.0375 0.8603 0.5085
vn -1.0000 -0.0000 -0.0000
vn -0.5000 -0.0000 -0.8660
vn 0.1811 0.9709 0.1568
vn 0.1405 0.9901 -0.0000
vn -0.0000 1.0000 -0.0000
vn -0.0334 0.9978 0.0578
vn -0.2082 0.9781 -0.0000
vn -0.2491 0.9678 0.0374
vn 0.1041 0.9781 0.1803
vn 0.0334 0.9978 0.0578
vn -0.1897 0.9363 -0.2956
vn 0.0375 0.8603 0.5085
vn 0.2082 0.9781 -0.0000
vn -0.0000 0.9934 0.1151
vn 0.1881 0.8839 0.4282
vn -0.2229 0.9440 0.2433
vn 0.2996 0.9383 -0.1730
vn 0.3508 0.9363 0.0165
vn 0.2229 0.9440 0.2433
vt 1.000000 0.500000
vt 1.000000 1.000000
vt 0.916667 1.000000
vt 0.916667 0.500000
vt 0.750000 0.500000
vt 0.750000 1.000000
vt 0.666667 1.000000
vt 0.666667 0.500000
vt 0.583333 1.000000
vt 0.583333 0.500000
vt 0.500000 0.500000
vt 0.500000 1.000000
vt 0.416667 1.000000
vt 0.416667 0.500000
vt 0.250000 0.490000
vt 0.146077 0.430000
vt 0.198038 0.340000
vt 0.250000 0.370000
vt 0.333333 0.500000
vt 0.333333 1.000000
vt 0.250000 1.000000
vt 0.250000 0.500000
vt 0.166667 0.500000
vt 0.166667 1.000000
vt 0.083333 1.000000
vt 0.083333 0.500000
vt 0.457846 0.370000
vt 0.353923 0.310000
vt 0.353923 0.250000
vt 0.457846 0.250000
vt 0.457846 0.130000
vt 0.353923 0.190000
vt 0.301962 0.160000
vt 0.353923 0.070000
vt 0.250000 0.250000
vt 0.198038 0.160000
vt 0.250000 0.130000
vt 0.301962 0.340000
vt 0.042154 0.130000
vt 0.146077 0.190000
vt 0.146077 0.250000
vt 0.042154 0.250000
vt 0.833333 0.500000
vt 0.833333 1.000000
vt 0.146077 0.310000
vt 0.042154 0.370000
vt 0.250000 0.010000
vt 0.146077 0.070000
vt 0.353923 0.430000
vt -0.000000 1.000000
vt -0.000000 0.500000
s 0
f 1/1/1 7/2/1 22/3/1 24/4/1
f 14/5/2 15/6/2 9/7/2 3/8/2
f 3/8/3 9/7/3 19/9/3 20/10/3
f 4/11/4 10/12/4 21/13/4 23/14/4
f 7/15/5 18/16/5 29/17/5 33/18/5
f 5/19/6 11/20/6 17/21/6 16/22/6
f 6/23/7 12/24/7 18/25/7 37/26/7
f 8/27/8 36/28/8 26/29/8 15/30/8
f 9/31/9 34/32/9 25/33/9 19/34/9
f 13/35/10 27/36/10 32/37/10
f 13/35/11 36/28/11 30/38/11
f 11/39/12 28/40/12 31/41/12 17/42/12
f 2/43/2 8/44/2 15/6/2 14/5/2
f 15/30/10 26/29/10 34/32/10 9/31/10
f 16/22/6 17/21/6 12/24/6 6/23/6
f 17/42/13 31/41/13 35/45/13 12/46/13
f 19/34/14 25/33/14 32/37/14 10/47/14
f 13/35/15 29/17/15 35/45/15
f 20/10/3 19/9/3 10/12/3 4/11/3
f 21/48/16 27/36/16 28/40/16 11/39/16
f 22/49/17 7/15/17 33/18/17 30/38/17
f 24/4/1 22/3/1 8/44/1 2/43/1
f 23/14/4 21/13/4 11/20/4 5/19/4
f 34/32/18 26/29/18 13/35/18
f 33/18/15 29/17/15 13/35/15
f 35/45/19 31/41/19 13/35/19
f 26/29/20 36/28/20 13/35/20
f 35/45/21 29/17/21 18/16/21 12/46/21
f 25/33/22 34/32/22 13/35/22
f 31/41/10 28/40/10 13/35/10
f 32/37/23 27/36/23 21/48/23 10/47/23
f 32/37/10 25/33/10 13/35/10
f 28/40/10 27/36/10 13/35/10
f 30/38/24 36/28/24 8/27/24 22/49/24
f 30/38/11 33/18/11 13/35/11
f 37/26/7 18/25/7 7/50/7 1/51/7
o Terrain1
v -1.763107 -0.100000 -1.914194
v -0.897082 -0.100000 -1.414194
v -0.897082 -0.100000 -0.414194
v -1.763107 -0.100000 0.085806
v -2.629133 -0.100000 -0.414194
v -2.629133 -0.100000 -1.414194
v -1.763107 0.100000 -1.914194
v -0.897082 0.100000 -1.414194
v -0.897082 0.100000 -0.414194
v -1.763107 0.100000 0.085806
v -2.629133 0.100000 -0.414194
v -2.629133 0.100000 -1.414194
v -1.763107 0.162051 -0.914194
v -0.897082 -0.100000 -0.914194
v -0.897082 0.100000 -0.914194
v -2.629133 -0.100000 -0.914194
v -2.629133 0.100000 -0.914194
v -2.196120 0.100000 -1.664194
v -1.330094 0.100000 -0.164194
v -1.330094 -0.100000 -0.164194
v -2.196120 0.100000 -0.164194
v -1.330094 0.350000 -1.664194
v -2.196120 -0.100000 -0.164194
v -1.330094 -0.100000 -1.664194
v -1.546601 0.100000 -0.539194
v -1.330094 0.165442 -0.914194
v -1.979613 0.100000 -0.539194
v -2.196120 0.100000 -0.664194
v -1.979613 0.165442 -1.289194
v -1.546601 0.194796 -1.289194
v -2.196120 0.100000 -0.914194
v -1.763107 0.100000 -0.414194
v -1.763107 0.194796 -1.414194
v -1.330094 0.100000 -0.664194
v -2.196120 0.100000 -1.164194
v -1.330094 0.194796 -1.164194
v -2.196120 -0.100000 -1.664194
vn -0.0000 -0.0000 -1.0000
vn 0.8660 -0.0000 -0.5000
vn 0.8660 -0.0000 0.5000
vn -0.0000 -0.0000 1.0000
vn -0.8660 -0.0000 0.5000
vn -0.8660 -0.0000 -0.5000
vn -0.2034 0.9244 -0.3225
vn 0.3810 0.9244 0.0149
vn 0.1078 0.9904 0.0860
vn -0.0000 0.9963 0.0863
vn -0.0747 0.9963 0.0431
vn -0.1284 0.9904 -0.0503
vn -0.0530 0.9944 0.0918
vn 1.0000 -0.0000 -0.0000
vn 0.2697 0.9607 0.0659
vn -1.0000 -0.0000 -0.0000
vn -0.0995 0.9950 -0.0000
vn -0.1919 0.9607 -0.2006
vn 0.0498 0.9950 0.0862
vn 0.5000 -0.0000 0.8660
vn -0.0498 0.9950 0.0862
vn 0.1072 0.9767 -0.1857
vn -0.5000 -0.0000 0.8660
vn 0.5000 -0.0000 -0.8660
vn 0.0260 0.9986 0.0451
vn 0.0531 0.9920 0.1143
vn -0.0260 0.9986 0.0451
vn -0.0391 0.9990 0.0226
vn -0.1255 0.9920 0.0112
vn -0.0487 0.9953 0.0843
vn -0.0521 0.9986 -0.0000
vn -0.0000 0.9990 0.0451
vn -0.1149 0.9933 0.0099
vn 0.0279 0.9960 0.0854
vn -0.0879 0.9960 0.0186
vn 0.0489 0.9933 0.1045
vn -0.5000 -0.0000 -0.8660
vt 1.000000 0.500000
vt 1.000000 1.000000
vt 0.916667 1.000000
vt 0.916667 0.500000
vt 0.750000 0.500000
vt 0.750000 1.000000
vt 0.666667 1.000000
vt 0.666667 0.500000
vt 0.583333 1.000000
vt 0.583333 0.500000
vt 0.500000 0.500000
vt 0.500000 1.000000
vt 0.416667 1.000000
vt 0.416667 0.500000
vt 0.250000 0.490000
vt 0.146077 0.430000
vt 0.198038 0.340000
vt 0.250000 0.370000
vt 0.333333 0.500000
vt 0.333333 1.000000
vt 0.250000 1.000000
vt 0.250000 0.500000
vt 0.166667 0.500000
vt 0.166667 1.000000
vt 0.083333 1.000000
vt 0.083333 0.500000
vt 0.457846 0.370000
vt 0.353923 0.310000
vt 0.353923 0.250000
vt 0.457846 0.250000
vt 0.457846 0.130000
vt 0.353923 0.190000
vt 0.301962 0.160000
vt 0.353923 0.070000
vt 0.250000 0.250000
vt 0.198038 0.160000
vt 0.250000 0.130000
vt 0.301962 0.340000
vt 0.042154 0.130000
vt 0.146077 0.190000
vt 0.146077 0.250000
vt 0.042154 0.250000
vt 0.833333 0.500000
vt 0.833333 1.000000
vt 0.146077 0.310000
vt 0.042154 0.370000
vt 0.250000 0.010000
vt 0.146077 0.070000
vt 0.353923 0.430000
vt -0.000000 1.000000
vt -0.000000 0.500000
s 1
usemtl TestMaterial
f 38/52/25 44/53/31 59/54/46 61/55/48
f 51/56/38 52/57/39 46/58/33 40/59/27
f 40/59/27 46/58/33 56/60/43 57/61/44
f 41/62/28 47/63/34 58/64/45 60/65/47
f 44/66/31 55/67/42 66/68/53 70/69/57
f 42/70/29 48/71/35 54/72/41 53/73/40
f 43/74/30 49/75/36 55/76/42 74/77/61
f 45/78/32 73/79/60 63/80/50 52/81/39
f 46/82/33 71/83/58 62/84/49 56/85/43
f 50/86/37 64/87/51 69/88/56
f 50/86/37 73/79/60 67/89/54
f 48/90/35 65/91/52 68/92/55 54/93/41
f 39/94/26 45/95/32 52/57/39 51/56/38
f 52/81/39 63/80/50 71/83/58 46/82/33
f 53/73/40 54/72/41 49/75/36 43/74/30
f 54/93/41 68/92/55 72/96/59 49/97/36
f 56/85/43 62/84/49 69/88/56 47/98/34
f 50/86/37 66/68/53 72/96/59
f 57/61/44 56/60/43 47/63/34 41/62/28
f 58/99/45 64/87/51 65/91/52 48/90/35
f 59/100/46 44/66/31 70/69/57 67/89/54
f 61/55/48 59/54/46 45/95/32 39/94/26
f 60/65/47 58/64/45 48/71/35 42/70/29
f 71/83/58 63/80/50 50/86/37
f 70/69/57 66/68/53 50/86/37
f 72/96/59 68/92/55 50/86/37
f 63/80/50 73/79/60 50/86/37
f 72/96/59 66/68/53 55/67/42 49/97/36
f 62/84/49 71/83/58 50/86/37
f 68/92/55 65/91/52 50/86/37
f 69/88/56 64/87/51 58/99/45 47/98/34
f 69/88/56 62/84/49 50/86/37
f 65/91/52 64/87/51 50/86/37
f 67/89/54 73/79/60 45/78/32 59/100/46
f 67/89/54 70/69/57 50/86/37
f 74/77/61 55/76/42 44/101/31 38/102/25
o Terrain2.1
v -1.763107 -0.100000 -10.135350
v -0.897082 -0.100000 -9.635350
v -0.897082 -0.100000 -8.635350
v -1.763107 -0.100000 -8.135350
v -2.629133 -0.100000 -8.635350
v -2.629133 -0.100000 -9.635350
v -1.763107 0.100000 -10.135350
v -0.897082 0.100000 -9.635350
v -0.897082 0.100000 -8.635350
v -1.763107 0.100000 -8.135350
v -2.629133 0.100000 -8.635350
v -2.629133 0.100000 -9.635350
v -1.763107 0.172685 -9.135349
v -0.897082 -0.100000 -9.135350
v -0.897082 0.100000 -9.135350
v -2.629133 -0.100000 -9.135350
v -2.629133 0.100000 -9.135350
v -2.196120 0.100000 -9.885350
v -1.330094 0.350000 -8.385350
v -1.330094 -0.100000 -8.385350
v -2.196120 0.100000 -8.385350
v -1.330094 0.350000 -9.885350
v -2.196120 -0.100000 -8.385350
v -1.330094 -0.100000 -9.885350
v -1.546601 0.222523 -8.760350
v -1.330094 0.166625 -9.135350
v -1.979613 0.166625 -8.760350
v -2.196120 0.166625 -8.885350
v -1.979613 0.166625 -9.510350
v -1.546601 0.177380 -9.510350
v -2.196120 0.166625 -9.135350
v -1.763107 0.166625 -8.635350
v -1.763107 0.178653 -9.635350
v -1.330094 0.189086 -8.885350
v -2.196120 0.166625 -9.385350
v -1.330094 0.166625 -9.385350
v -2.196120 -0.100000 -9.885350
vn 0.5000 -0.0000 -0.8660
vn 1.0000 -0.0000 -0.0000
vn 0.5000 -0.0000 0.8660
vn -0.5000 -0.0000 0.8660
vn -0.0986 0.9853 -0.1392
vn -1.0000 -0.0000 -0.0000
vn -0.5000 -0.0000 -0.8660
vn 0.1521 0.9884 -0.0000
vn 0.2320 0.9259 -0.2980
vn -0.0070 0.9999 0.0121
vn 0.0318 0.9990 0.0309
vn -0.1521 0.9884 -0.0000
vn 0.1851 0.9823 -0.0294
vn -0.4080 0.9122 0.0375
vn -0.0070 0.9999 -0.0121
vn -0.0760 0.9884 0.1317
vn -0.3628 0.9318 0.0103
vn 0.0139 0.9959 -0.0895
vn -0.0486 0.9987 0.0119
vn -0.0140 0.9999 -0.0000
vn 0.0140 0.9999 -0.0000
vn -0.0760 0.9884 -0.1317
vn 0.0574 0.9848 -0.1640
vn -0.2436 0.9698 0.0118
vn 0.1754 0.9243 0.3390
vn -0.0010 0.9999 0.0119
vt 1.000000 0.500000
vt 1.000000 1.000000
vt 0.916667 1.000000
vt 0.916667 0.500000
vt 0.750000 0.500000
vt 0.750000 1.000000
vt 0.666667 1.000000
vt 0.666667 0.500000
vt 0.583333 1.000000
vt 0.583333 0.500000
vt 0.500000 0.500000
vt 0.500000 1.000000
vt 0.416667 1.000000
vt 0.416667 0.500000
vt 0.250000 0.490000
vt 0.146077 0.430000
vt 0.198038 0.340000
vt 0.250000 0.370000
vt 0.333333 0.500000
vt 0.333333 1.000000
vt 0.250000 1.000000
vt 0.250000 0.500000
vt 0.166667 0.500000
vt 0.166667 1.000000
vt 0.083333 1.000000
vt 0.083333 0.500000
vt 0.457846 0.370000
vt 0.353923 0.310000
vt 0.353923 0.250000
vt 0.457846 0.250000
vt 0.457846 0.130000
vt 0.353923 0.190000
vt 0.301962 0.160000
vt 0.353923 0.070000
vt 0.250000 0.250000
vt 0.198038 0.160000
vt 0.250000 0.130000
vt 0.301962 0.340000
vt 0.042154 0.130000
vt 0.146077 0.190000
vt 0.146077 0.250000
vt 0.042154 0.250000
vt 0.833333 0.500000
vt 0.833333 1.000000
vt 0.146077 0.310000
vt 0.042154 0.370000
vt 0.250000 0.010000
vt 0.146077 0.070000
vt 0.353923 0.430000
vt -0.000000 1.000000
vt -0.000000 0.500000
s 0
f 75/103/62 81/104/62 96/105/62 98/106/62
f 88/107/63 89/108/63 83/109/63 77/110/63
f 77/110/64 83/109/64 93/111/64 94/112/64
f 78/113/65 84/114/65 95/115/65 97/116/65
f 81/117/66 92/118/66 103/119/66 107/120/66
f 79/121/67 85/122/67 91/123/67 90/124/67
f 80/125/68 86/126/68 92/127/68 111/128/68
f 82/129/69 110/130/69 100/131/69 89/132/69
f 83/133/70 108/134/70 99/135/70 93/136/70
f 87/137/71 101/138/71 106/139/71
f 87/137/72 110/130/72 104/140/72
f 85/141/73 102/142/73 105/143/73 91/144/73
f 76/145/63 82/146/63 89/108/63 88/107/63
f 89/132/74 100/131/74 108/134/74 83/133/74
f 90/124/67 91/123/67 86/126/67 80/125/67
f 91/144/73 105/143/73 109/147/73 86/148/73
f 93/136/75 99/135/75 106/139/75 84/149/75
f 87/137/76 103/119/76 109/147/76
f 94/112/64 93/111/64 84/114/64 78/113/64
f 95/150/77 101/138/77 102/142/77 85/141/77
f 96/151/78 81/117/78 107/120/78 104/140/78
f 98/106/62 96/105/62 82/146/62 76/145/62
f 97/116/65 95/115/65 85/122/65 79/121/65
f 108/134/79 100/131/79 87/137/79
f 107/120/80 103/119/80 87/137/80
f 109/147/81 105/143/81 87/137/81
f 100/131/82 110/130/82 87/137/82
f 109/147/83 103/119/83 92/118/83 86/148/83
f 99/135/84 108/134/84 87/137/84
f 105/143/81 102/142/81 87/137/81
f 106/139/77 101/138/77 95/150/77 84/149/77
f 106/139/85 99/135/85 87/137/85
f 102/142/71 101/138/71 87/137/71
f 104/140/86 110/130/86 82/129/86 96/151/86
f 104/140/87 107/120/87 87/137/87
f 111/128/68 92/127/68 81/152/68 75/153/68
o Terrain4.1
v -1.741627 -0.100000 -6.064594
v -0.875601 -0.100000 -5.564594
v -0.875601 -0.100000 -4.564594
v -1.741627 -0.100000 -4.064594
v -2.607652 -0.100000 -4.564594
v -2.607652 -0.100000 -5.564594
v -1.741627 0.600000 -6.064594
v -0.875601 0.600000 -5.564594
v -0.875601 0.100000 -4.564594
v -1.741627 0.100000 -4.064594
v -2.607652 0.100000 -4.564594
v -2.607652 0.100000 -5.564594
v -1.741627 0.192164 -5.064593
v -0.875601 -0.100000 -5.064594
v -0.875601 0.350000 -5.064594
v -2.607652 -0.100000 -5.064594
v -2.607652 0.100000 -5.064594
v -2.174639 0.350000 -5.814594
v -1.308614 0.100000 -4.314594
v -1.308614 -0.100000 -4.314594
v -2.174639 0.350000 -4.314594
v -1.308614 0.600000 -5.814594
v -2.174639 -0.100000 -4.314594
v -1.308614 -0.100000 -5.814594
v -1.525120 0.192164 -4.689593
v -1.308614 0.245255 -5.064593
v -1.958133 0.192164 -4.689593
v -2.174639 0.192164 -4.814593
v -1.958133 0.221121 -5.439593
v -1.525120 0.325045 -5.439593
v -2.174639 0.192164 -5.064593
v -1.741627 0.192164 -4.564593
v -1.741627 0.325045 -5.564593
v -1.308614 0.177640 -4.814593
v -2.174639 0.221121 -5.314593
v -1.308614 0.325045 -5.314593
v -2.174639 -0.100000 -5.814594
vn 0.5000 -0.0000 -0.8660
vn 1.0000 -0.0000 -0.0000
vn 0.5000 -0.0000 0.8660
vn -0.5000 -0.0000 0.8660
vn -0.2111 0.8666 0.4522
vn -1.0000 -0.0000 -0.0000
vn -0.5000 -0.0000 -0.8660
vn -0.2742 0.8803 0.3871
vn 0.1100 0.9822 0.1525
vn -0.0000 1.0000 -0.0000
vn -0.1467 0.9560 0.2541
vn -0.2082 0.9781 -0.0000
vn -0.1400 0.9118 0.3861
vn -0.2491 0.9678 0.0374
vn 0.1041 0.9781 0.1803
vn 0.0334 0.9978 0.0578
vn -0.1897 0.9363 -0.2956
vn -0.2680 0.8442 0.4642
vn -0.1175 0.9586 0.2593
vn -0.3010 0.9216 0.2449
vn -0.0000 0.9934 0.1151
vn -0.1160 0.9462 0.3020
vn -0.2229 0.9440 0.2433
vn 0.0502 0.9983 -0.0290
vn 0.3508 0.9363 0.0165
vt 1.000000 0.500000
vt 1.000000 1.000000
vt 0.916667 1.000000
vt 0.916667 0.500000
vt 0.750000 0.500000
vt 0.750000 1.000000
vt 0.666667 1.000000
vt 0.666667 0.500000
vt 0.583333 1.000000
vt 0.583333 0.500000
vt 0.500000 0.500000
vt 0.500000 1.000000
vt 0.416667 1.000000
vt 0.416667 0.500000
vt 0.250000 0.490000
vt 0.146077 0.430000
vt 0.198038 0.340000
vt 0.250000 0.370000
vt 0.333333 0.500000
vt 0.333333 1.000000
vt 0.250000 1.000000
vt 0.250000 0.500000
vt 0.166667 0.500000
vt 0.166667 1.000000
vt 0.083333 1.000000
vt 0.083333 0.500000
vt 0.457846 0.370000
vt 0.353923 0.310000
vt 0.353923 0.250000
vt 0.457846 0.250000
vt 0.457846 0.130000
vt 0.353923 0.190000
vt 0.301962 0.160000
vt 0.353923 0.070000
vt 0.250000 0.250000
vt 0.198038 0.160000
vt 0.250000 0.130000
vt 0.301962 0.340000
vt 0.042154 0.130000
vt 0.146077 0.190000
vt 0.146077 0.250000
vt 0.042154 0.250000
vt 0.833333 0.500000
vt 0.833333 1.000000
vt 0.146077 0.310000
vt 0.042154 0.370000
vt 0.250000 0.010000
vt 0.146077 0.070000
vt 0.353923 0.430000
vt -0.000000 1.000000
vt -0.000000 0.500000
s 0
f 112/154/88 118/155/88 133/156/88 135/157/88
f 125/158/89 126/159/89 120/160/89 114/161/89
f 114/161/90 120/160/90 130/162/90 131/163/90
f 115/164/91 121/165/91 132/166/91 134/167/91
f 118/168/92 129/169/92 140/170/92 144/171/92
f 116/172/93 122/173/93 128/174/93 127/175/93
f 117/176/94 123/177/94 129/178/94 148/179/94
f 119/180/95 147/181/95 137/182/95 126/183/95
f 120/184/96 145/185/96 136/186/96 130/187/96
f 124/188/97 138/189/97 143/190/97
f 124/188/98 147/181/98 141/191/98
f 122/192/99 139/193/99 142/194/99 128/195/99
f 113/196/89 119/197/89 126/159/89 125/158/89
f 126/183/100 137/182/100 145/185/100 120/184/100
f 127/175/93 128/174/93 123/177/93 117/176/93
f 128/195/101 142/194/101 146/198/101 123/199/101
f 130/187/102 136/186/102 143/190/102 121/200/102
f 124/188/103 140/170/103 146/198/103
f 131/163/90 130/162/90 121/165/90 115/164/90
f 132/201/104 138/189/104 139/193/104 122/192/104
f 133/202/105 118/168/105 144/171/105 141/191/105
f 135/157/88 133/156/88 119/197/88 113/196/88
f 134/167/91 132/166/91 122/173/91 116/172/91
f 145/185/106 137/182/106 124/188/106
f 144/171/107 140/170/107 124/188/107
f 146/198/108 142/194/108 124/188/108
f 137/182/109 147/181/109 124/188/109
f 146/198/110 140/170/110 129/169/110 123/199/110
f 136/186/111 145/185/111 124/188/111
f 142/194/97 139/193/97 124/188/97
f 143/190/112 138/189/112 132/201/112 121/200/112
f 143/190/97 136/186/97 124/188/97
f 139/193/97 138/189/97 124/188/97
f 141/191/105 147/181/105 119/180/105 133/202/105
f 141/191/98 144/171/98 124/188/98
f 148/179/94 129/178/94 118/203/94 112/204/94
o Terrain2
v -1.763107 -0.100000 -8.094251
v -0.897082 -0.100000 -7.594251
v -0.897082 -0.100000 -6.594251
v -1.763107 -0.100000 -6.094251
v -2.629133 -0.100000 -6.594251
v -2.629133 -0.100000 -7.594251
v -1.763107 0.100000 -8.094251
v -0.897082 0.600000 -7.594251
v -0.897082 0.600000 -6.594251
v -1.763107 0.100000 -6.094251
v -2.629133 0.100000 -6.594251
v -2.629133 0.100000 -7.594251
v -1.763107 0.243124 -7.094250
v -0.897082 -0.100000 -7.094251
v -0.897082 0.600000 -7.094251
v -2.629133 -0.100000 -7.094251
v -2.629133 0.100000 -7.094251
v -2.196120 0.100000 -7.844251
v -1.330094 0.350000 -6.344251
v -1.330094 -0.100000 -6.344251
v -2.196120 0.100000 -6.344251
v -1.330094 0.350000 -7.844251
v -2.196120 -0.100000 -6.344251
v -1.330094 -0.100000 -7.844251
v -1.546601 0.267079 -6.719251
v -1.330094 0.305100 -7.094251
v -1.979613 0.137768 -6.719251
v -2.196120 0.137768 -6.844251
v -1.979613 0.185768 -7.469251
v -1.546601 0.243124 -7.469251
v -2.196120 0.136680 -7.094251
v -1.763107 0.219560 -6.594251
v -1.763107 0.243124 -7.594251
v -1.330094 0.338613 -6.844251
v -2.196120 0.136680 -7.344251
v -1.330094 0.277372 -7.344251
v -2.196120 -0.100000 -7.844251
vn 0.5000 -0.0000 -0.8660
vn 1.0000 -0.0000 -0.0000
vn 0.5000 -0.0000 0.8660
vn -0.5000 -0.0000 0.8660
vn -0.2008 0.9588 -0.2011
vn -1.0000 -0.0000 -0.0000
vn -0.5000 -0.0000 -0.8660
vn -0.5860 0.8097 -0.0299
vn -0.4529 0.8913 -0.0203
vn -0.3750 0.9260 0.0436
vn -0.1175 0.9907 -0.0679
vn -0.0861 0.9963 -0.0014
vn -0.5323 0.8457 -0.0378
vn -0.0844 0.9964 -0.0000
vn -0.3521 0.9274 0.1260
vn -0.2299 0.9731 -0.0161
vn -0.0434 0.9962 0.0753
vn -0.2993 0.9474 -0.1133
vn -0.1405 0.9813 -0.1315
vn -0.2561 0.9667 -0.0000
vn -0.2387 0.9711 -0.0000
vn -0.1408 0.9840 -0.1091
vn -0.1168 0.9905 -0.0727
vn -0.2645 0.9601 0.0914
vn -0.2387 0.9711 -0.0042
vn -0.1955 0.9725 0.1265
vn -0.1886 0.9810 0.0462
vn -0.1182 0.9717 0.2047
vn -0.4586 0.8794 0.1277
vn -0.0000 1.0000 -0.0000
vt 1.000000 0.500000
vt 1.000000 1.000000
vt 0.916667 1.000000
vt 0.916667 0.500000
vt 0.750000 0.500000
vt 0.750000 1.000000
vt 0.666667 1.000000
vt 0.666667 0.500000
vt 0.583333 1.000000
vt 0.583333 0.500000
vt 0.500000 0.500000
vt 0.500000 1.000000
vt 0.416667 1.000000
vt 0.416667 0.500000
vt 0.250000 0.490000
vt 0.146077 0.430000
vt 0.198038 0.340000
vt 0.250000 0.370000
vt 0.333333 0.500000
vt 0.333333 1.000000
vt 0.250000 1.000000
vt 0.250000 0.500000
vt 0.166667 0.500000
vt 0.166667 1.000000
vt 0.083333 1.000000
vt 0.083333 0.500000
vt 0.457846 0.370000
vt 0.353923 0.310000
vt 0.353923 0.250000
vt 0.457846 0.250000
vt 0.457846 0.130000
vt 0.353923 0.190000
vt 0.301962 0.160000
vt 0.353923 0.070000
vt 0.250000 0.250000
vt 0.198038 0.160000
vt 0.250000 0.130000
vt 0.301962 0.340000
vt 0.042154 0.130000
vt 0.146077 0.190000
vt 0.146077 0.250000
vt 0.042154 0.250000
vt 0.833333 0.500000
vt 0.833333 1.000000
vt 0.146077 0.310000
vt 0.042154 0.370000
vt 0.250000 0.010000
vt 0.146077 0.070000
vt 0.353923 0.430000
vt -0.000000 1.000000
vt -0.000000 0.500000
s 0
f 149/205/113 155/206/113 170/207/113 172/208/113
f 162/209/114 163/210/114 157/211/114 151/212/114
f 151/212/115 157/211/115 167/213/115 168/214/115
f 152/215/116 158/216/116 169/217/116 171/218/116
f 155/219/117 166/220/117 177/221/117 181/222/117
f 153/223/118 159/224/118 165/225/118 164/226/118
f 154/227/119 160/228/119 166/229/119 185/230/119
f 156/231/120 184/232/120 174/233/120 163/234/120
f 157/235/121 182/236/121 173/237/121 167/238/121
f 161/239/122 175/240/122 180/241/122
f 161/239/123 184/232/123 178/242/123
f 159/243/124 176/244/124 179/245/124 165/246/124
f 150/247/114 156/248/114 163/210/114 162/209/114
f 163/234/125 174/233/125 182/236/125 157/235/125
f 164/226/118 165/225/118 160/228/118 154/227/118
f 165/246/126 179/245/126 183/249/126 160/250/126
f 167/238/127 173/237/127 180/241/127 158/251/127
f 161/239/128 177/221/128 183/249/128
f 168/214/115 167/213/115 158/216/115 152/215/115
f 169/252/129 175/240/129 176/244/129 159/243/129
f 170/253/130 155/219/130 181/222/130 178/242/130
f 172/208/113 170/207/113 156/248/113 150/247/113
f 171/218/116 169/217/116 159/224/116 153/223/116
f 182/236/131 174/233/131 161/239/131
f 181/222/132 177/221/132 161/239/132
f 183/249/133 179/245/133 161/239/133
f 174/233/134 184/232/134 161/239/134
f 183/249/135 177/221/135 166/220/135 160/250/135
f 173/237/136 182/236/136 161/239/136
f 179/245/137 176/244/137 161/239/137
f 180/241/138 175/240/138 169/252/138 158/251/138
f 180/241/139 173/237/139 161/239/139
f 176/244/140 175/240/140 161/239/140
f 178/242/141 184/232/141 156/231/141 170/253/141
f 178/242/142 181/222/142 161/239/142
f 185/230/119 166/229/119 155/254/119 149/255/119
o BaseTerrain.001
v -1.763107 -0.100000 0.399591
v -0.897082 -0.100000 0.899591
v -0.897082 -0.100000 1.899591
v -1.763107 -0.100000 2.399591
v -2.629133 -0.100000 1.899591
v -2.629133 -0.100000 0.899591
v -1.763107 0.100000 0.399591
v -0.897082 0.100000 0.899591
v -0.897082 0.100000 1.899591
v -1.763107 0.100000 2.399591
v -2.629133 0.100000 1.899591
v -2.629133 0.100000 0.899591
v -1.763107 0.100000 1.399591
v -0.897082 -0.100000 1.399591
v -0.897082 0.100000 1.399591
v -2.629133 -0.100000 1.399591
v -2.629133 0.100000 1.399591
v -2.196120 0.100000 0.649591
v -1.330094 0.100000 2.149591
v -1.330094 -0.100000 2.149591
v -2.196120 0.100000 2.149591
v -1.330094 0.100000 0.649591
v -2.196120 -0.100000 2.149591
v -1.330094 -0.100000 0.649591
v -1.546601 0.100000 1.774591
v -1.330094 0.100000 1.399591
v -1.979613 0.100000 1.774591
v -2.196120 0.100000 1.649591
v -1.979613 0.100000 1.024591
v -1.546601 0.100000 1.024591
v -2.196120 0.100000 1.399591
v -1.763107 0.100000 1.899591
v -1.763107 0.100000 0.899591
v -1.330094 0.100000 1.649591
v -2.196120 0.100000 1.149591
v -1.330094 0.100000 1.149591
v -2.196120 -0.100000 0.649591
vn 0.5000 -0.0000 -0.8660
vn 1.0000 -0.0000 -0.0000
vn 0.5000 -0.0000 0.8660
vn -0.5000 -0.0000 0.8660
vn -0.0000 1.0000 -0.0000
vn -1.0000 -0.0000 -0.0000
vn -0.5000 -0.0000 -0.8660
vt 1.000000 0.500000
vt 1.000000 1.000000
vt 0.916667 1.000000
vt 0.916667 0.500000
vt 0.750000 0.500000
vt 0.750000 1.000000
vt 0.666667 1.000000
vt 0.666667 0.500000
vt 0.583333 1.000000
vt 0.583333 0.500000
vt 0.500000 0.500000
vt 0.500000 1.000000
vt 0.416667 1.000000
vt 0.416667 0.500000
vt 0.250000 0.490000
vt 0.146077 0.430000
vt 0.198038 0.340000
vt 0.250000 0.370000
vt 0.333333 0.500000
vt 0.333333 1.000000
vt 0.250000 1.000000
vt 0.250000 0.500000
vt 0.166667 0.500000
vt 0.166667 1.000000
vt 0.083333 1.000000
vt 0.083333 0.500000
vt 0.457846 0.370000
vt 0.353923 0.310000
vt 0.353923 0.250000
vt 0.457846 0.250000
vt 0.457846 0.130000
vt 0.353923 0.190000
vt 0.301962 0.160000
vt 0.353923 0.070000
vt 0.250000 0.250000
vt 0.198038 0.160000
vt 0.250000 0.130000
vt 0.301962 0.340000
vt 0.042154 0.130000
vt 0.146077 0.190000
vt 0.146077 0.250000
vt 0.042154 0.250000
vt 0.833333 0.500000
vt 0.833333 1.000000
vt 0.146077 0.310000
vt 0.042154 0.370000
vt 0.250000 0.010000
vt 0.146077 0.070000
vt 0.353923 0.430000
vt -0.000000 1.000000
vt -0.000000 0.500000
s 0
f 186/256/143 192/257/143 207/258/143 209/259/143
f 199/260/144 200/261/144 194/262/144 188/263/144
f 188/263/145 194/262/145 204/264/145 205/265/145
f 189/266/146 195/267/146 206/268/146 208/269/146
f 192/270/147 203/271/147 214/272/147 218/273/147
f 190/274/148 196/275/148 202/276/148 201/277/148
f 191/278/149 197/279/149 203/280/149 222/281/149
f 193/282/147 221/283/147 211/284/147 200/285/147
f 194/286/147 219/287/147 210/288/147 204/289/147
f 198/290/147 212/291/147 217/292/147
f 198/290/147 221/283/147 215/293/147
f 196/294/147 213/295/147 216/296/147 202/297/147
f 187/298/144 193/299/144 200/261/144 199/260/144
f 200/285/147 211/284/147 219/287/147 194/286/147
f 201/277/148 202/276/148 197/279/148 191/278/148
f 202/297/147 216/296/147 220/300/147 197/301/147
f 204/289/147 210/288/147 217/292/147 195/302/147
f 198/290/147 214/272/147 220/300/147
f 205/265/145 204/264/145 195/267/145 189/266/145
f 206/303/147 212/291/147 213/295/147 196/294/147
f 207/304/147 192/270/147 218/273/147 215/293/147
f 209/259/143 207/258/143 193/299/143 187/298/143
f 208/269/146 206/268/146 196/275/146 190/274/146
f 219/287/147 211/284/147 198/290/147
f 218/273/147 214/272/147 198/290/147
f 220/300/147 216/296/147 198/290/147
f 211/284/147 221/283/147 198/290/147
f 220/300/147 214/272/147 203/271/147 197/301/147
f 210/288/147 219/287/147 198/290/147
f 216/296/147 213/295/147 198/290/147
f 217/292/147 212/291/147 206/303/147 195/302/147
f 217/292/147 210/288/147 198/290/147
f 213/295/147 212/291/147 198/290/147
f 215/293/147 221/283/147 193/282/147 207/304/147
f 215/293/147 218/273/147 198/290/147
f 222/281/149 203/280/149 192/305/149 186/306/149
o Terrain2.2
v -1.763107 -0.100000 -12.473801
v -0.897082 -0.100000 -11.973801
v -0.897082 -0.100000 -10.973801
v -1.763107 -0.100000 -10.473801
v -2.629133 -0.100000 -10.973801
v -2.629133 -0.100000 -11.973801
v -1.763107 0.100000 -12.473801
v -0.897082 0.100000 -11.973801
v -0.897082 0.100000 -10.973801
v -1.763107 0.100000 -10.473801
v -2.629133 0.100000 -10.973801
v -2.629133 0.100000 -11.973801
v -1.763107 0.191649 -11.473801
v -0.897082 -0.100000 -11.473801
v -0.897082 0.350000 -11.473801
v -2.629133 -0.100000 -11.473801
v -2.629133 0.350000 -11.473801
v -2.196120 0.100000 -12.223801
v -1.330094 0.100000 -10.723801
v -1.330094 -0.100000 -10.723801
v -2.196120 0.100000 -10.723801
v -1.330094 0.100000 -12.223801
v -2.196120 -0.100000 -10.723801
v -1.330094 -0.100000 -12.223801
v -1.546601 0.149774 -11.098801
v -1.330094 0.180949 -11.473801
v -1.979613 0.180669 -11.098801
v -2.196120 0.180669 -11.223801
v -1.979613 0.149774 -11.848801
v -1.546601 0.174891 -11.848801
v -2.196120 0.189639 -11.473801
v -1.763107 0.149774 -10.973801
v -1.763107 0.149774 -11.973801
v -1.330094 0.178831 -11.223801
v -2.196120 0.171993 -11.723801
v -1.330094 0.174891 -11.723801
v -2.196120 -0.100000 -12.223801
vn 0.5000 -0.0000 -0.8660
vn 1.0000 -0.0000 -0.0000
vn 0.5000 -0.0000 0.8660
vn -0.5000 -0.0000 0.8660
vn -0.0571 0.9935 -0.0989
vn -1.0000 -0.0000 -0.0000
vn -0.5000 -0.0000 -0.8660
vn -0.1925 0.9287 -0.3171
vn 0.0457 0.9868 0.1556
vn 0.0936 0.9921 0.0831
vn 0.0193 0.9993 -0.0335
vn 0.1783 0.9301 0.3212
vn -0.1874 0.9311 0.3130
vn 0.1896 0.9247 -0.3300
vn 0.0571 0.9935 0.0989
vn 0.0284 0.9915 -0.1271
vn -0.0916 0.9831 0.1586
vn 0.0378 0.9906 -0.1318
vn 0.0247 0.9997 0.0085
vn -0.0481 0.9954 -0.0834
vn -0.0046 0.9975 -0.0704
vn 0.0247 0.9994 -0.0242
vn -0.0484 0.9886 -0.1423
vn -0.0517 0.9888 0.1403
vn -0.0046 0.9993 0.0359
vn -0.0333 0.9897 0.1393
vn 0.0481 0.9954 0.0834
vn -0.0127 0.9997 0.0220
vn 0.0852 0.9854 -0.1476
vn -0.0673 0.9943 -0.0833
vt 1.000000 0.500000
vt 1.000000 1.000000
vt 0.916667 1.000000
vt 0.916667 0.500000
vt 0.750000 0.500000
vt 0.750000 1.000000
vt 0.666667 1.000000
vt 0.666667 0.500000
vt 0.583333 1.000000
vt 0.583333 0.500000
vt 0.500000 0.500000
vt 0.500000 1.000000
vt 0.416667 1.000000
vt 0.416667 0.500000
vt 0.250000 0.490000
vt 0.146077 0.430000
vt 0.198038 0.340000
vt 0.250000 0.370000
vt 0.333333 0.500000
vt 0.333333 1.000000
vt 0.250000 1.000000
vt 0.250000 0.500000
vt 0.166667 0.500000
vt 0.166667 1.000000
vt 0.083333 1.000000
vt 0.083333 0.500000
vt 0.457846 0.370000
vt 0.353923 0.310000
vt 0.353923 0.250000
vt 0.457846 0.250000
vt 0.457846 0.130000
vt 0.353923 0.190000
vt 0.301962 0.160000
vt 0.353923 0.070000
vt 0.250000 0.250000
vt 0.198038 0.160000
vt 0.250000 0.130000
vt 0.301962 0.340000
vt 0.042154 0.130000
vt 0.146077 0.190000
vt 0.146077 0.250000
vt 0.042154 0.250000
vt 0.833333 0.500000
vt 0.833333 1.000000
vt 0.146077 0.310000
vt 0.042154 0.370000
vt 0.250000 0.010000
vt 0.146077 0.070000
vt 0.353923 0.430000
vt -0.000000 1.000000
vt -0.000000 0.500000
s 0
f 223/307/150 229/308/150 244/309/150 246/310/150
f 236/311/151 237/312/151 231/313/151 225/314/151
f 225/314/152 231/313/152 241/315/152 242/316/152
f 226/317/153 232/318/153 243/319/153 245/320/153
f 229/321/154 240/322/154 251/323/154 255/324/154
f 227/325/155 233/326/155 239/327/155 238/328/155
f 228/329/156 234/330/156 240/331/156 259/332/156
f 230/333/157 258/334/157 248/335/157 237/336/157
f 231/337/158 256/338/158 247/339/158 241/340/158
f 235/341/159 249/342/159 254/343/159
f 235/341/160 258/334/160 252/344/160
f 233/345/161 250/346/161 253/347/161 239/348/161
f 224/349/151 230/350/151 237/312/151 236/311/151
f 237/336/162 248/335/162 256/338/162 231/337/162
f 238/328/155 239/327/155 234/330/155 228/329/155
f 239/348/163 253/347/163 257/351/163 234/352/163
f 241/340/164 247/339/164 254/343/164 232/353/164
f 235/341/165 251/323/165 257/351/165
f 242/316/152 241/315/152 232/318/152 226/317/152
f 243/354/166 249/342/166 250/346/166 233/345/166
f 244/355/167 229/321/167 255/324/167 252/344/167
f 246/310/150 244/309/150 230/350/150 224/349/150
f 245/320/153 243/319/153 233/326/153 227/325/153
f 256/338/168 248/335/168 235/341/168
f 255/324/169 251/323/169 235/341/169
f 257/351/170 253/347/170 235/341/170
f 248/335/171 258/334/171 235/341/171
f 257/351/172 251/323/172 240/322/172 234/352/172
f 247/339/173 256/338/173 235/341/173
f 253/347/174 250/346/174 235/341/174
f 254/343/175 249/342/175 243/354/175 232/353/175
f 254/343/176 247/339/176 235/341/176
f 250/346/177 249/342/177 235/341/177
f 252/344/178 258/334/178 230/333/178 244/355/178
f 252/344/179 255/324/179 235/341/179
f 259/332/156 240/331/156 229/356/156 223/357/156
o Terrain3
v -1.763107 -0.100000 -14.866819
v -0.897082 -0.100000 -14.366819
v -0.897082 -0.100000 -13.366819
v -1.763107 -0.100000 -12.866819
v -2.629133 -0.100000 -13.366819
v -2.629133 -0.100000 -14.366819
v -1.763107 0.600000 -14.866819
v -0.897082 0.600000 -14.366819
v -0.897082 0.100000 -13.366819
v -1.763107 0.100000 -12.866819
v -2.629133 0.100000 -13.366819
v -2.629133 0.100000 -14.366819
v -1.763107 0.321038 -13.866819
v -0.897082 -0.100000 -13.866819
v -0.897082 0.350000 -13.866819
v -2.629133 -0.100000 -13.866819
v -2.629133 0.100000 -13.866819
v -2.196120 0.350000 -14.616819
v -1.330094 0.100000 -13.116819
v -1.330094 -0.100000 -13.116819
v -2.196120 0.100000 -13.116819
v -1.330094 0.600000 -14.616819
v -2.196120 -0.100000 -13.116819
v -1.330094 -0.100000 -14.616819
v -1.546601 0.218781 -13.491819
v -1.330094 0.321038 -13.866819
v -1.979613 0.185024 -13.491819
v -2.196120 0.185024 -13.616819
v -1.979613 0.321038 -14.241819
v -1.546601 0.372790 -14.241819
v -2.196120 0.185024 -13.866819
v -1.763107 0.185024 -13.366819
v -1.763107 0.372790 -14.366819
v -1.330094 0.269067 -13.616819
v -2.196120 0.321038 -14.116819
v -1.330094 0.387676 -14.116819
v -2.196120 -0.100000 -14.616819
vn 0.5000 -0.0000 -0.8660
vn 1.0000 -0.0000 -0.0000
vn 0.5000 -0.0000 0.8660
vn -0.5000 -0.0000 0.8660
vn -0.2367 0.9151 0.3265
vn -1.0000 -0.0000 -0.0000
vn -0.5000 -0.0000 -0.8660
vn -0.1429 0.9118 0.3849
vn 0.1109 0.9415 0.3183
vn -0.1498 0.9540 0.2595
vn -0.1103 0.9912 0.0731
vn -0.1927 0.9813 -0.0000
vn 0.0422 0.9268 0.3732
vn -0.3708 0.9138 0.1657
vn 0.0704 0.9752 0.2097
vn -0.0000 1.0000 -0.0000
vn -0.0963 0.9813 0.1669
vn -0.2323 0.8855 0.4024
vn -0.0000 0.9791 0.2035
vn -0.1756 0.9792 0.1014
vn -0.2660 0.8468 0.4607
vn -0.0000 0.9663 0.2576
vn -0.3311 0.9420 0.0546
vn -0.0536 0.9551 0.2914
vn -0.2997 0.9540 -0.0000
vn 0.0011 0.9649 0.2625
vn -0.2396 0.8936 0.3795
vn -0.0593 0.9929 0.1028
vt 1.000000 0.500000
vt 1.000000 1.000000
vt 0.916667 1.000000
vt 0.916667 0.500000
vt 0.750000 0.500000
vt 0.750000 1.000000
vt 0.666667 1.000000
vt 0.666667 0.500000
vt 0.583333 1.000000
vt 0.583333 0.500000
vt 0.500000 0.500000
vt 0.500000 1.000000
vt 0.416667 1.000000
vt 0.416667 0.500000
vt 0.250000 0.490000
vt 0.146077 0.430000
vt 0.198038 0.340000
vt 0.250000 0.370000
vt 0.333333 0.500000
vt 0.333333 1.000000
vt 0.250000 1.000000
vt 0.250000 0.500000
vt 0.166667 0.500000
vt 0.166667 1.000000
vt 0.083333 1.000000
vt 0.083333 0.500000
vt 0.457846 0.370000
vt 0.353923 0.310000
vt 0.353923 0.250000
vt 0.457846 0.250000
vt 0.457846 0.130000
vt 0.353923 0.190000
vt 0.301962 0.160000
vt 0.353923 0.070000
vt 0.250000 0.250000
vt 0.198038 0.160000
vt 0.250000 0.130000
vt 0.301962 0.340000
vt 0.042154 0.130000
vt 0.146077 0.190000
vt 0.146077 0.250000
vt 0.042154 0.250000
vt 0.833333 0.500000
vt 0.833333 1.000000
vt 0.146077 0.310000
vt 0.042154 0.370000
vt 0.250000 0.010000
vt 0.146077 0.070000
vt 0.353923 0.430000
vt -0.000000 1.000000
vt -0.000000 0.500000
s 0
f 260/358/180 266/359/180 281/360/180 283/361/180
f 273/362/181 274/363/181 268/364/181 262/365/181
f 262/365/182 268/364/182 278/366/182 279/367/182
f 263/368/183 269/369/183 280/370/183 282/371/183
f 266/372/184 277/373/184 288/374/184 292/375/184
f 264/376/185 270/377/185 276/378/185 275/379/185
f 265/380/186 271/381/186 277/382/186 296/383/186
f 267/384/187 295/385/187 285/386/187 274/387/187
f 268/388/188 293/389/188 284/390/188 278/391/188
f 272/392/189 286/393/189 291/394/189
f 272/392/190 295/385/190 289/395/190
f 270/396/191 287/397/191 290/398/191 276/399/191
f 261/400/181 267/401/181 274/363/181 273/362/181
f 274/387/192 285/386/192 293/389/192 268/388/192
f 275/379/185 276/378/185 271/381/185 265/380/185
f 276/399/193 290/398/193 294/402/193 271/403/193
f 278/391/194 284/390/194 291/394/194 269/404/194
f 272/392/195 288/374/195 294/402/195
f 279/367/182 278/366/182 269/369/182 263/368/182
f 280/405/196 286/393/196 287/397/196 270/396/196
f 281/406/197 266/372/197 292/375/197 289/395/197
f 283/361/180 281/360/180 267/401/180 261/400/180
f 282/371/183 280/370/183 270/377/183 264/376/183
f 293/389/198 285/386/198 272/392/198
f 292/375/199 288/374/199 272/392/199
f 294/402/200 290/398/200 272/392/200
f 285/386/201 295/385/201 272/392/201
f 294/402/202 288/374/202 277/373/202 271/403/202
f 284/390/203 293/389/203 272/392/203
f 290/398/204 287/397/204 272/392/204
f 291/394/196 286/393/196 280/405/196 269/404/196
f 291/394/205 284/390/205 272/392/205
f 287/397/189 286/393/189 272/392/189
f 289/395/206 295/385/206 267/384/206 281/406/206
f 289/395/207 292/375/207 272/392/207
f 296/383/186 277/382/186 266/407/186 260/408/186
o Terrain3.2
v -1.763107 -0.100000 -17.187374
v -0.897082 -0.100000 -16.687374
v -0.897082 -0.100000 -15.687374
v -1.763107 -0.100000 -15.187374
v -2.629133 -0.100000 -15.687374
v -2.629133 -0.100000 -16.687374
v -1.763107 0.100000 -17.187374
v -0.897082 0.100000 -16.687374
v -0.897082 0.100000 -15.687374
v -1.763107 0.100000 -15.187374
v -2.629133 0.100000 -15.687374
v -2.629133 0.100000 -16.687374
v -1.763107 0.259539 -16.187374
v -0.897082 -0.100000 -16.187374
v -0.897082 0.100000 -16.187374
v -2.629133 -0.100000 -16.187374
v -2.629133 0.350000 -16.187374
v -2.196120 0.100000 -16.937374
v -1.330094 0.350000 -15.437374
v -1.330094 -0.100000 -15.437374
v -2.196120 0.100000 -15.437374
v -1.330094 0.350000 -16.937374
v -2.196120 -0.100000 -15.437374
v -1.330094 -0.100000 -16.937374
v -1.546601 0.222075 -15.812374
v -1.330094 0.222075 -16.187374
v -1.979613 0.222075 -15.812374
v -2.196120 0.222075 -15.937374
v -1.979613 0.236413 -16.562374
v -1.546601 0.222075 -16.562374
v -2.196120 0.222075 -16.187374
v -1.763107 0.246353 -15.687374
v -1.763107 0.270816 -16.687374
v -1.330094 0.222075 -15.937374
v -2.196120 0.247636 -16.437374
v -1.330094 0.248638 -16.437374
v -2.196120 -0.100000 -16.937374
vn 0.5000 -0.0000 -0.8660
vn 1.0000 -0.0000 -0.0000
vn 0.5000 -0.0000 0.8660
vn -0.5000 -0.0000 0.8660
vn -0.2098 0.9376 -0.2773
vn -1.0000 -0.0000 -0.0000
vn -0.5000 -0.0000 -0.8660
vn 0.3070 0.9511 0.0337
vn 0.2239 0.9442 -0.2416
vn -0.1263 0.9916 0.0262
vn -0.0483 0.9907 -0.1269
vn 0.0972 0.9442 0.3147
vn 0.2713 0.9625 -0.0000
vn 0.0608 0.9562 -0.2862
vn -0.2804 0.9557 0.0895
vn 0.0121 0.9976 -0.0685
vn -0.1357 0.9625 0.2350
vn -0.2379 0.9655 -0.1062
vn 0.0862 0.9963 -0.0000
vn -0.1443 0.9893 0.0223
vn -0.0858 0.9911 0.1013
vn 0.0857 0.9907 0.1053
vn -0.1454 0.9489 -0.2802
vn 0.0431 0.9963 0.0747
vn -0.0862 0.9963 -0.0000
vn -0.1787 0.9522 0.2479
vn 0.1263 0.9916 0.0262
vn -0.0431 0.9963 0.0747
vn 0.2171 0.9567 0.1939
vn 0.2074 0.9780 0.0221
vt 1.000000 0.500000
vt 1.000000 1.000000
vt 0.916667 1.000000
vt 0.916667 0.500000
vt 0.750000 0.500000
vt 0.750000 1.000000
vt 0.666667 1.000000
vt 0.666667 0.500000
vt 0.583333 1.000000
vt 0.583333 0.500000
vt 0.500000 0.500000
vt 0.500000 1.000000
vt 0.416667 1.000000
vt 0.416667 0.500000
vt 0.250000 0.490000
vt 0.146077 0.430000
vt 0.198038 0.340000
vt 0.250000 0.370000
vt 0.333333 0.500000
vt 0.333333 1.000000
vt 0.250000 1.000000
vt 0.250000 0.500000
vt 0.166667 0.500000
vt 0.166667 1.000000
vt 0.083333 1.000000
vt 0.083333 0.500000
vt 0.457846 0.370000
vt 0.353923 0.310000
vt 0.353923 0.250000
vt 0.457846 0.250000
vt 0.457846 0.130000
vt 0.353923 0.190000
vt 0.301962 0.160000
vt 0.353923 0.070000
vt 0.250000 0.250000
vt 0.198038 0.160000
vt 0.250000 0.130000
vt 0.301962 0.340000
vt 0.042154 0.130000
vt 0.146077 0.190000
vt 0.146077 0.250000
vt 0.042154 0.250000
vt 0.833333 0.500000
vt 0.833333 1.000000
vt 0.146077 0.310000
vt 0.042154 0.370000
vt 0.250000 0.010000
vt 0.146077 0.070000
vt 0.353923 0.430000
vt -0.000000 1.000000
vt -0.000000 0.500000
s 0
f 297/409/208 303/410/208 318/411/208 320/412/208
f 310/413/209 311/414/209 305/415/209 299/416/209
f 299/416/210 305/415/210 315/417/210 316/418/210
f 300/419/211 306/420/211 317/421/211 319/422/211
f 303/423/212 314/424/212 325/425/212 329/426/212
f 301/427/213 307/428/213 313/429/213 312/430/213
f 302/431/214 308/432/214 314/433/214 333/434/214
f 304/435/215 332/436/215 322/437/215 311/438/215
f 305/439/216 330/440/216 321/441/216 315/442/216
f 309/443/217 323/444/217 328/445/217
f 309/443/218 332/436/218 326/446/218
f 307/447/219 324/448/219 327/449/219 313/450/219
f 298/451/209 304/452/209 311/414/209 310/413/209
f 311/438/220 322/437/220 330/440/220 305/439/220
f 312/430/213 313/429/213 308/432/213 302/431/213
f 313/450/221 327/449/221 331/453/221 308/454/221
f 315/442/222 321/441/222 328/445/222 306/455/222
f 309/443/223 325/425/223 331/453/223
f 316/418/210 315/417/210 306/420/210 300/419/210
f 317/456/224 323/444/224 324/448/224 307/447/224
f 318/457/225 303/423/225 329/426/225 326/446/225
f 320/412/208 318/411/208 304/452/208 298/451/208
f 319/422/211 317/421/211 307/428/211 301/427/211
f 330/440/226 322/437/226 309/443/226
f 329/426/227 325/425/227 309/443/227
f 331/453/228 327/449/228 309/443/228
f 322/437/229 332/436/229 309/443/229
f 331/453/230 325/425/230 314/424/230 308/454/230
f 321/441/231 330/440/231 309/443/231
f 327/449/232 324/448/232 309/443/232
f 328/445/233 323/444/233 317/456/233 306/455/233
f 328/445/234 321/441/234 309/443/234
f 324/448/235 323/444/235 309/443/235
f 326/446/236 332/436/236 304/435/236 318/457/236
f 326/446/237 329/426/237 309/443/237
f 333/434/214 314/433/214 303/458/214 297/459/214
o Terrain4.2
v -1.763107 -0.100000 -19.572691
v -0.897082 -0.100000 -19.072691
v -0.897082 -0.100000 -18.072691
v -1.763107 -0.100000 -17.572691
v -2.629133 -0.100000 -18.072691
v -2.629133 -0.100000 -19.072691
v -1.763107 0.100000 -19.572691
v -0.897082 0.600000 -19.072691
v -0.897082 0.100000 -18.072691
v -1.763107 0.100000 -17.572691
v -2.629133 0.600000 -18.072691
v -2.629133 0.100000 -19.072691
v -1.763107 0.332825 -18.572691
v -0.897082 -0.100000 -18.572691
v -0.897082 0.350000 -18.572691
v -2.629133 -0.100000 -18.572691
v -2.629133 0.350000 -18.572691
v -2.196120 0.100000 -19.322691
v -1.330094 0.100000 -17.822691
v -1.330094 -0.100000 -17.822691
v -2.196120 0.350000 -17.822691
v -1.330094 0.350000 -19.322691
v -2.196120 -0.100000 -17.822691
v -1.330094 -0.100000 -19.322691
v -1.546601 0.269127 -18.197691
v -1.330094 0.366808 -18.572691
v -1.979613 0.349733 -18.197691
v -2.196120 0.349733 -18.322691
v -1.979613 0.251434 -18.947691
v -1.546601 0.309318 -18.947691
v -2.196120 0.288859 -18.572691
v -1.763107 0.269127 -18.072691
v -1.763107 0.269127 -19.072691
v -1.330094 0.292092 -18.322691
v -2.196120 0.269127 -18.822691
v -1.330094 0.349733 -18.822691
v -2.196120 -0.100000 -19.322691
vn 0.5000 -0.0000 -0.8660
vn 1.0000 -0.0000 -0.0000
vn 0.5000 -0.0000 0.8660
vn -0.5000 -0.0000 0.8660
vn -0.1954 0.9355 -0.2944
vn -1.0000 -0.0000 -0.0000
vn -0.5000 -0.0000 -0.8660
vn -0.1693 0.9412 0.2923
vn 0.1715 0.9197 0.3533
vn 0.2841 0.9511 0.1212
vn -0.1113 0.9858 -0.1260
vn 0.2164 0.9019 -0.3738
vn 0.1061 0.9125 0.3951
vn -0.0196 0.9408 -0.3384
vn 0.1819 0.9315 0.3151
vn -0.0321 0.9804 -0.1943
vn 0.3595 0.9332 -0.0005
vn -0.2953 0.9321 -0.2099
vn -0.0750 0.9554 0.2855
vn -0.1522 0.9804 -0.1249
vn -0.1007 0.9918 -0.0783
vn -0.0781 0.9946 -0.0679
vn -0.1572 0.9355 -0.3164
vn -0.0059 0.9853 0.1708
vn -0.0982 0.9669 -0.2354
vn 0.3177 0.9133 0.2549
vn 0.0728 0.9894 0.1260
vn 0.0195 0.9992 -0.0338
vn -0.4084 0.9128 0.0005
vn -0.1105 0.9859 -0.1256
vt 1.000000 0.500000
vt 1.000000 1.000000
vt 0.916667 1.000000
vt 0.916667 0.500000
vt 0.750000 0.500000
vt 0.750000 1.000000
vt 0.666667 1.000000
vt 0.666667 0.500000
vt 0.583333 1.000000
vt 0.583333 0.500000
vt 0.500000 0.500000
vt 0.500000 1.000000
vt 0.416667 1.000000
vt 0.416667 0.500000
vt 0.250000 0.490000
vt 0.146077 0.430000
vt 0.198038 0.340000
vt 0.250000 0.370000
vt 0.333333 0.500000
vt 0.333333 1.000000
vt 0.250000 1.000000
vt 0.250000 0.500000
vt 0.166667 0.500000
vt 0.166667 1.000000
vt 0.083333 1.000000
vt 0.083333 0.500000
vt 0.457846 0.370000
vt 0.353923 0.310000
vt 0.353923 0.250000
vt 0.457846 0.250000
vt 0.457846 0.130000
vt 0.353923 0.190000
vt 0.301962 0.160000
vt 0.353923 0.070000
vt 0.250000 0.250000
vt 0.198038 0.160000
vt 0.250000 0.130000
vt 0.301962 0.340000
vt 0.042154 0.130000
vt 0.146077 0.190000
vt 0.146077 0.250000
vt 0.042154 0.250000
vt 0.833333 0.500000
vt 0.833333 1.000000
vt 0.146077 0.310000
vt 0.042154 0.370000
vt 0.250000 0.010000
vt 0.146077 0.070000
vt 0.353923 0.430000
vt -0.000000 1.000000
vt -0.000000 0.500000
s 0
f 334/460/238 340/461/238 355/462/238 357/463/238
f 347/464/239 348/465/239 342/466/239 336/467/239
f 336/467/240 342/466/240 352/468/240 353/469/240
f 337/470/241 343/471/241 354/472/241 356/473/241
f 340/474/242 351/475/242 362/476/242 366/477/242
f 338/478/243 344/479/243 350/480/243 349/481/243
f 339/482/244 345/483/244 351/484/244 370/485/244
f 341/486/245 369/487/245 359/488/245 348/489/245
f 342/490/246 367/491/246 358/492/246 352/493/246
f 346/494/247 360/495/247 365/496/247
f 346/494/248 369/487/248 363/497/248
f 344/498/249 361/499/249 364/500/249 350/501/249
f 335/502/239 341/503/239 348/465/239 347/464/239
f 348/489/250 359/488/250 367/491/250 342/490/250
f 349/481/243 350/480/243 345/483/243 339/482/243
f 350/501/251 364/500/251 368/504/251 345/505/251
f 352/493/252 358/492/252 365/496/252 343/506/252
f 346/494/253 362/476/253 368/504/253
f 353/469/240 352/468/240 343/471/240 337/470/240
f 354/507/254 360/495/254 361/499/254 344/498/254
f 355/508/255 340/474/255 366/477/255 363/497/255
f 357/463/238 355/462/238 341/503/238 335/502/238
f 356/473/241 354/472/241 344/479/241 338/478/241
f 367/491/256 359/488/256 346/494/256
f 366/477/257 362/476/257 346/494/257
f 368/504/258 364/500/258 346/494/258
f 359/488/259 369/487/259 346/494/259
f 368/504/260 362/476/260 351/475/260 345/505/260
f 358/492/261 367/491/261 346/494/261
f 364/500/262 361/499/262 346/494/262
f 365/496/263 360/495/263 354/507/263 343/506/263
f 365/496/264 358/492/264 346/494/264
f 361/499/265 360/495/265 346/494/265
f 363/497/266 369/487/266 341/486/266 355/508/266
f 363/497/267 366/477/267 346/494/267
f 370/485/244 351/484/244 340/509/244 334/510/244
o Terrain4
v -1.763107 -0.100000 -22.145828
v -0.897082 -0.100000 -21.645828
v -0.897082 -0.100000 -20.645828
v -1.763107 -0.100000 -20.145828
v -2.629133 -0.100000 -20.645828
v -2.629133 -0.100000 -21.645828
v -1.763107 0.600000 -22.145828
v -0.897082 0.600000 -21.645828
v -0.897082 0.600000 -20.645828
v -1.763107 0.100000 -20.145828
v -2.629133 0.100000 -20.645828
v -2.629133 0.100000 -21.645828
v -1.763107 0.344296 -21.145828
v -0.897082 -0.100000 -21.145828
v -0.897082 0.600000 -21.145828
v -2.629133 -0.100000 -21.145828
v -2.629133 0.100000 -21.145828
v -2.196120 0.350000 -21.895828
v -1.330094 0.350000 -20.395828
v -1.330094 -0.100000 -20.395828
v -2.196120 0.100000 -20.395828
v -1.330094 0.600000 -21.895828
v -2.196120 -0.100000 -20.395828
v -1.330094 -0.100000 -21.895828
v -1.546601 0.344296 -20.770828
v -1.330094 0.421561 -21.145828
v -1.979613 0.296278 -20.770828
v -2.196120 0.243369 -20.895828
v -1.979613 0.347622 -21.520828
v -1.546601 0.462137 -21.520828
v -2.196120 0.275109 -21.145828
v -1.763107 0.344296 -20.645828
v -1.763107 0.414109 -21.645828
v -1.330094 0.371528 -20.895828
v -2.196120 0.344296 -21.395828
v -1.330094 0.479806 -21.395828
v -2.196120 -0.100000 -21.895828
vn 0.5000 -0.0000 -0.8660
vn 1.0000 -0.0000 -0.0000
vn 0.5000 -0.0000 0.8660
vn -0.5000 -0.0000 0.8660
vn -0.2915 0.9178 0.2696
vn -1.0000 -0.0000 -0.0000
vn -0.5000 -0.0000 -0.8660
vn -0.3060 0.9492 0.0737
vn -0.3727 0.9271 0.0399
vn -0.2165 0.9763 -0.0000
vn -0.1899 0.9627 0.1929
vn -0.3347 0.9415 0.0398
vn -0.4386 0.8967 0.0598
vn -0.4534 0.8875 0.0819
vn -0.1861 0.9353 0.3011
vn -0.0077 0.9999 0.0133
vn -0.2310 0.9353 0.2682
vn -0.2338 0.9293 0.2860
vn -0.1723 0.9659 0.1933
vn -0.2189 0.9664 0.1349
vn -0.1522 0.9525 0.2636
vn -0.1712 0.9595 0.2236
vn -0.3580 0.9337 0.0107
vn -0.0938 0.9941 0.0541
vn -0.1566 0.9798 0.1244
vn -0.2818 0.8832 0.3750
vn -0.0000 1.0000 -0.0000
vn -0.2322 0.9726 -0.0095
vn -0.1593 0.9599 0.2307
vn -0.2869 0.9487 0.1325
vt 1.000000 0.500000
vt 1.000000 1.000000
vt 0.916667 1.000000
vt 0.916667 0.500000
vt 0.750000 0.500000
vt 0.750000 1.000000
vt 0.666667 1.000000
vt 0.666667 0.500000
vt 0.583333 1.000000
vt 0.583333 0.500000
vt 0.500000 0.500000
vt 0.500000 1.000000
vt 0.416667 1.000000
vt 0.416667 0.500000
vt 0.250000 0.490000
vt 0.146077 0.430000
vt 0.198038 0.340000
vt 0.250000 0.370000
vt 0.333333 0.500000
vt 0.333333 1.000000
vt 0.250000 1.000000
vt 0.250000 0.500000
vt 0.166667 0.500000
vt 0.166667 1.000000
vt 0.083333 1.000000
vt 0.083333 0.500000
vt 0.457846 0.370000
vt 0.353923 0.310000
vt 0.353923 0.250000
vt 0.457846 0.250000
vt 0.457846 0.130000
vt 0.353923 0.190000
vt 0.301962 0.160000
vt 0.353923 0.070000
vt 0.250000 0.250000
vt 0.198038 0.160000
vt 0.250000 0.130000
vt 0.301962 0.340000
vt 0.042154 0.130000
vt 0.146077 0.190000
vt 0.146077 0.250000
vt 0.042154 0.250000
vt 0.833333 0.500000
vt 0.833333 1.000000
vt 0.146077 0.310000
vt 0.042154 0.370000
vt 0.250000 0.010000
vt 0.146077 0.070000
vt 0.353923 0.430000
vt -0.000000 1.000000
vt -0.000000 0.500000
s 0
f 371/511/268 377/512/268 392/513/268 394/514/268
f 384/515/269 385/516/269 379/517/269 373/518/269
f 373/518/270 379/517/270 389/519/270 390/520/270
f 374/521/271 380/522/271 391/523/271 393/524/271
f 377/525/272 388/526/272 399/527/272 403/528/272
f 375/529/273 381/530/273 387/531/273 386/532/273
f 376/533/274 382/534/274 388/535/274 407/536/274
f 378/537/275 406/538/275 396/539/275 385/540/275
f 379/541/276 404/542/276 395/543/276 389/544/276
f 383/545/277 397/546/277 402/547/277
f 383/545/278 406/538/278 400/548/278
f 381/549/279 398/550/279 401/551/279 387/552/279
f 372/553/269 378/554/269 385/516/269 384/515/269
f 385/540/280 396/539/280 404/542/280 379/541/280
f 386/532/273 387/531/273 382/534/273 376/533/273
f 387/552/281 401/551/281 405/555/281 382/556/281
f 389/544/282 395/543/282 402/547/282 380/557/282
f 383/545/283 399/527/283 405/555/283
f 390/520/270 389/519/270 380/522/270 374/521/270
f 391/558/284 397/546/284 398/550/284 381/549/284
f 392/559/285 377/525/285 403/528/285 400/548/285
f 394/514/268 392/513/268 378/554/268 372/553/268
f 393/524/271 391/523/271 381/530/271 375/529/271
f 404/542/286 396/539/286 383/545/286
f 403/528/287 399/527/287 383/545/287
f 405/555/288 401/551/288 383/545/288
f 396/539/289 406/538/289 383/545/289
f 405/555/290 399/527/290 388/526/290 382/556/290
f 395/543/291 404/542/291 383/545/291
f 401/551/292 398/550/292 383/545/292
f 402/547/293 397/546/293 391/558/293 380/557/293
f 402/547/294 395/543/294 383/545/294
f 398/550/295 397/546/295 383/545/295
f 400/548/296 406/538/296 378/537/296 392/559/296
f 400/548/297 403/528/297 383/545/297
f 407/536/274 388/535/274 377/560/274 371/561/274
o Terrain5
v -1.763107 -0.100000 -24.660545
v -0.897082 -0.100000 -24.160545
v -0.897082 -0.100000 -23.160545
v -1.763107 -0.100000 -22.660545
v -2.629133 -0.100000 -23.160545
v -2.629133 -0.100000 -24.160545
v -1.763107 0.600000 -24.660545
v -0.897082 0.600000 -24.160545
v -0.897082 0.600000 -23.160545
v -1.763107 0.100000 -22.660545
v -2.629133 0.100000 -23.160545
v -2.629133 0.600000 -24.160545
v -1.763107 0.449628 -23.660545
v -0.897082 -0.100000 -23.660545
v -0.897082 0.600000 -23.660545
v -2.629133 -0.100000 -23.660545
v -2.629133 0.350000 -23.660545
v -2.196120 0.600000 -24.410545
v -1.330094 0.350000 -22.910545
v -1.330094 -0.100000 -22.910545
v -2.196120 0.100000 -22.910545
v -1.330094 0.600000 -24.410545
v -2.196120 -0.100000 -22.910545
v -1.330094 -0.100000 -24.410545
v -1.546601 0.390248 -23.285545
v -1.330094 0.469210 -23.660545
v -1.979613 0.353625 -23.285545
v -2.196120 0.390248 -23.410545
v -1.979613 0.469210 -24.035545
v -1.546601 0.469210 -24.035545
v -2.196120 0.420619 -23.660545
v -1.763107 0.390248 -23.160545
v -1.763107 0.495357 -24.160545
v -1.330094 0.438366 -23.410545
v -2.196120 0.463253 -23.910545
v -1.330094 0.469210 -23.910545
v -2.196120 -0.100000 -24.410545
vn 0.5000 -0.0000 -0.8660
vn 1.0000 -0.0000 -0.0000
vn 0.5000 -0.0000 0.8660
vn -0.5000 -0.0000 0.8660
vn 0.0974 0.9668 0.2361
vn -1.0000 -0.0000 -0.0000
vn -0.5000 -0.0000 -0.8660
vn -0.2891 0.9573 -0.0000
vn -0.3316 0.9290 0.1642
vn -0.2297 0.9665 0.1148
vn -0.0226 0.9990 0.0391
vn -0.2778 0.8998 0.3364
vn -0.3297 0.9433 0.0388
vn -0.0338 0.9311 0.3633
vn -0.1337 0.9157 0.3789
vn 0.0020 0.9987 0.0510
vn -0.2344 0.8408 0.4881
vn -0.0974 0.9668 0.2361
vn -0.0448 0.9915 0.1223
vn -0.0675 0.9936 0.0909
vn -0.0659 0.9836 0.1677
vn -0.0452 0.9990 -0.0000
vn 0.1420 0.9548 0.2611
vn -0.0955 0.9732 0.2092
vn -0.0664 0.9905 0.1203
vn -0.3055 0.8408 0.4470
vn 0.0679 0.9907 0.1177
vn 0.0155 0.9665 0.2564
vn -0.1446 0.9573 0.2504
vn 0.0675 0.9936 0.0909
vt 1.000000 0.500000
vt 1.000000 1.000000
vt 0.916667 1.000000
vt 0.916667 0.500000
vt 0.750000 0.500000
vt 0.750000 1.000000
vt 0.666667 1.000000
vt 0.666667 0.500000
vt 0.583333 1.000000
vt 0.583333 0.500000
vt 0.500000 0.500000
vt 0.500000 1.000000
vt 0.416667 1.000000
vt 0.416667 0.500000
vt 0.250000 0.490000
vt 0.146077 0.430000
vt 0.198038 0.340000
vt 0.250000 0.370000
vt 0.333333 0.500000
vt 0.333333 1.000000
vt 0.250000 1.000000
vt 0.250000 0.500000
vt 0.166667 0.500000
vt 0.166667 1.000000
vt 0.083333 1.000000
vt 0.083333 0.500000
vt 0.457846 0.370000
vt 0.353923 0.310000
vt 0.353923 0.250000
vt 0.457846 0.250000
vt 0.457846 0.130000
vt 0.353923 0.190000
vt 0.301962 0.160000
vt 0.353923 0.070000
vt 0.250000 0.250000
vt 0.198038 0.160000
vt 0.250000 0.130000
vt 0.301962 0.340000
vt 0.042154 0.130000
vt 0.146077 0.190000
vt 0.146077 0.250000
vt 0.042154 0.250000
vt 0.833333 0.500000
vt 0.833333 1.000000
vt 0.146077 0.310000
vt 0.042154 0.370000
vt 0.250000 0.010000
vt 0.146077 0.070000
vt 0.353923 0.430000
vt -0.000000 1.000000
vt -0.000000 0.500000
s 0
f 408/562/298 414/563/298 429/564/298 431/565/298
f 421/566/299 422/567/299 416/568/299 410/569/299
f 410/569/300 416/568/300 426/570/300 427/571/300
f 411/572/301 417/573/301 428/574/301 430/575/301
f 414/576/302 425/577/302 436/578/302 440/579/302
f 412/580/303 418/581/303 424/582/303 423/583/303
f 413/584/304 419/585/304 425/586/304 444/587/304
f 415/588/305 443/589/305 433/590/305 422/591/305
f 416/592/306 441/593/306 432/594/306 426/595/306
f 420/596/307 434/597/307 439/598/307
f 420/596/308 443/589/308 437/599/308
f 418/600/309 435/601/309 438/602/309 424/603/309
f 409/604/299 415/605/299 422/567/299 421/566/299
f 422/591/310 433/590/310 441/593/310 416/592/310
f 423/583/303 424/582/303 419/585/303 413/584/303
f 424/603/311 438/602/311 442/606/311 419/607/311
f 426/595/312 432/594/312 439/598/312 417/608/312
f 420/596/313 436/578/313 442/606/313
f 427/571/300 426/570/300 417/573/300 411/572/300
f 428/609/314 434/597/314 435/601/314 418/600/314
f 429/610/315 414/576/315 440/579/315 437/599/315
f 431/565/298 429/564/298 415/605/298 409/604/298
f 430/575/301 428/574/301 418/581/301 412/580/301
f 441/593/316 433/590/316 420/596/316
f 440/579/317 436/578/317 420/596/317
f 442/606/318 438/602/318 420/596/318
f 433/590/319 443/589/319 420/596/319
f 442/606/320 436/578/320 425/577/320 419/607/320
f 432/594/321 441/593/321 420/596/321
f 438/602/322 435/601/322 420/596/322
f 439/598/323 434/597/323 428/609/323 417/608/323
f 439/598/324 432/594/324 420/596/324
f 435/601/325 434/597/325 420/596/325
f 437/599/326 443/589/326 415/588/326 429/610/326
f 437/599/327 440/579/327 420/596/327
f 444/587/304 425/586/304 414/611/304 408/612/304
o Terrain6
v -1.763107 -0.100000 -27.537796
v -0.897082 -0.100000 -27.037796
v -0.897082 -0.100000 -26.037796
v -1.763107 -0.100000 -25.537796
v -2.629133 -0.100000 -26.037796
v -2.629133 -0.100000 -27.037796
v -1.763107 0.600000 -27.537796
v -0.897082 0.600000 -27.037796
v -0.897082 0.600000 -26.037796
v -1.763107 0.600000 -25.537796
v -2.629133 0.600000 -26.037796
v -2.629133 0.600000 -27.037796
v -1.763107 0.883498 -26.537796
v -0.897082 -0.100000 -26.537796
v -0.897082 0.600000 -26.537796
v -2.629133 -0.100000 -26.537796
v -2.629133 0.600000 -26.537796
v -2.196120 0.600000 -27.287796
v -1.330094 0.600000 -25.787796
v -1.330094 -0.100000 -25.787796
v -2.196120 0.600000 -25.787796
v -1.330094 0.600000 -27.287796
v -2.196120 -0.100000 -25.787796
v -1.330094 -0.100000 -27.287796
v -1.546601 0.732713 -26.162796
v -1.330094 0.693921 -26.537796
v -1.979613 0.724445 -26.162796
v -2.196120 0.718901 -26.287796
v -1.979613 0.742529 -26.912796
v -1.546601 0.693921 -26.912796
v -2.196120 0.693921 -26.537796
v -1.763107 0.724445 -26.037796
v -1.763107 0.693921 -27.037796
v -1.330094 0.771481 -26.287796
v -2.196120 0.742529 -26.787796
v -1.330094 0.732690 -26.787796
v -2.196120 -0.100000 -27.287796
vn 0.5000 -0.0000 -0.8660
vn 1.0000 -0.0000 -0.0000
vn 0.5000 -0.0000 0.8660
vn -0.5000 -0.0000 0.8660
vn -0.0687 0.9672 -0.2444
vn -1.0000 -0.0000 -0.0000
vn -0.5000 -0.0000 -0.8660
vn 0.2663 0.9626 0.0498
vn 0.1297 0.9379 0.3217
vn -0.1724 0.9387 0.2986
vn 0.0767 0.9069 -0.4142
vn -0.2473 0.9684 -0.0323
vn 0.3172 0.9433 -0.0976
vn -0.2795 0.9581 0.0621
vn 0.1318 0.9594 0.2494
vn -0.1548 0.9509 -0.2681
vn -0.1405 0.9632 0.2291
vn 0.1060 0.9773 -0.1836
vn 0.3858 0.8812 -0.2734
vn 0.0052 0.9350 -0.3545
vn -0.3948 0.9019 0.1753
vn 0.3971 0.9069 0.1406
vn -0.1563 0.9499 -0.2708
vn 0.0372 0.9344 0.3542
vn -0.3994 0.9122 -0.0912
vn -0.1381 0.9611 0.2392
vn 0.1373 0.9439 0.3003
vn -0.1904 0.9385 0.2881
vn 0.0900 0.9626 -0.2555
vn 0.2005 0.9161 -0.3473
vt 1.000000 0.500000
vt 1.000000 1.000000
vt 0.916667 1.000000
vt 0.916667 0.500000
vt 0.750000 0.500000
vt 0.750000 1.000000
vt 0.666667 1.000000
vt 0.666667 0.500000
vt 0.583333 1.000000
vt 0.583333 0.500000
vt 0.500000 0.500000
vt 0.500000 1.000000
vt 0.416667 1.000000
vt 0.416667 0.500000
vt 0.250000 0.490000
vt 0.146077 0.430000
vt 0.198038 0.340000
vt 0.250000 0.370000
vt 0.333333 0.500000
vt 0.333333 1.000000
vt 0.250000 1.000000
vt 0.250000 0.500000
vt 0.166667 0.500000
vt 0.166667 1.000000
vt 0.083333 1.000000
vt 0.083333 0.500000
vt 0.457846 0.370000
vt 0.353923 0.310000
vt 0.353923 0.250000
vt 0.457846 0.250000
vt 0.457846 0.130000
vt 0.353923 0.190000
vt 0.301962 0.160000
vt 0.353923 0.070000
vt 0.250000 0.250000
vt 0.198038 0.160000
vt 0.250000 0.130000
vt 0.301962 0.340000
vt 0.042154 0.130000
vt 0.146077 0.190000
vt 0.146077 0.250000
vt 0.042154 0.250000
vt 0.833333 0.500000
vt 0.833333 1.000000
vt 0.146077 0.310000
vt 0.042154 0.370000
vt 0.250000 0.010000
vt 0.146077 0.070000
vt 0.353923 0.430000
vt -0.000000 1.000000
vt -0.000000 0.500000
s 0
f 445/613/328 451/614/328 466/615/328 468/616/328
f 458/617/329 459/618/329 453/619/329 447/620/329
f 447/620/330 453/619/330 463/621/330 464/622/330
f 448/623/331 454/624/331 465/625/331 467/626/331
f 451/627/332 462/628/332 473/629/332 477/630/332
f 449/631/333 455/632/333 461/633/333 460/634/333
f 450/635/334 456/636/334 462/637/334 481/638/334
f 452/639/335 480/640/335 470/641/335 459/642/335
f 453/643/336 478/644/336 469/645/336 463/646/336
f 457/647/337 471/648/337 476/649/337
f 457/647/338 480/640/338 474/650/338
f 455/651/339 472/652/339 475/653/339 461/654/339
f 446/655/329 452/656/329 459/618/329 458/617/329
f 459/642/340 470/641/340 478/644/340 453/643/340
f 460/634/333 461/633/333 456/636/333 450/635/333
f 461/654/341 475/653/341 479/657/341 456/658/341
f 463/646/342 469/645/342 476/649/342 454/659/342
f 457/647/343 473/629/343 479/657/343
f 464/622/330 463/621/330 454/624/330 448/623/330
f 465/660/344 471/648/344 472/652/344 455/651/344
f 466/661/345 451/627/345 477/630/345 474/650/345
f 468/616/328 466/615/328 452/656/328 446/655/328
f 467/626/331 465/625/331 455/632/331 449/631/331
f 478/644/346 470/641/346 457/647/346
f 477/630/347 473/629/347 457/647/347
f 479/657/348 475/653/348 457/647/348
f 470/641/349 480/640/349 457/647/349
f 479/657/350 473/629/350 462/628/350 456/658/350
f 469/645/351 478/644/351 457/647/351
f 475/653/352 472/652/352 457/647/352
f 476/649/353 471/648/353 465/660/353 454/659/353
f 476/649/354 469/645/354 457/647/354
f 472/652/355 471/648/355 457/647/355
f 474/650/356 480/640/356 452/639/356 466/661/356
f 474/650/357 477/630/357 457/647/357
f 481/638/334 462/637/334 451/662/334 445/663/334
