# Blender 4.5.10 LTS
# www.blender.org
mtllib Terrain0.mtl
o Terrain0
v 0.000000 0.000000 -1.000000
v 0.866025 0.000000 -0.500000
v 0.866025 0.000000 0.500000
v 0.000000 0.000000 1.000000
v -0.866025 0.000000 0.500000
v -0.866025 0.000000 -0.500000
v 0.000000 0.034264 -1.000000
v 0.866025 0.034264 -0.500000
v 0.866025 0.034264 0.500000
v 0.000000 0.034264 1.000000
v -0.866025 0.034264 0.500000
v -0.866025 0.034264 -0.500000
v 0.000000 0.467290 0.000000
v 0.866025 0.000000 0.000000
v 0.866025 0.034264 0.000000
v -0.866025 0.000000 0.000000
v -0.866025 0.034264 0.000000
v -0.433013 0.034264 -0.750000
v 0.433013 0.034264 0.750000
v 0.433013 0.000000 0.750000
v -0.433013 0.034264 0.750000
v 0.433013 0.034264 -0.750000
v -0.433013 0.000000 0.750000
v 0.433013 0.000000 -0.750000
v 0.216506 0.369184 0.375000
v 0.433013 0.324958 0.000000
v -0.216506 0.324958 0.375000
v -0.433013 0.324958 0.250000
v -0.216506 0.324958 -0.375000
v 0.216506 0.260813 -0.375000
v -0.433013 0.353591 0.000000
v 0.000000 0.324958 0.500000
v 0.000000 0.236685 -0.500000
v 0.573894 0.324958 0.250000
v -0.433013 0.324958 -0.250000
v 0.433013 0.292058 -0.250000
v -0.433013 0.000000 -0.750000
vn -0.0000 -0.0000 -1.0000
vn 0.8660 -0.0000 -0.5000
vn 0.8660 -0.0000 0.5000
vn -0.0000 -0.0000 1.0000
vn -0.8660 -0.0000 0.5000
vn -0.8660 -0.0000 -0.5000
vn 0.0255 0.7175 -0.6961
vn 0.6208 0.6817 -0.3872
vn 0.7227 0.5748 0.3838
vn -0.0158 0.6254 0.7802
vn -0.6672 0.6302 0.3971
vn -0.6672 0.6302 -0.3971
vn -0.0003 1.0000 -0.0056
vn 1.0000 -0.0000 -0.0000
vn 0.8227 0.5661 -0.0525
vn -1.0000 -0.0000 -0.0000
vn -0.8127 0.5826 -0.0000
vn -0.3493 0.6369 -0.6873
vn 0.3978 0.5552 0.7304
vn 0.5000 -0.0000 0.8660
vn -0.4018 0.5952 0.6959
vn 0.3421 0.6855 -0.6427
vn -0.5000 -0.0000 0.8660
vn 0.5000 -0.0000 -0.8660
vn 0.0957 0.9645 0.2463
vn 0.3811 0.9149 -0.1332
vn -0.2028 0.9140 0.3513
vn -0.3389 0.9140 0.2228
vn -0.0590 0.9193 -0.3890
vn 0.1721 0.8885 -0.4253
vn -0.2991 0.9542 -0.0000
vn -0.0320 0.9080 0.4178
vn 0.0368 0.9017 -0.4308
vn 0.3827 0.9131 0.1403
vn -0.3389 0.9140 -0.2228
vn 0.3142 0.9137 -0.2578
vn -0.5000 -0.0000 -0.8660
vt 0.992746 0.009202
vt 0.992746 0.053001
vt 0.869560 0.053001
vt 0.869560 0.009202
vt 0.500000 0.009202
vt 0.500000 0.053001
vt 0.253627 0.053001
vt 0.253627 0.009202
vt 0.130441 0.053001
vt 0.130441 0.009202
vt 0.007254 0.009202
vt 0.007254 0.053001
vt 0.684780 0.424582
vt 0.746373 0.311745
vt 0.746373 0.009202
vt 0.746373 0.053001
vt 0.623186 0.382527
vt 0.500000 0.424582
vt 0.376813 0.424582
vt 0.315220 0.481113
vt 0.500000 0.606519
vt 0.315220 0.424582
vt 0.253627 0.424582
vt 0.684780 0.342588
vt 0.500000 0.461181
vt 0.623186 0.424582
s 1
f 1/1/1 7/2/7 22/3/22 24/4/24
f 14/5/14 15/6/15 9/7/9 3/8/3
f 3/8/3 9/7/9 19/9/19 20/10/20
f 4/11/4 10/12/10 21/9/21 23/10/23
f 7/2/7 18/3/18 29/13/29 33/14/33
f 5/8/5 11/7/11 17/6/17 16/5/16
f 6/15/6 12/16/12 18/3/18 37/4/37
f 8/16/8 36/17/36 26/18/26 15/6/15
f 9/7/9 34/19/34 25/20/25 19/9/19
f 13/21/13 27/22/27 32/23/32
f 13/21/13 36/17/36 30/24/30
f 11/7/11 28/19/28 31/25/31 17/6/17
f 2/15/2 8/16/8 15/6/15 14/5/14
f 15/6/15 26/18/26 34/19/34 9/7/9
f 16/5/16 17/6/17 12/16/12 6/15/6
f 17/6/17 31/25/31 35/26/35 12/16/12
f 19/9/19 25/20/25 32/23/32 10/12/10
f 13/21/13 29/13/29 35/26/35
f 20/10/20 19/9/19 10/12/10 4/11/4
f 21/9/21 27/22/27 28/19/28 11/7/11
f 22/3/22 7/2/7 33/14/33 30/24/30
f 24/4/24 22/3/22 8/16/8 2/15/2
f 23/10/23 21/9/21 11/7/11 5/8/5
f 34/19/34 26/18/26 13/21/13
f 33/14/33 29/13/29 13/21/13
f 35/26/35 31/25/31 13/21/13
f 26/18/26 36/17/36 13/21/13
f 35/26/35 29/13/29 18/3/18 12/16/12
f 25/20/25 34/19/34 13/21/13
f 31/25/31 28/19/28 13/21/13
f 32/23/32 27/22/27 21/9/21 10/12/10
f 32/23/32 25/20/25 13/21/13
f 28/19/28 27/22/27 13/21/13
f 30/24/30 36/17/36 8/16/8 22/3/22
f 30/24/30 33/14/33 13/21/13
f 37/4/37 18/3/18 7/2/7 1/1/1
