# Blender 4.5.10 LTS
# www.blender.org
mtllib Terrain4.2.mtl
o Terrain4.2
v 0.000000 0.000000 -1.000000
v 0.866025 0.000000 -0.500000
v 0.866025 0.000000 0.500000
v 0.000000 0.000000 1.000000
v -0.866025 0.000000 0.500000
v -0.866025 0.000000 -0.500000
v 0.000000 0.200000 -1.000000
v 0.866025 0.700000 -0.500000
v 0.866025 0.200000 0.500000
v 0.000000 0.200000 1.000000
v -0.866025 0.700000 0.500000
v -0.866025 0.200000 -0.500000
v 0.000000 0.432825 0.000000
v 0.866025 0.000000 0.000000
v 0.866025 0.450000 0.000000
v -0.866025 0.000000 0.000000
v -0.866025 0.450000 0.000000
v -0.372784 0.022660 -0.758281
v 0.433013 0.022660 0.750000
v 0.433013 0.000000 0.750000
v -0.433013 0.450000 0.750000
v 0.433013 0.450000 -0.750000
v -0.433013 0.000000 0.750000
v 0.433013 0.000000 -0.750000
v 0.185693 0.369127 0.287715
v 0.433013 0.466808 0.000000
v -0.216506 0.449733 0.375000
v -0.433013 0.449733 0.250000
v -0.216506 0.228537 -0.375000
v 0.216506 0.409318 -0.375000
v -0.433013 0.388858 0.000000
v 0.000000 0.369127 0.500000
v 0.000000 0.246230 -0.500000
v 0.402199 0.392092 0.162715
v -0.433013 0.246230 -0.250000
v 0.433013 0.449733 -0.250000
v -0.433013 0.000000 -0.750000
vn -0.0228 0.0669 -0.9975
vn 0.8660 -0.0000 -0.5000
vn 0.8660 -0.0000 0.5000
vn -0.0000 -0.0000 1.0000
vn -0.8660 -0.0000 0.5000
vn -0.8553 0.0545 -0.5153
vn -0.1910 0.8092 -0.5556
vn 0.0101 0.9999 -0.0074
vn 0.5112 0.7160 0.4754
vn 0.1657 0.6917 0.7030
vn -0.0109 0.9999 0.0049
vn -0.3652 0.8338 -0.4139
vn -0.0291 0.9993 -0.0251
vn 1.0000 -0.0000 -0.0000
vn 0.3376 0.8712 0.3563
vn -1.0000 -0.0000 -0.0000
vn -0.2448 0.8892 -0.3864
vn -0.4809 0.3128 -0.8191
vn 0.4957 0.1470 0.8560
vn 0.5000 -0.0000 0.8660
vn 0.1377 0.8868 0.4411
vn -0.2036 0.8922 -0.4032
vn -0.5000 -0.0000 0.8660
vn 0.5000 -0.0000 -0.8660
vn 0.1424 0.9529 0.2677
vn -0.0808 0.9843 0.1572
vn 0.1571 0.9869 0.0355
vn 0.1157 0.9818 -0.1506
vn -0.1887 0.9260 -0.3269
vn -0.3382 0.9285 -0.1533
vn 0.0276 0.9080 -0.4181
vn 0.2932 0.9314 0.2156
vn -0.3896 0.8937 -0.2224
vn 0.0192 0.9366 0.3499
vn 0.0060 0.9037 -0.4280
vn -0.1872 0.9822 -0.0169
vn -0.4955 0.1019 -0.8626
vt 0.992746 0.009202
vt 0.992746 0.264853
vt 0.869560 0.584417
vt 0.869560 0.009202
vt 0.500000 0.009202
vt 0.500000 0.584417
vt 0.253627 0.264853
vt 0.253627 0.009202
vt 0.130441 0.038167
vt 0.130441 0.009202
vt 0.007254 0.009202
vt 0.007254 0.264853
vt 0.130441 0.584417
vt 0.873640 0.038167
vt 0.684780 0.301330
vt 0.746373 0.323946
vt 0.253627 0.903980
vt 0.746373 0.009202
vt 0.746373 0.264853
vt 0.746373 0.903980
vt 0.623186 0.584076
vt 0.500000 0.605902
vt 0.419823 0.510396
vt 0.358230 0.481041
vt 0.500000 0.562463
vt 0.315220 0.584076
vt 0.253627 0.481041
vt 0.684780 0.532415
vt 0.376813 0.584076
vt 0.500000 0.506262
vt 0.623186 0.323946
s 1
f 1/1/1 7/2/7 22/3/22 24/4/24
f 14/5/14 15/6/15 9/7/9 3/8/3
f 3/8/3 9/7/9 19/9/19 20/10/20
f 4/11/4 10/12/10 21/13/21 23/10/23
f 7/2/7 18/14/18 29/15/29 33/16/33
f 5/8/5 11/17/11 17/6/17 16/5/16
f 6/18/6 12/19/12 18/14/18 37/4/37
f 8/20/8 36/21/36 26/22/26 15/6/15
f 9/7/9 34/23/34 25/24/25 19/9/19
f 13/25/13 27/26/27 32/27/32
f 13/25/13 36/21/36 30/28/30
f 11/17/11 28/29/28 31/30/31 17/6/17
f 2/18/2 8/20/8 15/6/15 14/5/14
f 15/6/15 26/22/26 34/23/34 9/7/9
f 16/5/16 17/6/17 12/19/12 6/18/6
f 17/6/17 31/30/31 35/31/35 12/19/12
f 19/9/19 25/24/25 32/27/32 10/12/10
f 13/25/13 29/15/29 35/31/35
f 20/10/20 19/9/19 10/12/10 4/11/4
f 21/13/21 27/26/27 28/29/28 11/17/11
f 22/3/22 7/2/7 33/16/33 30/28/30
f 24/4/24 22/3/22 8/20/8 2/18/2
f 23/10/23 21/13/21 11/17/11 5/8/5
f 34/23/34 26/22/26 13/25/13
f 33/16/33 29/15/29 13/25/13
f 35/31/35 31/30/31 13/25/13
f 26/22/26 36/21/36 13/25/13
f 35/31/35 29/15/29 18/14/18 12/19/12
f 25/24/25 34/23/34 13/25/13
f 31/30/31 28/29/28 13/25/13
f 32/27/32 27/26/27 21/13/21 10/12/10
f 32/27/32 25/24/25 13/25/13
f 28/29/28 27/26/27 13/25/13
f 30/28/30 36/21/36 8/20/8 22/3/22
f 30/28/30 33/16/33 13/25/13
f 37/4/37 18/14/18 7/2/7 1/1/1
