# Blender 4.5.10 LTS
# www.blender.org
mtllib Terrain6.mtl
o Terrain6
v 0.000000 0.000000 -1.000000
v 0.866025 0.000000 -0.500000
v 0.866025 0.000000 0.500000
v 0.000000 0.000000 1.000000
v -0.866025 0.000000 0.500000
v -0.866025 0.000000 -0.500000
v 0.000000 0.700000 -1.000000
v 0.866025 0.700000 -0.500000
v 0.866025 0.700000 0.500000
v 0.000000 0.700000 1.000000
v -0.866025 0.700000 0.500000
v -0.866025 0.700000 -0.500000
v -0.004704 0.766835 0.061867
v 0.866025 0.000000 0.000000
v 0.866025 0.700000 0.000000
v -0.866025 0.000000 0.000000
v -0.866025 0.700000 0.000000
v -0.433013 0.700000 -0.750000
v 0.433013 0.700000 0.750000
v 0.433013 0.000000 0.750000
v -0.433013 0.700000 0.750000
v 0.433013 0.700000 -0.750000
v -0.433013 0.000000 0.750000
v 0.433013 0.000000 -0.750000
v 0.216506 0.758103 0.375000
v 0.433013 0.719311 0.000000
v -0.216506 0.749835 0.375000
v -0.433013 0.744291 0.250000
v -0.216506 0.767919 -0.375000
v 0.216506 0.719311 -0.375000
v -0.433013 0.719311 0.000000
v 0.000000 0.749835 0.500000
v 0.000000 0.719311 -0.500000
v 0.433013 0.746535 0.250000
v -0.433013 0.767919 -0.250000
v 0.433013 0.758080 -0.250000
v -0.433013 0.000000 -0.750000
vn -0.0000 -0.0000 -1.0000
vn 0.8660 -0.0000 -0.5000
vn 0.8660 -0.0000 0.5000
vn -0.0000 -0.0000 1.0000
vn -0.8660 -0.0000 0.5000
vn -0.8660 -0.0000 -0.5000
vn 0.0187 0.9759 -0.2174
vn 0.1965 0.9739 -0.1135
vn 0.2160 0.9708 0.1040
vn -0.0039 0.9631 0.2692
vn -0.2052 0.9734 0.1024
vn -0.2535 0.9598 -0.1204
vn 0.0054 1.0000 -0.0009
vn 1.0000 -0.0000 -0.0000
vn 0.2331 0.9724 0.0051
vn -1.0000 -0.0000 -0.0000
vn -0.2413 0.9704 0.0099
vn -0.1032 0.9630 -0.2490
vn 0.1345 0.9642 0.2284
vn 0.5000 -0.0000 0.8660
vn -0.1290 0.9678 0.2161
vn 0.0785 0.9809 -0.1781
vn -0.5000 -0.0000 0.8660
vn 0.5000 -0.0000 -0.8660
vn 0.0333 0.9984 0.0456
vn 0.0985 0.9951 0.0067
vn -0.0428 0.9974 0.0574
vn -0.0698 0.9975 0.0049
vn 0.0197 0.9978 -0.0626
vn 0.0132 0.9963 -0.0853
vn -0.1025 0.9947 0.0121
vn -0.0086 0.9970 0.0774
vn 0.0360 0.9968 -0.0713
vn 0.0756 0.9971 -0.0014
vn -0.0663 0.9978 -0.0006
vn 0.0343 0.9992 -0.0224
vn -0.5000 -0.0000 -0.8660
vt 0.992746 0.009202
vt 0.992746 0.903980
vt 0.869560 0.903980
vt 0.869560 0.009202
vt 0.500000 0.009202
vt 0.500000 0.903980
vt 0.253627 0.903980
vt 0.253627 0.009202
vt 0.130441 0.903980
vt 0.130441 0.009202
vt 0.007254 0.009202
vt 0.007254 0.903980
vt 0.684780 0.990798
vt 0.746373 0.928665
vt 0.746373 0.009202
vt 0.746373 0.903980
vt 0.623186 0.978221
vt 0.500000 0.928665
vt 0.376813 0.963465
vt 0.315220 0.978250
vt 0.469516 0.989413
vt 0.315220 0.967683
vt 0.253627 0.967683
vt 0.684780 0.928665
vt 0.376813 0.960596
vt 0.623186 0.990798
s 1
f 1/1/1 7/2/7 22/3/22 24/4/24
f 14/5/14 15/6/15 9/7/9 3/8/3
f 3/8/3 9/7/9 19/9/19 20/10/20
f 4/11/4 10/12/10 21/9/21 23/10/23
f 7/2/7 18/3/18 29/13/29 33/14/33
f 5/8/5 11/7/11 17/6/17 16/5/16
f 6/15/6 12/16/12 18/3/18 37/4/37
f 8/16/8 36/17/36 26/18/26 15/6/15
f 9/7/9 34/19/34 25/20/25 19/9/19
f 13/21/13 27/22/27 32/23/32
f 13/21/13 36/17/36 30/24/30
f 11/7/11 28/25/28 31/18/31 17/6/17
f 2/15/2 8/16/8 15/6/15 14/5/14
f 15/6/15 26/18/26 34/19/34 9/7/9
f 16/5/16 17/6/17 12/16/12 6/15/6
f 17/6/17 31/18/31 35/26/35 12/16/12
f 19/9/19 25/20/25 32/23/32 10/12/10
f 13/21/13 29/13/29 35/26/35
f 20/10/20 19/9/19 10/12/10 4/11/4
f 21/9/21 27/22/27 28/25/28 11/7/11
f 22/3/22 7/2/7 33/14/33 30/24/30
f 24/4/24 22/3/22 8/16/8 2/15/2
f 23/10/23 21/9/21 11/7/11 5/8/5
f 34/19/34 26/18/26 13/21/13
f 33/14/33 29/13/29 13/21/13
f 35/26/35 31/18/31 13/21/13
f 26/18/26 36/17/36 13/21/13
f 35/26/35 29/13/29 18/3/18 12/16/12
f 25/20/25 34/19/34 13/21/13
f 31/18/31 28/25/28 13/21/13
f 32/23/32 27/22/27 21/9/21 10/12/10
f 32/23/32 25/20/25 13/21/13
f 28/25/28 27/22/27 13/21/13
f 30/24/30 36/17/36 8/16/8 22/3/22
f 30/24/30 33/14/33 13/21/13
f 37/4/37 18/3/18 7/2/7 1/1/1
