# Blender 4.5.10 LTS
# www.blender.org
mtllib Terrain1.mtl
o Terrain1
v 0.000000 0.000000 -1.000000
v 0.866025 0.000000 -0.500000
v 0.866025 0.000000 0.500000
v 0.000000 0.000000 1.000000
v -0.623740 0.000000 0.143113
v -0.866025 0.000000 -0.500000
v 0.000000 0.200000 -1.000000
v 0.866025 0.200000 -0.500000
v 0.751627 0.075274 0.333352
v 0.000000 0.078579 1.000000
v -0.623740 0.078579 0.143113
v -0.866025 0.089140 -0.500000
v 0.000000 0.073141 0.000000
v 0.866025 0.000000 0.000000
v 0.698073 0.101621 0.000000
v -0.866025 0.000000 0.000000
v -0.866025 0.078579 0.000000
v -0.294978 0.100806 -0.602913
v 0.433013 0.075274 0.750000
v 0.433013 0.000000 0.750000
v -0.433013 0.078579 0.750000
v 0.433013 0.450000 -0.750000
v -0.433013 0.000000 0.750000
v 0.433013 0.000000 -0.750000
v 0.216506 0.075274 0.375000
v 0.433013 0.131162 0.000000
v -0.250728 0.078579 0.449717
v -0.474941 0.078579 0.281680
v -0.216506 0.166249 -0.375000
v 0.216506 0.270982 -0.375000
v -0.433013 0.027456 0.000000
v 0.000000 0.078579 0.500000
v 0.000000 0.239605 -0.500000
v 0.433013 0.075274 0.250000
v -0.433013 0.061146 -0.250000
v 0.433013 0.218531 -0.250000
v -0.433013 0.000000 -0.750000
vn -0.0599 0.3582 -0.9317
vn 0.8541 0.3004 -0.4246
vn 0.4524 0.8350 0.3132
vn -0.0000 -0.0000 1.0000
vn -0.7833 -0.0000 0.6217
vn -0.7888 0.4427 -0.4263
vn -0.1467 0.6691 -0.7286
vn 0.7108 0.6621 -0.2375
vn 0.3281 0.9370 0.1198
vn 0.0018 0.6111 0.7915
vn -0.4697 0.8234 0.3184
vn -0.5441 0.7947 -0.2691
vn -0.0999 0.9822 0.1591
vn 0.7215 0.6858 0.0951
vn 0.3900 0.9051 0.1696
vn -0.8685 -0.0000 0.4957
vn -0.6623 0.6303 0.4050
vn -0.3751 0.8825 -0.2836
vn 0.3022 0.8469 0.4375
vn 0.5041 0.4488 0.7379
vn -0.6034 0.6338 0.4839
vn 0.2632 0.8600 -0.4372
vn -0.7802 -0.0000 0.6256
vn 0.5000 -0.0000 -0.8660
vn 0.0039 1.0000 -0.0043
vn -0.0151 0.9702 0.2417
vn 0.0019 1.0000 -0.0041
vn 0.0067 0.9982 -0.0590
vn -0.2247 0.9601 0.1665
vn -0.1510 0.9383 0.3110
vn -0.0068 0.9989 -0.0455
vn 0.0049 1.0000 -0.0049
vn -0.3531 0.9312 0.0903
vn -0.0135 0.9970 0.0758
vn -0.0756 0.9892 0.1253
vn 0.0854 0.9277 0.3634
vn -0.4035 0.6489 -0.6451
vt 0.992746 0.009202
vt 0.992746 0.264853
vt 0.869560 0.584417
vt 0.869560 0.009202
vt 0.500000 0.009202
vt 0.500000 0.139100
vt 0.335742 0.105421
vt 0.253627 0.009202
vt 0.130441 0.105421
vt 0.130441 0.009202
vt 0.007254 0.009202
vt 0.007254 0.109646
vt 0.130441 0.109646
vt 0.797083 0.138058
vt 0.684780 0.221710
vt 0.746373 0.315478
vt 0.429482 0.009202
vt 0.429482 0.109646
vt 0.500000 0.109646
vt 0.746373 0.009202
vt 0.746373 0.123146
vt 0.746373 0.264853
vt 0.623186 0.288541
vt 0.500000 0.176861
vt 0.376813 0.105421
vt 0.315220 0.105421
vt 0.500000 0.102695
vt 0.278404 0.109646
vt 0.253627 0.109646
vt 0.684780 0.355586
vt 0.361203 0.109646
vt 0.500000 0.044298
vt 0.623186 0.087362
s 1
usemtl TestMaterial
f 1/1/1 7/2/7 22/3/22 24/4/24
f 14/5/14 15/6/15 9/7/9 3/8/3
f 3/8/3 9/7/9 19/9/19 20/10/20
f 4/11/4 10/12/10 21/13/21 23/10/23
f 7/2/7 18/14/18 29/15/29 33/16/33
f 5/17/5 11/18/11 17/19/17 16/5/16
f 6/20/6 12/21/12 18/14/18 37/4/37
f 8/22/8 36/23/36 26/24/26 15/6/15
f 9/7/9 34/25/34 25/26/25 19/9/19
f 13/27/13 27/28/27 32/29/32
f 13/27/13 36/23/36 30/30/30
f 11/18/11 28/31/28 31/32/31 17/19/17
f 2/20/2 8/22/8 15/6/15 14/5/14
f 15/6/15 26/24/26 34/25/34 9/7/9
f 16/5/16 17/19/17 12/21/12 6/20/6
f 17/19/17 31/32/31 35/33/35 12/21/12
f 19/9/19 25/26/25 32/29/32 10/12/10
f 13/27/13 29/15/29 35/33/35
f 20/10/20 19/9/19 10/12/10 4/11/4
f 21/13/21 27/28/27 28/31/28 11/18/11
f 22/3/22 7/2/7 33/16/33 30/30/30
f 24/4/24 22/3/22 8/22/8 2/20/2
f 23/10/23 21/13/21 11/18/11 5/17/5
f 34/25/34 26/24/26 13/27/13
f 33/16/33 29/15/29 13/27/13
f 35/33/35 31/32/31 13/27/13
f 26/24/26 36/23/36 13/27/13
f 35/33/35 29/15/29 18/14/18 12/21/12
f 25/26/25 34/25/34 13/27/13
f 31/32/31 28/31/28 13/27/13
f 32/29/32 27/28/27 21/13/21 10/12/10
f 32/29/32 25/26/25 13/27/13
f 28/31/28 27/28/27 13/27/13
f 30/30/30 36/23/36 8/22/8 22/3/22
f 30/30/30 33/16/33 13/27/13
f 37/4/37 18/14/18 7/2/7 1/1/1
