# Blender 4.5.10 LTS
# www.blender.org
mtllib Terrain3.2.mtl
o Terrain3.2
v 0.000000 0.000000 -1.000000
v 0.866025 0.000000 -0.500000
v 0.866025 0.000000 0.500000
v 0.000000 0.000000 1.000000
v -0.866025 0.000000 0.500000
v -0.866025 0.000000 -0.500000
v 0.000000 0.200000 -1.000000
v 0.866025 0.200000 -0.500000
v 0.866025 0.200000 0.500000
v 0.000000 0.200000 1.000000
v -0.866025 0.200000 0.500000
v -0.866025 0.200000 -0.500000
v 0.000000 0.307541 0.000000
v 0.866025 0.000000 0.000000
v 0.866025 0.028392 0.000000
v -0.866025 0.000000 0.000000
v -0.866025 0.450000 0.000000
v -0.433013 0.028392 -0.750000
v 0.433013 0.450000 0.750000
v 0.433013 0.000000 0.750000
v -0.433013 0.028392 0.750000
v 0.433013 0.450000 -0.750000
v -0.433013 0.000000 0.750000
v 0.433013 0.000000 -0.750000
v 0.216506 0.322075 0.375000
v 0.433013 0.203443 0.000000
v -0.216506 0.203443 0.375000
v -0.433013 0.306639 0.250000
v -0.216506 0.265751 -0.375000
v 0.216506 0.308934 -0.375000
v -0.433013 0.322075 0.000000
v 0.000000 0.227721 0.500000
v 0.000000 0.256444 -0.500000
v 0.433013 0.322075 0.250000
v -0.433013 0.276973 -0.250000
v 0.433013 0.273081 -0.250000
v -0.433013 0.000000 -0.750000
vn -0.0000 -0.0000 -1.0000
vn 0.8660 -0.0000 -0.5000
vn 0.8660 -0.0000 0.5000
vn -0.0000 -0.0000 1.0000
vn -0.8660 -0.0000 0.5000
vn -0.8660 -0.0000 -0.5000
vn -0.1567 0.8313 -0.5332
vn 0.5423 0.8355 -0.0889
vn 0.6002 0.7930 0.1044
vn -0.1857 0.8659 0.4646
vn -0.3791 0.8055 0.4556
vn -0.4045 0.8118 -0.4212
vn 0.0054 0.9999 -0.0111
vn 1.0000 -0.0000 -0.0000
vn 0.9778 0.2095 -0.0003
vn -1.0000 -0.0000 -0.0000
vn -0.0667 0.9978 0.0037
vn -0.4877 0.2138 -0.8465
vn 0.0413 0.9980 0.0480
vn 0.5000 -0.0000 0.8660
vn -0.4851 0.2378 0.8415
vn 0.0267 0.9988 -0.0419
vn -0.5000 -0.0000 0.8660
vn 0.5000 -0.0000 -0.8660
vn -0.1083 0.9935 -0.0343
vn 0.3580 0.9337 -0.0068
vn -0.1332 0.9490 0.2858
vn 0.0951 0.9693 0.2269
vn -0.0466 0.9845 -0.1690
vn -0.0503 0.9962 0.0706
vn 0.0785 0.9966 -0.0268
vn -0.3167 0.9420 0.1108
vn -0.2421 0.9643 -0.1073
vn 0.1034 0.9819 -0.1584
vn 0.0455 0.9700 -0.2388
vn 0.2093 0.9477 0.2411
vn -0.5000 -0.0000 -0.8660
vt 0.992746 0.009202
vt 0.992746 0.264853
vt 0.869560 0.584417
vt 0.869560 0.009202
vt 0.500000 0.009202
vt 0.500000 0.045494
vt 0.253627 0.264853
vt 0.253627 0.009202
vt 0.130441 0.584417
vt 0.130441 0.009202
vt 0.007254 0.009202
vt 0.007254 0.264853
vt 0.130441 0.045494
vt 0.869560 0.045494
vt 0.684780 0.348899
vt 0.746373 0.337002
vt 0.500000 0.584417
vt 0.746373 0.009202
vt 0.746373 0.264853
vt 0.623186 0.358269
vt 0.500000 0.269254
vt 0.376813 0.420896
vt 0.315220 0.420896
vt 0.500000 0.402318
vt 0.315220 0.269254
vt 0.253627 0.300288
vt 0.684780 0.404099
vt 0.376813 0.401164
vt 0.500000 0.420896
vt 0.623186 0.363244
s 1
f 1/1/1 7/2/7 22/3/22 24/4/24
f 14/5/14 15/6/15 9/7/9 3/8/3
f 3/8/3 9/7/9 19/9/19 20/10/20
f 4/11/4 10/12/10 21/13/21 23/10/23
f 7/2/7 18/14/18 29/15/29 33/16/33
f 5/8/5 11/7/11 17/17/17 16/5/16
f 6/18/6 12/19/12 18/14/18 37/4/37
f 8/19/8 36/20/36 26/21/26 15/6/15
f 9/7/9 34/22/34 25/23/25 19/9/19
f 13/24/13 27/25/27 32/26/32
f 13/24/13 36/20/36 30/27/30
f 11/7/11 28/28/28 31/29/31 17/17/17
f 2/18/2 8/19/8 15/6/15 14/5/14
f 15/6/15 26/21/26 34/22/34 9/7/9
f 16/5/16 17/17/17 12/19/12 6/18/6
f 17/17/17 31/29/31 35/30/35 12/19/12
f 19/9/19 25/23/25 32/26/32 10/12/10
f 13/24/13 29/15/29 35/30/35
f 20/10/20 19/9/19 10/12/10 4/11/4
f 21/13/21 27/25/27 28/28/28 11/7/11
f 22/3/22 7/2/7 33/16/33 30/27/30
f 24/4/24 22/3/22 8/19/8 2/18/2
f 23/10/23 21/13/21 11/7/11 5/8/5
f 34/22/34 26/21/26 13/24/13
f 33/16/33 29/15/29 13/24/13
f 35/30/35 31/29/31 13/24/13
f 26/21/26 36/20/36 13/24/13
f 35/30/35 29/15/29 18/14/18 12/19/12
f 25/23/25 34/22/34 13/24/13
f 31/29/31 28/28/28 13/24/13
f 32/26/32 27/25/27 21/13/21 10/12/10
f 32/26/32 25/23/25 13/24/13
f 28/28/28 27/25/27 13/24/13
f 30/27/30 36/20/36 8/19/8 22/3/22
f 30/27/30 33/16/33 13/24/13
f 37/4/37 18/14/18 7/2/7 1/1/1
