# Blender 4.5.10 LTS
# www.blender.org
mtllib Terrain5.mtl
o Terrain5
v 0.000000 0.000000 -1.000000
v 0.866025 0.000000 -0.500000
v 0.866025 0.000000 0.500000
v 0.000000 0.000000 1.000000
v -0.866025 0.000000 0.500000
v -0.866025 0.000000 -0.500000
v 0.000000 0.101339 -1.000000
v 0.866025 0.101339 -0.500000
v 0.866025 0.101339 0.500000
v 0.000000 0.051504 1.000000
v -0.866025 0.070423 0.500000
v -0.866025 0.101339 -0.500000
v 0.000000 0.569023 0.000000
v 0.866025 0.000000 0.000000
v 0.866025 0.101339 0.000000
v -0.866025 0.000000 0.000000
v -0.866025 0.071466 0.000000
v -0.433013 0.101339 -0.750000
v 0.433013 0.064544 0.750000
v 0.433013 0.000000 0.750000
v -0.380929 0.017799 0.688287
v 0.433013 0.101339 -0.750000
v -0.433013 0.000000 0.750000
v 0.433013 0.000000 -0.750000
v 0.216506 0.361252 0.375000
v 0.433013 0.440214 0.000000
v -0.216506 0.247311 0.375000
v -0.433013 0.412930 0.250000
v -0.216506 0.631857 -0.375000
v 0.216506 0.457349 -0.375000
v -0.433013 0.520619 0.000000
v 0.000000 0.283934 0.500000
v 0.000000 0.461440 -0.500000
v 0.433013 0.409370 0.250000
v -0.433013 0.563253 -0.250000
v 0.433013 0.440214 -0.250000
v -0.433013 0.000000 -0.750000
vn -0.0000 -0.0000 -1.0000
vn 0.8660 -0.0000 -0.5000
vn 0.8660 -0.0000 0.5000
vn -0.0475 0.5705 0.8199
vn -0.7391 0.4637 0.4885
vn -0.8660 -0.0000 -0.5000
vn 0.0508 0.5193 -0.8531
vn 0.7095 0.5780 -0.4031
vn 0.6052 0.6861 0.4038
vn -0.0877 0.7791 0.6208
vn -0.5278 0.7067 0.4712
vn -0.7595 0.5206 -0.3901
vn 0.0967 0.9889 0.1125
vn 1.0000 -0.0000 -0.0000
vn 0.8359 0.5487 0.0116
vn -1.0000 -0.0000 -0.0000
vn -0.9146 0.4011 0.0514
vn -0.4218 0.4309 -0.7978
vn 0.3510 0.5699 0.7429
vn 0.5000 -0.0000 0.8660
vn -0.3222 0.7495 0.5784
vn 0.4327 0.5229 -0.7344
vn -0.3456 0.7139 0.6091
vn 0.5000 -0.0000 -0.8660
vn 0.0855 0.8519 0.5167
vn 0.3618 0.9305 0.0567
vn -0.2444 0.8048 0.5409
vn -0.2959 0.8446 0.4463
vn -0.0045 0.9997 -0.0255
vn 0.2073 0.9361 -0.2842
vn -0.3010 0.9205 0.2492
vn -0.1116 0.8693 0.4814
vn 0.0845 0.8904 -0.4472
vn 0.3063 0.9092 0.2818
vn -0.2582 0.9660 -0.0119
vn 0.3506 0.9183 -0.1836
vn -0.5000 -0.0000 -0.8660
vt 0.992746 0.009202
vt 0.992746 0.138739
vt 0.869560 0.138739
vt 0.869560 0.009202
vt 0.500000 0.009202
vt 0.500000 0.138739
vt 0.253627 0.138739
vt 0.253627 0.009202
vt 0.130441 0.091706
vt 0.130441 0.009202
vt 0.007254 0.009202
vt 0.007254 0.075037
vt 0.160849 0.031953
vt 0.684780 0.816876
vt 0.746373 0.599039
vt 0.253627 0.099221
vt 0.500000 0.100553
vt 0.746373 0.009202
vt 0.746373 0.138739
vt 0.623186 0.571908
vt 0.500000 0.571908
vt 0.376813 0.532481
vt 0.315220 0.470974
vt 0.500000 0.736558
vt 0.315220 0.325328
vt 0.253627 0.372142
vt 0.684780 0.593810
vt 0.376813 0.537032
vt 0.500000 0.674686
vt 0.623186 0.729183
s 1
f 1/1/1 7/2/7 22/3/22 24/4/24
f 14/5/14 15/6/15 9/7/9 3/8/3
f 3/8/3 9/7/9 19/9/19 20/10/20
f 4/11/4 10/12/10 21/13/21 23/10/23
f 7/2/7 18/3/18 29/14/29 33/15/33
f 5/8/5 11/16/11 17/17/17 16/5/16
f 6/18/6 12/19/12 18/3/18 37/4/37
f 8/19/8 36/20/36 26/21/26 15/6/15
f 9/7/9 34/22/34 25/23/25 19/9/19
f 13/24/13 27/25/27 32/26/32
f 13/24/13 36/20/36 30/27/30
f 11/16/11 28/28/28 31/29/31 17/17/17
f 2/18/2 8/19/8 15/6/15 14/5/14
f 15/6/15 26/21/26 34/22/34 9/7/9
f 16/5/16 17/17/17 12/19/12 6/18/6
f 17/17/17 31/29/31 35/30/35 12/19/12
f 19/9/19 25/23/25 32/26/32 10/12/10
f 13/24/13 29/14/29 35/30/35
f 20/10/20 19/9/19 10/12/10 4/11/4
f 21/13/21 27/25/27 28/28/28 11/16/11
f 22/3/22 7/2/7 33/15/33 30/27/30
f 24/4/24 22/3/22 8/19/8 2/18/2
f 23/10/23 21/13/21 11/16/11 5/8/5
f 34/22/34 26/21/26 13/24/13
f 33/15/33 29/14/29 13/24/13
f 35/30/35 31/29/31 13/24/13
f 26/21/26 36/20/36 13/24/13
f 35/30/35 29/14/29 18/3/18 12/19/12
f 25/23/25 34/22/34 13/24/13
f 31/29/31 28/28/28 13/24/13
f 32/26/32 27/25/27 21/13/21 10/12/10
f 32/26/32 25/23/25 13/24/13
f 28/28/28 27/25/27 13/24/13
f 30/27/30 36/20/36 8/19/8 22/3/22
f 30/27/30 33/15/33 13/24/13
f 37/4/37 18/3/18 7/2/7 1/1/1
