# Blender 4.5.10 LTS
# www.blender.org
mtllib Terrain2.2.mtl
o Terrain2.2
v 0.000000 0.000000 -1.000000
v 0.866025 0.000000 -0.500000
v 0.866025 0.000000 0.500000
v 0.000000 0.000000 1.000000
v -0.866025 0.000000 0.500000
v -0.866025 0.000000 -0.500000
v 0.000000 0.027628 -1.000000
v 0.866025 0.200000 -0.500000
v 0.866025 0.200000 0.500000
v 0.000000 0.027628 1.000000
v -0.866025 0.200000 0.500000
v -0.866025 0.200000 -0.500000
v 0.000000 0.242266 0.000000
v 0.866025 0.000000 0.000000
v 0.866025 0.450000 0.000000
v -0.866025 0.000000 0.000000
v -0.866025 0.450000 0.000000
v -0.433013 0.027628 -0.750000
v 0.433013 0.027628 0.750000
v 0.433013 0.000000 0.750000
v -0.433013 0.027628 0.750000
v 0.433013 0.027628 -0.750000
v -0.433013 0.000000 0.750000
v 0.433013 0.000000 -0.750000
v 0.216506 0.077402 0.375000
v 0.433013 0.280949 0.000000
v -0.216506 0.108297 0.375000
v -0.433013 0.241826 0.180857
v -0.216506 0.077402 -0.375000
v 0.216506 0.102519 -0.375000
v -0.433013 0.289639 0.000000
v 0.000000 0.077402 0.334730
v 0.000000 0.077402 -0.339354
v 0.433013 0.278831 0.205134
v -0.433013 0.238913 -0.210520
v 0.433013 0.200745 -0.192002
v -0.433013 0.000000 -0.750000
vn -0.0000 -0.0000 -1.0000
vn 0.8660 -0.0000 -0.5000
vn 0.8660 -0.0000 0.5000
vn -0.0000 -0.0000 1.0000
vn -0.8660 -0.0000 0.5000
vn -0.8660 -0.0000 -0.5000
vn -0.0148 0.9639 -0.2659
vn 0.2094 0.9034 -0.3742
vn 0.2542 0.8706 0.4212
vn 0.0180 0.9625 0.2705
vn -0.2346 0.8929 0.3843
vn -0.2275 0.8907 -0.3935
vn 0.0032 0.9999 -0.0133
vn 1.0000 -0.0000 -0.0000
vn 0.0314 0.9995 0.0097
vn -1.0000 -0.0000 -0.0000
vn -0.0281 0.9996 -0.0013
vn -0.1500 0.9109 -0.3845
vn 0.1530 0.9081 0.3897
vn 0.5000 -0.0000 0.8660
vn -0.1510 0.8825 0.4454
vn 0.1471 0.8928 -0.4257
vn -0.5000 -0.0000 0.8660
vn 0.5000 -0.0000 -0.8660
vn -0.0528 0.9746 0.2175
vn -0.1693 0.9831 -0.0697
vn 0.1344 0.9446 0.2994
vn 0.1857 0.9193 0.3469
vn 0.0533 0.9763 -0.2098
vn -0.1165 0.9559 -0.2697
vn 0.2204 0.9754 0.0009
vn 0.0139 0.9855 0.1693
vn -0.0117 0.9857 -0.1678
vn -0.1569 0.9715 0.1776
vn 0.2013 0.9137 -0.3529
vn -0.1694 0.9151 -0.3660
vn -0.5000 -0.0000 -0.8660
vt 0.992746 0.009202
vt 0.992746 0.044518
vt 0.869560 0.044518
vt 0.869560 0.009202
vt 0.500000 0.009202
vt 0.500000 0.584417
vt 0.253627 0.264853
vt 0.253627 0.009202
vt 0.130441 0.044518
vt 0.130441 0.009202
vt 0.007254 0.009202
vt 0.007254 0.044518
vt 0.684780 0.108142
vt 0.667215 0.108142
vt 0.746373 0.009202
vt 0.746373 0.264853
vt 0.594608 0.265806
vt 0.500000 0.368327
vt 0.398921 0.365619
vt 0.315220 0.108142
vt 0.500000 0.318880
vt 0.315220 0.147634
vt 0.335063 0.108142
vt 0.684780 0.140248
vt 0.410884 0.318318
vt 0.500000 0.379435
vt 0.603733 0.314594
s 1
f 1/1/1 7/2/7 22/3/22 24/4/24
f 14/5/14 15/6/15 9/7/9 3/8/3
f 3/8/3 9/7/9 19/9/19 20/10/20
f 4/11/4 10/12/10 21/9/21 23/10/23
f 7/2/7 18/3/18 29/13/29 33/14/33
f 5/8/5 11/7/11 17/6/17 16/5/16
f 6/15/6 12/16/12 18/3/18 37/4/37
f 8/16/8 36/17/36 26/18/26 15/6/15
f 9/7/9 34/19/34 25/20/25 19/9/19
f 13/21/13 27/22/27 32/23/32
f 13/21/13 36/17/36 30/24/30
f 11/7/11 28/25/28 31/26/31 17/6/17
f 2/15/2 8/16/8 15/6/15 14/5/14
f 15/6/15 26/18/26 34/19/34 9/7/9
f 16/5/16 17/6/17 12/16/12 6/15/6
f 17/6/17 31/26/31 35/27/35 12/16/12
f 19/9/19 25/20/25 32/23/32 10/12/10
f 13/21/13 29/13/29 35/27/35
f 20/10/20 19/9/19 10/12/10 4/11/4
f 21/9/21 27/22/27 28/25/28 11/7/11
f 22/3/22 7/2/7 33/14/33 30/24/30
f 24/4/24 22/3/22 8/16/8 2/15/2
f 23/10/23 21/9/21 11/7/11 5/8/5
f 34/19/34 26/18/26 13/21/13
f 33/14/33 29/13/29 13/21/13
f 35/27/35 31/26/31 13/21/13
f 26/18/26 36/17/36 13/21/13
f 35/27/35 29/13/29 18/3/18 12/16/12
f 25/20/25 34/19/34 13/21/13
f 31/26/31 28/25/28 13/21/13
f 32/23/32 27/22/27 21/9/21 10/12/10
f 32/23/32 25/20/25 13/21/13
f 28/25/28 27/22/27 13/21/13
f 30/24/30 36/17/36 8/16/8 22/3/22
f 30/24/30 33/14/33 13/21/13
f 37/4/37 18/3/18 7/2/7 1/1/1
