# Blender 4.5.10 LTS
# www.blender.org
mtllib Terrain2.mtl
o Terrain2
v 0.000000 0.000000 -1.000000
v 0.866025 0.000000 -0.500000
v 0.866025 0.000000 0.500000
v 0.000000 0.000000 1.000000
v -0.866025 0.000000 0.500000
v -0.866025 0.000000 -0.500000
v 0.000000 0.200000 -1.000000
v 0.866025 0.700000 -0.500000
v 0.866025 0.200000 0.500000
v 0.000000 0.028995 0.783551
v -0.866025 0.028995 0.500000
v -0.866025 0.028995 -0.500000
v 0.000000 0.172119 0.000000
v 0.866025 0.000000 0.000000
v 0.866025 0.450000 0.000000
v -0.866025 0.000000 0.000000
v -0.866025 0.028995 0.000000
v -0.334583 0.028995 -0.604631
v 0.364372 0.028995 0.602968
v 0.433013 0.000000 0.750000
v -0.433013 0.028995 0.750000
v 0.433013 0.450000 -0.750000
v -0.433013 0.000000 0.750000
v 0.433013 0.000000 -0.750000
v 0.216506 0.196074 0.375000
v 0.433013 0.405100 0.000000
v -0.565423 0.066763 0.492120
v -0.519526 0.066763 0.250000
v -0.216506 0.114763 -0.375000
v 0.216506 0.343124 -0.375000
v -0.433013 0.065675 0.000000
v 0.000000 0.130869 0.358504
v 0.000000 0.207295 -0.500000
v 0.433013 0.274542 0.250000
v -0.433013 0.065675 -0.250000
v 0.433013 0.419513 -0.250000
v -0.433013 0.000000 -0.750000
vn -0.1353 0.4307 -0.8923
vn 0.8660 -0.0000 -0.5000
vn 0.7208 0.4035 0.5635
vn 0.0130 0.9818 0.1895
vn -0.8660 -0.0000 0.5000
vn -0.4102 0.8688 -0.2775
vn -0.2421 0.8485 -0.4706
vn 0.0019 1.0000 -0.0082
vn 0.4105 0.7587 0.5059
vn 0.0004 0.9756 0.2196
vn -0.2598 0.9575 0.1251
vn -0.1820 0.9770 -0.1110
vn -0.2911 0.9534 0.0788
vn 1.0000 -0.0000 -0.0000
vn 0.2149 0.9107 0.3527
vn -1.0000 -0.0000 -0.0000
vn -0.2224 0.9749 -0.0061
vn -0.2277 0.9400 -0.2542
vn 0.0774 0.9290 0.3618
vn 0.1034 0.9565 0.2729
vn -0.1163 0.9597 0.2557
vn -0.2367 0.8921 -0.3848
vn -0.2054 0.8658 0.4562
vn 0.5000 -0.0000 -0.8660
vn -0.2160 0.9362 0.2774
vn -0.2808 0.9142 0.2923
vn -0.1093 0.9877 0.1118
vn -0.1500 0.9886 -0.0121
vn -0.2940 0.9553 -0.0321
vn -0.4622 0.8835 0.0755
vn -0.1446 0.9893 -0.0194
vn -0.0773 0.9774 0.1970
vn -0.4828 0.8757 0.0114
vn -0.2368 0.8741 0.4241
vn -0.1233 0.9912 -0.0472
vn -0.3914 0.9058 0.1624
vn -0.2585 0.8849 -0.3874
vt 0.992746 0.009202
vt 0.992746 0.264853
vt 0.869560 0.584417
vt 0.869560 0.009202
vt 0.500000 0.009202
vt 0.500000 0.584417
vt 0.253627 0.264853
vt 0.253627 0.009202
vt 0.202890 0.046265
vt 0.130441 0.009202
vt 0.007254 0.009202
vt 0.113909 0.046265
vt 0.130441 0.046265
vt 0.797930 0.046265
vt 0.684780 0.155898
vt 0.746373 0.274178
vt 0.253627 0.046265
vt 0.500000 0.046265
vt 0.746373 0.009202
vt 0.746373 0.046265
vt 0.746373 0.903980
vt 0.623186 0.545446
vt 0.500000 0.527023
vt 0.376813 0.360137
vt 0.315220 0.259834
vt 0.500000 0.229214
vt 0.257510 0.094542
vt 0.323348 0.176486
vt 0.684780 0.447802
vt 0.376813 0.094542
vt 0.500000 0.093151
vt 0.623186 0.093151
s 1
f 1/1/1 7/2/7 22/3/22 24/4/24
f 14/5/14 15/6/15 9/7/9 3/8/3
f 3/8/3 9/7/9 19/9/19 20/10/20
f 4/11/4 10/12/10 21/13/21 23/10/23
f 7/2/7 18/14/18 29/15/29 33/16/33
f 5/8/5 11/17/11 17/18/17 16/5/16
f 6/19/6 12/20/12 18/14/18 37/4/37
f 8/21/8 36/22/36 26/23/26 15/6/15
f 9/7/9 34/24/34 25/25/25 19/9/19
f 13/26/13 27/27/27 32/28/32
f 13/26/13 36/22/36 30/29/30
f 11/17/11 28/30/28 31/31/31 17/18/17
f 2/19/2 8/21/8 15/6/15 14/5/14
f 15/6/15 26/23/26 34/24/34 9/7/9
f 16/5/16 17/18/17 12/20/12 6/19/6
f 17/18/17 31/31/31 35/32/35 12/20/12
f 19/9/19 25/25/25 32/28/32 10/12/10
f 13/26/13 29/15/29 35/32/35
f 20/10/20 19/9/19 10/12/10 4/11/4
f 21/13/21 27/27/27 28/30/28 11/17/11
f 22/3/22 7/2/7 33/16/33 30/29/30
f 24/4/24 22/3/22 8/21/8 2/19/2
f 23/10/23 21/13/21 11/17/11 5/8/5
f 34/24/34 26/23/26 13/26/13
f 33/16/33 29/15/29 13/26/13
f 35/32/35 31/31/31 13/26/13
f 26/23/26 36/22/36 13/26/13
f 35/32/35 29/15/29 18/14/18 12/20/12
f 25/25/25 34/24/34 13/26/13
f 31/31/31 28/30/28 13/26/13
f 32/28/32 27/27/27 21/13/21 10/12/10
f 32/28/32 25/25/25 13/26/13
f 28/30/28 27/27/27 13/26/13
f 30/29/30 36/22/36 8/21/8 22/3/22
f 30/29/30 33/16/33 13/26/13
f 37/4/37 18/14/18 7/2/7 1/1/1
