# Blender 4.5.10 LTS
# www.blender.org
mtllib Terrain4.1.mtl
o Terrain4.1
v 0.000000 0.000000 -1.000000
v 0.866025 0.000000 -0.500000
v 0.866025 0.000000 0.500000
v 0.000000 0.000000 1.000000
v -0.866025 0.000000 0.500000
v -0.866025 0.000000 -0.500000
v 0.000000 0.700000 -1.000000
v 0.866025 0.700000 -0.500000
v 0.866025 0.200000 0.500000
v 0.000000 0.200000 1.000000
v -0.866025 0.200000 0.500000
v -0.866025 0.200000 -0.500000
v 0.000000 0.264540 0.000000
v 0.866025 0.000000 0.000000
v 0.866025 0.450000 0.000000
v -0.866025 0.000000 0.000000
v -0.777220 0.027314 0.000000
v -0.433013 0.450000 -0.750000
v 0.360110 0.027314 0.663456
v 0.433013 0.000000 0.750000
v -0.433013 0.450000 0.750000
v 0.433013 0.700000 -0.750000
v -0.433013 0.000000 0.750000
v 0.433013 0.000000 -0.750000
v 0.216506 0.077012 0.375000
v 0.433013 0.345255 0.000000
v -0.216506 0.292164 0.375000
v -0.433013 0.292164 0.250000
v -0.216506 0.321121 -0.375000
v 0.216506 0.425045 -0.375000
v -0.433013 0.240709 0.000000
v -0.032952 0.131426 0.500000
v 0.000000 0.425045 -0.500000
v 0.433013 0.053290 0.250000
v -0.433013 0.242058 -0.250000
v 0.433013 0.425045 -0.250000
v -0.433013 0.000000 -0.750000
vn -0.0000 -0.0000 -1.0000
vn 0.8660 -0.0000 -0.5000
vn 0.7845 0.2742 0.5563
vn 0.0952 0.2929 0.9514
vn -0.8783 0.2278 0.4203
vn -0.8783 0.2278 -0.4203
vn -0.0469 0.9982 -0.0364
vn 0.0543 0.9983 0.0219
vn 0.2529 0.8366 0.4859
vn 0.2708 0.8706 0.4107
vn -0.6090 0.7842 0.1194
vn -0.5578 0.8233 -0.1048
vn -0.0108 0.9864 0.1642
vn 1.0000 -0.0000 -0.0000
vn 0.2211 0.8842 0.4115
vn -0.9314 0.3639 -0.0000
vn -0.8712 0.4909 -0.0012
vn -0.4707 0.8822 0.0094
vn 0.2870 0.8363 0.4672
vn 0.4476 0.4400 0.7785
vn -0.0350 0.9992 0.0197
vn 0.0039 1.0000 -0.0068
vn -0.5000 -0.0000 0.8660
vn 0.5000 -0.0000 -0.8660
vn 0.1778 0.9809 0.0787
vn -0.2483 0.8755 0.4145
vn 0.1446 0.9857 -0.0870
vn -0.0774 0.9831 -0.1660
vn -0.2446 0.9119 0.3295
vn -0.2125 0.9052 0.3681
vn -0.1716 0.9834 -0.0589
vn 0.3424 0.9380 0.0534
vn -0.2169 0.8885 0.4044
vn -0.0964 0.9810 0.1684
vn -0.1814 0.9675 0.1761
vn -0.2390 0.8954 0.3756
vn -0.5000 -0.0000 -0.8660
vt 0.992746 0.009202
vt 0.992746 0.903980
vt 0.869560 0.903980
vt 0.869560 0.009202
vt 0.500000 0.009202
vt 0.500000 0.584417
vt 0.253627 0.264853
vt 0.253627 0.009202
vt 0.173085 0.044116
vt 0.130441 0.009202
vt 0.007254 0.009202
vt 0.007254 0.264853
vt 0.130441 0.584417
vt 0.869560 0.584417
vt 0.684780 0.419677
vt 0.746373 0.552518
vt 0.500000 0.044116
vt 0.746373 0.009202
vt 0.746373 0.264853
vt 0.746373 0.903980
vt 0.623186 0.552518
vt 0.500000 0.450526
vt 0.376813 0.077321
vt 0.315220 0.107643
vt 0.500000 0.347352
vt 0.315220 0.382663
vt 0.253627 0.177198
vt 0.684780 0.552518
vt 0.376813 0.382663
vt 0.500000 0.316890
vt 0.623186 0.318614
s 1
f 1/1/1 7/2/7 22/3/22 24/4/24
f 14/5/14 15/6/15 9/7/9 3/8/3
f 3/8/3 9/7/9 19/9/19 20/10/20
f 4/11/4 10/12/10 21/13/21 23/10/23
f 7/2/7 18/14/18 29/15/29 33/16/33
f 5/8/5 11/7/11 17/17/17 16/5/16
f 6/18/6 12/19/12 18/14/18 37/4/37
f 8/20/8 36/21/36 26/22/26 15/6/15
f 9/7/9 34/23/34 25/24/25 19/9/19
f 13/25/13 27/26/27 32/27/32
f 13/25/13 36/21/36 30/28/30
f 11/7/11 28/29/28 31/30/31 17/17/17
f 2/18/2 8/20/8 15/6/15 14/5/14
f 15/6/15 26/22/26 34/23/34 9/7/9
f 16/5/16 17/17/17 12/19/12 6/18/6
f 17/17/17 31/30/31 35/31/35 12/19/12
f 19/9/19 25/24/25 32/27/32 10/12/10
f 13/25/13 29/15/29 35/31/35
f 20/10/20 19/9/19 10/12/10 4/11/4
f 21/13/21 27/26/27 28/29/28 11/7/11
f 22/3/22 7/2/7 33/16/33 30/28/30
f 24/4/24 22/3/22 8/20/8 2/18/2
f 23/10/23 21/13/21 11/7/11 5/8/5
f 34/23/34 26/22/26 13/25/13
f 33/16/33 29/15/29 13/25/13
f 35/31/35 31/30/31 13/25/13
f 26/22/26 36/21/36 13/25/13
f 35/31/35 29/15/29 18/14/18 12/19/12
f 25/24/25 34/23/34 13/25/13
f 31/30/31 28/29/28 13/25/13
f 32/27/32 27/26/27 21/13/21 10/12/10
f 32/27/32 25/24/25 13/25/13
f 28/29/28 27/26/27 13/25/13
f 30/28/30 36/21/36 8/20/8 22/3/22
f 30/28/30 33/16/33 13/25/13
f 37/4/37 18/14/18 7/2/7 1/1/1
