# Blender 4.5.10 LTS
# www.blender.org
mtllib Terrain3.mtl
o Terrain3
v 0.000000 0.000000 -1.000000
v 0.866025 0.000000 -0.500000
v 0.866025 0.000000 0.500000
v 0.000000 0.000000 1.000000
v -0.866025 0.000000 0.500000
v -0.866025 0.000000 -0.500000
v 0.000000 0.700000 -1.000000
v 0.866025 0.700000 -0.500000
v 0.866025 0.200000 0.500000
v 0.000000 0.021121 1.000000
v -0.866025 0.021121 0.500000
v -0.866025 0.200000 -0.500000
v 0.000000 0.314802 0.000000
v 0.866025 0.000000 0.000000
v 0.866025 0.450000 0.000000
v -0.866025 0.000000 0.000000
v -0.689342 0.021121 -0.060353
v -0.433013 0.450000 -0.750000
v 0.383304 0.021121 0.623506
v 0.433013 0.000000 0.750000
v -0.433013 0.021121 0.750000
v 0.433013 0.700000 -0.750000
v -0.433013 0.000000 0.750000
v 0.433013 0.000000 -0.750000
v 0.216506 0.139902 0.375000
v 0.433013 0.421038 0.000000
v -0.120661 0.074742 0.231980
v -0.337167 0.074742 0.106980
v -0.216506 0.368294 -0.375000
v 0.216506 0.512601 -0.375000
v -0.433013 0.106145 0.000000
v 0.095845 0.074742 0.356980
v 0.000000 0.472790 -0.500000
v 0.433013 0.369067 0.250000
v -0.433013 0.269965 -0.250000
v 0.433013 0.487676 -0.250000
v -0.433013 0.000000 -0.750000
vn -0.0000 -0.0000 -1.0000
vn 0.8660 -0.0000 -0.5000
vn 0.7454 0.3577 0.5625
vn 0.0242 0.8761 0.4816
vn -0.3585 0.9160 0.1801
vn -0.8226 0.4813 -0.3029
vn -0.0836 0.9945 -0.0627
vn 0.0818 0.9961 0.0335
vn 0.4432 0.6851 0.5781
vn -0.0140 0.9761 0.2169
vn -0.1695 0.9806 0.0980
vn -0.6451 0.7622 -0.0533
vn -0.3134 0.8687 0.3836
vn 1.0000 -0.0000 -0.0000
vn 0.3140 0.8767 0.3643
vn -0.3571 0.9338 0.0223
vn -0.3125 0.9468 0.0771
vn -0.4929 0.8694 -0.0343
vn 0.0971 0.9268 0.3628
vn 0.2094 0.8872 0.4112
vn -0.1085 0.9762 0.1879
vn -0.0016 0.9999 -0.0150
vn -0.5000 -0.0000 0.8660
vn 0.5000 -0.0000 -0.8660
vn -0.2703 0.7845 0.5582
vn -0.1333 0.9426 0.3061
vn -0.0950 0.9818 0.1646
vn -0.1248 0.9860 0.1108
vn -0.2803 0.9088 0.3091
vn -0.2231 0.9026 0.3682
vn -0.3275 0.8628 0.3850
vn -0.0542 0.9837 0.1713
vn -0.2910 0.8958 0.3360
vn -0.1176 0.9378 0.3267
vn -0.3232 0.8635 0.3872
vn -0.1499 0.9114 0.3832
vn -0.5000 -0.0000 -0.8660
vt 0.992746 0.009202
vt 0.992746 0.903980
vt 0.869560 0.903980
vt 0.869560 0.009202
vt 0.500000 0.009202
vt 0.500000 0.584417
vt 0.253627 0.264853
vt 0.253627 0.009202
vt 0.192770 0.036200
vt 0.130441 0.009202
vt 0.007254 0.009202
vt 0.007254 0.036200
vt 0.130441 0.036200
vt 0.869560 0.584417
vt 0.684780 0.479976
vt 0.746373 0.613549
vt 0.253627 0.036200
vt 0.529738 0.036200
vt 0.746373 0.009202
vt 0.746373 0.264853
vt 0.746373 0.903980
vt 0.623186 0.632576
vt 0.500000 0.547396
vt 0.376813 0.480964
vt 0.315220 0.188032
vt 0.500000 0.411600
vt 0.385693 0.104741
vt 0.324100 0.104741
vt 0.684780 0.664436
vt 0.447286 0.104741
vt 0.500000 0.144882
vt 0.623186 0.354287
s 1
f 1/1/1 7/2/7 22/3/22 24/4/24
f 14/5/14 15/6/15 9/7/9 3/8/3
f 3/8/3 9/7/9 19/9/19 20/10/20
f 4/11/4 10/12/10 21/13/21 23/10/23
f 7/2/7 18/14/18 29/15/29 33/16/33
f 5/8/5 11/17/11 17/18/17 16/5/16
f 6/19/6 12/20/12 18/14/18 37/4/37
f 8/21/8 36/22/36 26/23/26 15/6/15
f 9/7/9 34/24/34 25/25/25 19/9/19
f 13/26/13 27/27/27 32/28/32
f 13/26/13 36/22/36 30/29/30
f 11/17/11 28/30/28 31/31/31 17/18/17
f 2/19/2 8/21/8 15/6/15 14/5/14
f 15/6/15 26/23/26 34/24/34 9/7/9
f 16/5/16 17/18/17 12/20/12 6/19/6
f 17/18/17 31/31/31 35/32/35 12/20/12
f 19/9/19 25/25/25 32/28/32 10/12/10
f 13/26/13 29/15/29 35/32/35
f 20/10/20 19/9/19 10/12/10 4/11/4
f 21/13/21 27/27/27 28/30/28 11/17/11
f 22/3/22 7/2/7 33/16/33 30/29/30
f 24/4/24 22/3/22 8/21/8 2/19/2
f 23/10/23 21/13/21 11/17/11 5/8/5
f 34/24/34 26/23/26 13/26/13
f 33/16/33 29/15/29 13/26/13
f 35/32/35 31/31/31 13/26/13
f 26/23/26 36/22/36 13/26/13
f 35/32/35 29/15/29 18/14/18 12/20/12
f 25/25/25 34/24/34 13/26/13
f 31/31/31 28/30/28 13/26/13
f 32/28/32 27/27/27 21/13/21 10/12/10
f 32/28/32 25/25/25 13/26/13
f 28/30/28 27/27/27 13/26/13
f 30/29/30 36/22/36 8/21/8 22/3/22
f 30/29/30 33/16/33 13/26/13
f 37/4/37 18/14/18 7/2/7 1/1/1
