# Blender 4.5.10 LTS
# www.blender.org
mtllib Terrain3.1.mtl
o Terrain3.1
v 0.000000 0.000000 -1.000000
v 0.866025 0.000000 -0.500000
v 0.866025 0.000000 0.500000
v 0.000000 0.000000 1.000000
v -0.866025 0.000000 0.500000
v -0.866025 0.000000 -0.500000
v 0.000000 0.700000 -1.000000
v 0.866025 0.200000 -0.500000
v 0.570408 0.026839 0.340782
v 0.000000 0.200000 1.000000
v -0.866025 0.200000 0.500000
v -0.866025 0.200000 -0.500000
v 0.000000 0.292164 0.000000
v 0.866025 0.000000 0.000000
v 0.866025 0.026839 0.000000
v -0.866025 0.000000 0.000000
v -0.661172 0.026839 0.000000
v -0.433013 0.450000 -0.750000
v 0.433013 0.026839 0.750000
v 0.433013 0.000000 0.750000
v -0.433013 0.450000 0.750000
v 0.433013 0.450000 -0.750000
v -0.433013 0.000000 0.750000
v 0.433013 0.000000 -0.750000
v 0.170451 0.239060 0.375000
v 0.348173 0.200000 -0.020593
v -0.216506 0.292164 0.375000
v -0.433013 0.292164 0.250000
v -0.216506 0.321121 -0.375000
v 0.216506 0.321121 -0.375000
v -0.372905 0.229899 0.000000
v 0.000000 0.292164 0.500000
v 0.000000 0.321121 -0.500000
v 0.332554 0.200000 0.205354
v -0.433013 0.321121 -0.250000
v 0.433013 0.321121 -0.250000
v -0.433013 0.000000 -0.750000
vn -0.0000 -0.0000 -1.0000
vn 0.8660 -0.0000 -0.5000
vn 0.1369 0.9875 0.0788
vn -0.0000 -0.0000 1.0000
vn -0.8216 0.4838 0.3016
vn -0.8216 0.4838 -0.3016
vn -0.0000 1.0000 -0.0011
vn 0.5900 0.8041 -0.0732
vn 0.2268 0.9669 0.1173
vn 0.1942 0.8190 0.5400
vn -0.6490 0.7552 0.0916
vn -0.6859 0.7206 -0.1011
vn 0.0281 0.9967 0.0758
vn 0.3239 0.9447 0.0507
vn 0.4254 0.8988 0.1055
vn -0.7422 0.6702 -0.0000
vn -0.7128 0.7014 0.0003
vn -0.3365 0.9406 0.0442
vn 0.3239 0.8911 0.3178
vn 0.2074 0.9436 0.2580
vn -0.0296 0.9982 0.0512
vn 0.3365 0.9406 0.0442
vn -0.5000 -0.0000 0.8660
vn 0.5000 -0.0000 -0.8660
vn 0.3388 0.9375 0.0798
vn 0.3236 0.9206 0.2186
vn 0.0176 0.9994 -0.0305
vn -0.1073 0.9825 -0.1525
vn -0.0078 0.9921 0.1252
vn 0.0078 0.9921 0.1252
vn -0.4190 0.9080 0.0065
vn 0.1781 0.9839 0.0174
vn -0.0000 0.9845 0.1755
vn 0.3554 0.9274 0.1166
vn -0.0938 0.9803 0.1737
vn 0.0951 0.9791 0.1797
vn -0.5000 -0.0000 -0.8660
vt 0.992746 0.009202
vt 0.992746 0.903980
vt 0.869560 0.584417
vt 0.869560 0.009202
vt 0.500000 0.009202
vt 0.500000 0.043509
vt 0.332081 0.043509
vt 0.253627 0.009202
vt 0.130441 0.043509
vt 0.130441 0.009202
vt 0.007254 0.009202
vt 0.007254 0.264853
vt 0.130441 0.584417
vt 0.684780 0.419677
vt 0.746373 0.419677
vt 0.253627 0.264853
vt 0.746373 0.009202
vt 0.746373 0.264853
vt 0.623186 0.419677
vt 0.510147 0.264853
vt 0.398812 0.264853
vt 0.315220 0.314781
vt 0.500000 0.382663
vt 0.315220 0.382663
vt 0.253627 0.382663
vt 0.376813 0.382663
vt 0.500000 0.303071
s 1
f 1/1/1 7/2/7 22/3/22 24/4/24
f 14/5/14 15/6/15 9/7/9 3/8/3
f 3/8/3 9/7/9 19/9/19 20/10/20
f 4/11/4 10/12/10 21/13/21 23/10/23
f 7/2/7 18/3/18 29/14/29 33/15/33
f 5/8/5 11/16/11 17/6/17 16/5/16
f 6/17/6 12/18/12 18/3/18 37/4/37
f 8/18/8 36/19/36 26/20/26 15/6/15
f 9/7/9 34/21/34 25/22/25 19/9/19
f 13/23/13 27/24/27 32/25/32
f 13/23/13 36/19/36 30/14/30
f 11/16/11 28/26/28 31/27/31 17/6/17
f 2/17/2 8/18/8 15/6/15 14/5/14
f 15/6/15 26/20/26 34/21/34 9/7/9
f 16/5/16 17/6/17 12/18/12 6/17/6
f 17/6/17 31/27/31 35/19/35 12/18/12
f 19/9/19 25/22/25 32/25/32 10/12/10
f 13/23/13 29/14/29 35/19/35
f 20/10/20 19/9/19 10/12/10 4/11/4
f 21/13/21 27/24/27 28/26/28 11/16/11
f 22/3/22 7/2/7 33/15/33 30/14/30
f 24/4/24 22/3/22 8/18/8 2/17/2
f 23/10/23 21/13/21 11/16/11 5/8/5
f 34/21/34 26/20/26 13/23/13
f 33/15/33 29/14/29 13/23/13
f 35/19/35 31/27/31 13/23/13
f 26/20/26 36/19/36 13/23/13
f 35/19/35 29/14/29 18/3/18 12/18/12
f 25/22/25 34/21/34 13/23/13
f 31/27/31 28/26/28 13/23/13
f 32/25/32 27/24/27 21/13/21 10/12/10
f 32/25/32 25/22/25 13/23/13
f 28/26/28 27/24/27 13/23/13
f 30/14/30 36/19/36 8/18/8 22/3/22
f 30/14/30 33/15/33 13/23/13
f 37/4/37 18/3/18 7/2/7 1/1/1
