# Blender 4.5.10 LTS
# www.blender.org
mtllib Terrain2.1.mtl
o Terrain2.1
v 0.000000 0.000000 -1.000000
v 0.866025 0.000000 -0.500000
v 0.866025 0.000000 0.500000
v 0.000000 0.000000 1.000000
v -0.866025 0.000000 0.500000
v -0.866025 0.000000 -0.500000
v 0.000000 0.200000 -1.000000
v 0.866025 0.200000 -0.500000
v 0.866025 0.200000 0.500000
v 0.000000 0.200000 1.000000
v -0.866025 0.088274 0.500000
v -0.866025 0.088274 -0.500000
v 0.000000 0.093511 0.000000
v 0.866025 0.000000 0.000000
v 0.698676 0.079753 0.000000
v -0.866025 0.000000 0.000000
v -0.866025 0.088274 0.000000
v -0.433013 0.088274 -0.750000
v 0.433013 0.450000 0.750000
v 0.433013 0.000000 0.750000
v -0.433013 0.088274 0.750000
v 0.433013 0.450000 -0.750000
v -0.433013 0.000000 0.750000
v 0.433013 0.000000 -0.750000
v 0.216506 0.299585 0.375000
v 0.433013 0.243687 0.000000
v -0.216506 0.073483 0.375000
v -0.433013 0.077121 0.250000
v -0.216506 0.073483 -0.375000
v 0.216506 0.277380 -0.375000
v -0.433013 0.077121 0.000000
v 0.000000 0.266625 0.500000
v 0.000000 0.278653 -0.500000
v 0.433013 0.266148 0.250000
v -0.433013 0.077121 -0.250000
v 0.433013 0.266625 -0.250000
v -0.433013 0.000000 -0.750000
vn -0.0000 -0.0000 -1.0000
vn 0.8634 0.3409 -0.3720
vn 0.8634 0.3409 0.3720
vn -0.0000 -0.0000 1.0000
vn -0.8660 -0.0000 0.5000
vn -0.8660 -0.0000 -0.5000
vn -0.2139 0.8919 -0.3984
vn 0.5634 0.8182 -0.1148
vn 0.5692 0.8137 0.1176
vn -0.2099 0.8967 0.3896
vn -0.0925 0.9942 0.0550
vn -0.0925 0.9942 -0.0550
vn -0.1642 0.9864 0.0005
vn 0.8582 0.5134 -0.0000
vn 0.7695 0.6387 -0.0000
vn -1.0000 -0.0000 -0.0000
vn -0.0773 0.9970 -0.0000
vn -0.1878 0.9684 -0.1638
vn 0.0246 0.9988 0.0427
vn 0.5000 -0.0000 0.8660
vn -0.1858 0.9694 0.1603
vn 0.0221 0.9989 -0.0409
vn -0.5000 -0.0000 0.8660
vn 0.5000 -0.0000 -0.8660
vn -0.1248 0.9682 -0.2169
vn -0.0229 0.9997 0.0009
vn -0.0643 0.9979 -0.0100
vn 0.0067 1.0000 0.0005
vn -0.0649 0.9978 0.0094
vn -0.1187 0.9560 0.2684
vn -0.0055 1.0000 -0.0000
vn -0.3750 0.9180 -0.1292
vn -0.3253 0.9352 0.1400
vn 0.0684 0.9409 -0.3316
vn 0.0067 1.0000 -0.0005
vn 0.0421 0.9513 0.3053
vn -0.5000 -0.0000 -0.8660
vt 0.992746 0.009202
vt 0.992746 0.264853
vt 0.869560 0.584417
vt 0.869560 0.009202
vt 0.500000 0.009202
vt 0.500000 0.111147
vt 0.253627 0.264853
vt 0.253627 0.009202
vt 0.130441 0.584417
vt 0.130441 0.009202
vt 0.007254 0.009202
vt 0.007254 0.264853
vt 0.130441 0.122038
vt 0.869560 0.122038
vt 0.684780 0.103132
vt 0.746373 0.365392
vt 0.253627 0.122038
vt 0.500000 0.122038
vt 0.746373 0.009202
vt 0.746373 0.122038
vt 0.746373 0.264853
vt 0.623186 0.350016
vt 0.500000 0.320696
vt 0.376813 0.349407
vt 0.315220 0.392148
vt 0.500000 0.128733
vt 0.315220 0.103132
vt 0.253627 0.350016
vt 0.684780 0.363765
vt 0.376813 0.107783
vt 0.500000 0.107783
vt 0.623186 0.107783
s 1
f 1/1/1 7/2/7 22/3/22 24/4/24
f 14/5/14 15/6/15 9/7/9 3/8/3
f 3/8/3 9/7/9 19/9/19 20/10/20
f 4/11/4 10/12/10 21/13/21 23/10/23
f 7/2/7 18/14/18 29/15/29 33/16/33
f 5/8/5 11/17/11 17/18/17 16/5/16
f 6/19/6 12/20/12 18/14/18 37/4/37
f 8/21/8 36/22/36 26/23/26 15/6/15
f 9/7/9 34/24/34 25/25/25 19/9/19
f 13/26/13 27/27/27 32/28/32
f 13/26/13 36/22/36 30/29/30
f 11/17/11 28/30/28 31/31/31 17/18/17
f 2/19/2 8/21/8 15/6/15 14/5/14
f 15/6/15 26/23/26 34/24/34 9/7/9
f 16/5/16 17/18/17 12/20/12 6/19/6
f 17/18/17 31/31/31 35/32/35 12/20/12
f 19/9/19 25/25/25 32/28/32 10/12/10
f 13/26/13 29/15/29 35/32/35
f 20/10/20 19/9/19 10/12/10 4/11/4
f 21/13/21 27/27/27 28/30/28 11/17/11
f 22/3/22 7/2/7 33/16/33 30/29/30
f 24/4/24 22/3/22 8/21/8 2/19/2
f 23/10/23 21/13/21 11/17/11 5/8/5
f 34/24/34 26/23/26 13/26/13
f 33/16/33 29/15/29 13/26/13
f 35/32/35 31/31/31 13/26/13
f 26/23/26 36/22/36 13/26/13
f 35/32/35 29/15/29 18/14/18 12/20/12
f 25/25/25 34/24/34 13/26/13
f 31/31/31 28/30/28 13/26/13
f 32/28/32 27/27/27 21/13/21 10/12/10
f 32/28/32 25/25/25 13/26/13
f 28/30/28 27/27/27 13/26/13
f 30/29/30 36/22/36 8/21/8 22/3/22
f 30/29/30 33/16/33 13/26/13
f 37/4/37 18/14/18 7/2/7 1/1/1
