# Blender 4.5.10 LTS
# www.blender.org
mtllib Terrain5.mtl
o Terrain5.001
v 0.000000 -0.100000 -1.000000
v 0.866025 -0.100000 -0.500000
v 0.866025 -0.100000 0.500000
v 0.000000 -0.100000 1.000000
v -0.866025 -0.100000 0.500000
v -0.866025 -0.100000 -0.500000
v 0.000000 0.600000 -1.000000
v 0.866025 0.600000 -0.500000
v 0.866025 0.600000 0.500000
v 0.000000 0.100000 1.000000
v -0.866025 0.100000 0.500000
v -0.866025 0.600000 -0.500000
v 0.000000 0.449628 0.000000
v 0.866025 -0.100000 0.000000
v 0.866025 0.600000 0.000000
v -0.866025 -0.100000 0.000000
v -0.866025 0.350000 0.000000
v -0.433013 0.600000 -0.750000
v 0.433013 0.350000 0.750000
v 0.433013 -0.100000 0.750000
v -0.393589 -0.074260 0.668684
v 0.433013 0.600000 -0.750000
v -0.433013 -0.100000 0.750000
v 0.433013 -0.100000 -0.750000
v 0.216506 0.390248 0.375000
v 0.433013 0.469210 0.000000
v -0.216506 0.353625 0.375000
v -0.433013 0.390248 0.250000
v -0.216506 0.469210 -0.375000
v 0.216506 0.469210 -0.375000
v -0.433013 0.420619 0.000000
v 0.000000 0.390248 0.500000
v 0.000000 0.495357 -0.500000
v 0.433013 0.438366 0.250000
v -0.433013 0.463253 -0.250000
v 0.433013 0.469210 -0.250000
v -0.433013 -0.100000 -0.750000
vn -0.0000 -0.0000 -1.0000
vn 0.8660 -0.0000 -0.5000
vn 0.8660 -0.0000 0.5000
vn -0.0759 0.2301 0.9702
vn -0.8003 0.2353 0.5515
vn -0.8660 -0.0000 -0.5000
vn -0.0000 0.9992 -0.0396
vn 0.0428 0.9988 -0.0247
vn 0.0181 0.9951 0.0975
vn -0.1576 0.5263 0.8355
vn -0.6464 0.5195 0.5588
vn -0.0742 0.9970 0.0200
vn -0.0366 0.9939 0.1036
vn 1.0000 -0.0000 -0.0000
vn 0.0162 0.9997 0.0191
vn -1.0000 -0.0000 -0.0000
vn -0.5613 0.7743 0.2922
vn -0.0286 0.9996 -0.0047
vn 0.0107 0.8091 0.5875
vn 0.5000 -0.0000 0.8660
vn -0.4535 0.4126 0.7900
vn 0.0252 0.9997 -0.0068
vn -0.4649 0.3708 0.8040
vn 0.5000 -0.0000 -0.8660
vn -0.0969 0.9767 0.1914
vn -0.1416 0.9893 0.0356
vn -0.2607 0.8525 0.4530
vn -0.1040 0.9534 0.2832
vn 0.0086 0.9930 0.1175
vn -0.0150 0.9942 0.1063
vn -0.0746 0.9751 0.2089
vn -0.1183 0.9745 0.1909
vn -0.0000 0.9824 0.1868
vn -0.1842 0.9711 0.1519
vn 0.0046 0.9811 0.1935
vn -0.1020 0.9930 0.0589
vn -0.5000 -0.0000 -0.8660
vt 0.990764 0.030088
vt 0.990764 0.969913
vt 0.868073 0.969913
vt 0.868073 0.030088
vt 0.500000 0.030088
vt 0.500000 0.969913
vt 0.254618 0.969913
vt 0.254618 0.030088
vt 0.131927 0.634260
vt 0.131927 0.030088
vt 0.009236 0.030088
vt 0.009236 0.298609
vt 0.171834 0.064647
vt 0.684036 0.794313
vt 0.745382 0.829418
vt 0.254618 0.298609
vt 0.500000 0.634260
vt 0.745382 0.030088
vt 0.745382 0.969913
vt 0.622691 0.794313
vt 0.500000 0.794313
vt 0.377309 0.752902
vt 0.315963 0.688299
vt 0.500000 0.768021
vt 0.315963 0.639128
vt 0.254618 0.688299
vt 0.377309 0.688299
vt 0.500000 0.729075
vt 0.622691 0.786315
s 1
f 1/1/1 7/2/7 22/3/22 24/4/24
f 14/5/14 15/6/15 9/7/9 3/8/3
f 3/8/3 9/7/9 19/9/19 20/10/20
f 4/11/4 10/12/10 21/13/21 23/10/23
f 7/2/7 18/3/18 29/14/29 33/15/33
f 5/8/5 11/16/11 17/17/17 16/5/16
f 6/18/6 12/19/12 18/3/18 37/4/37
f 8/19/8 36/20/36 26/21/26 15/6/15
f 9/7/9 34/22/34 25/23/25 19/9/19
f 13/24/13 27/25/27 32/26/32
f 13/24/13 36/20/36 30/14/30
f 11/16/11 28/27/28 31/28/31 17/17/17
f 2/18/2 8/19/8 15/6/15 14/5/14
f 15/6/15 26/21/26 34/22/34 9/7/9
f 16/5/16 17/17/17 12/19/12 6/18/6
f 17/17/17 31/28/31 35/29/35 12/19/12
f 19/9/19 25/23/25 32/26/32 10/12/10
f 13/24/13 29/14/29 35/29/35
f 20/10/20 19/9/19 10/12/10 4/11/4
f 21/13/21 27/25/27 28/27/28 11/16/11
f 22/3/22 7/2/7 33/15/33 30/14/30
f 24/4/24 22/3/22 8/19/8 2/18/2
f 23/10/23 21/13/21 11/16/11 5/8/5
f 34/22/34 26/21/26 13/24/13
f 33/15/33 29/14/29 13/24/13
f 35/29/35 31/28/31 13/24/13
f 26/21/26 36/20/36 13/24/13
f 35/29/35 29/14/29 18/3/18 12/19/12
f 25/23/25 34/22/34 13/24/13
f 31/28/31 28/27/28 13/24/13
f 32/26/32 27/25/27 21/13/21 10/12/10
f 32/26/32 25/23/25 13/24/13
f 28/27/28 27/25/27 13/24/13
f 30/14/30 36/20/36 8/19/8 22/3/22
f 30/14/30 33/15/33 13/24/13
f 37/4/37 18/3/18 7/2/7 1/1/1
